<svg preserveAspectRatio="none" width="100%" height="100%" overflow="visible" style="display: block;" viewBox="0 0 22 22" fill="none" xmlns="http://www.w3.org/2000/svg">
<g id="SVG" clip-path="url(#clip0_0_40)">
<path id="Vector" d="M5.5 8.34167C6.05689 8.34167 6.50833 7.89022 6.50833 7.33333C6.50833 6.77645 6.05689 6.325 5.5 6.325C4.94311 6.325 4.49167 6.77645 4.49167 7.33333C4.49167 7.89022 4.94311 8.34167 5.5 8.34167Z" fill="var(--fill-0, #6B466C)"/>
<path id="Vector_2" d="M11 6.50833C11.5569 6.50833 12.0083 6.05689 12.0083 5.5C12.0083 4.94311 11.5569 4.49167 11 4.49167C10.4431 4.49167 9.99167 4.94311 9.99167 5.5C9.99167 6.05689 10.4431 6.50833 11 6.50833Z" fill="var(--fill-0, #6B466C)"/>
<path id="Vector_3" d="M16.5 8.34167C17.0569 8.34167 17.5083 7.89022 17.5083 7.33333C17.5083 6.77645 17.0569 6.325 16.5 6.325C15.9431 6.325 15.4917 6.77645 15.4917 7.33333C15.4917 7.89022 15.9431 8.34167 16.5 8.34167Z" fill="var(--fill-0, #6B466C)"/>
<path id="Vector_4" d="M8.25 11.0917C8.80689 11.0917 9.25833 10.6402 9.25833 10.0833C9.25833 9.52645 8.80689 9.075 8.25 9.075C7.69311 9.075 7.24167 9.52645 7.24167 10.0833C7.24167 10.6402 7.69311 11.0917 8.25 11.0917Z" fill="var(--fill-0, #6B466C)"/>
<path id="Vector_5" d="M13.75 11.0917C14.3069 11.0917 14.7583 10.6402 14.7583 10.0833C14.7583 9.52645 14.3069 9.075 13.75 9.075C13.1931 9.075 12.7417 9.52645 12.7417 10.0833C12.7417 10.6402 13.1931 11.0917 13.75 11.0917Z" fill="var(--fill-0, #6B466C)"/>
<path id="Vector_6" d="M1.83333 18.3333C3.66667 17.4167 5.5 14.6667 8.25 14.6667C11 14.6667 11 17.4167 12.8333 17.4167C14.6667 17.4167 15.5833 14.6667 17.4167 14.6667C19.25 14.6667 20.1667 16.5 22 16.5V20.1667H1.83333V18.3333Z" fill="var(--fill-0, #6B466C)"/>
</g>
<defs>
<clipPath id="clip0_0_40">
<rect width="22" height="22" fill="white"/>
</clipPath>
</defs>
</svg>
