<svg preserveAspectRatio="none" width="100%" height="100%" overflow="visible" style="display: block;" viewBox="0 0 22 22" fill="none" xmlns="http://www.w3.org/2000/svg">
<g id="SVG">
<path id="Vector" d="M5.5 17.875C7.27191 17.875 8.70833 16.4386 8.70833 14.6667C8.70833 12.8948 7.27191 11.4583 5.5 11.4583C3.72809 11.4583 2.29167 12.8948 2.29167 14.6667C2.29167 16.4386 3.72809 17.875 5.5 17.875Z" stroke="var(--stroke-0, #B75B22)" stroke-width="1.46667"/>
<path id="Vector_2" d="M16.5 17.875C18.2719 17.875 19.7083 16.4386 19.7083 14.6667C19.7083 12.8948 18.2719 11.4583 16.5 11.4583C14.7281 11.4583 13.2917 12.8948 13.2917 14.6667C13.2917 16.4386 14.7281 17.875 16.5 17.875Z" stroke="var(--stroke-0, #B75B22)" stroke-width="1.46667"/>
<path id="Vector_3" d="M5.5 14.6667L9.16667 8.25M9.16667 8.25H13.75L16.5 14.6667M9.16667 8.25L8.25 6.41667H6.41667M12.8333 8.25L13.75 6.41667H15.5833" stroke="var(--stroke-0, #B75B22)" stroke-width="1.46667" stroke-linecap="round" stroke-linejoin="round"/>
</g>
</svg>
