<svg preserveAspectRatio="none" width="100%" height="100%" overflow="visible" style="display: block;" viewBox="0 0 22 22" fill="none" xmlns="http://www.w3.org/2000/svg">
<g id="SVG">
<path id="Vector" d="M4.58333 12.8333C4.58333 11.1315 5.25937 9.49942 6.46273 8.29607C7.66609 7.09271 9.29819 6.41667 11 6.41667C12.7018 6.41667 14.3339 7.09271 15.5373 8.29607C16.7406 9.49942 17.4167 11.1315 17.4167 12.8333H4.58333Z" fill="var(--fill-0, #B75B22)"/>
<path id="Vector_2" d="M18.7 14.6667H3.3C2.99624 14.6667 2.75 14.9129 2.75 15.2167C2.75 15.5204 2.99624 15.7667 3.3 15.7667H18.7C19.0038 15.7667 19.25 15.5204 19.25 15.2167C19.25 14.9129 19.0038 14.6667 18.7 14.6667Z" fill="var(--fill-0, #B75B22)"/>
<path id="Vector_3" d="M17.7833 16.9583H4.21667C3.91291 16.9583 3.66667 17.2046 3.66667 17.5083C3.66667 17.8121 3.91291 18.0583 4.21667 18.0583H17.7833C18.0871 18.0583 18.3333 17.8121 18.3333 17.5083C18.3333 17.2046 18.0871 16.9583 17.7833 16.9583Z" fill="var(--fill-0, #B75B22)"/>
</g>
</svg>
