<svg preserveAspectRatio="none" width="100%" height="100%" overflow="visible" style="display: block;" viewBox="0 0 22 22" fill="none" xmlns="http://www.w3.org/2000/svg">
<g id="SVG">
<path id="Vector" d="M11 18.3333C11 18.3333 4.58333 14.3 4.58333 9.16667C4.59176 8.42546 4.82463 7.70421 5.25126 7.09803C5.67788 6.49185 6.27821 6.02921 6.97308 5.77111C7.66795 5.51302 8.42473 5.47159 9.14362 5.65229C9.86252 5.833 10.5098 6.22734 11 6.78333C11.4902 6.22734 12.1375 5.833 12.8564 5.65229C13.5753 5.47159 14.332 5.51302 15.0269 5.77111C15.7218 6.02921 16.3221 6.49185 16.7487 7.09803C17.1754 7.70421 17.4082 8.42546 17.4167 9.16667C17.4167 14.3 11 18.3333 11 18.3333Z" fill="var(--fill-0, #B14963)"/>
</g>
</svg>
