<svg preserveAspectRatio="none" width="100%" height="100%" overflow="visible" style="display: block;" viewBox="0 0 22 22" fill="none" xmlns="http://www.w3.org/2000/svg">
<g id="SVG">
<path id="Vector" d="M3.66667 4.58333C5.5 3.66667 7.33333 3.66667 9.16667 4.58333C10.6333 3.85 12.2833 3.85 13.75 4.58333V5.5H3.66667V4.58333Z" fill="var(--fill-0, white)"/>
<path id="Vector_2" d="M4.58333 5.5H13.75V17.4167C13.75 17.9029 13.5568 18.3692 13.213 18.713C12.8692 19.0568 12.4029 19.25 11.9167 19.25H6.41667C5.93044 19.25 5.46412 19.0568 5.1203 18.713C4.77649 18.3692 4.58333 17.9029 4.58333 17.4167V5.5Z" fill="var(--fill-0, #7A5413)"/>
<path id="Vector_3" d="M13.75 8.25H16.0417C16.5279 8.25 16.9942 8.44315 17.338 8.78697C17.6818 9.13079 17.875 9.5971 17.875 10.0833V12.8333C17.875 13.3196 17.6818 13.7859 17.338 14.1297C16.9942 14.4735 16.5279 14.6667 16.0417 14.6667H13.75V8.25Z" stroke="var(--stroke-0, #7A5413)" stroke-width="1.46667"/>
</g>
</svg>
