<svg width="48" height="48" viewBox="0 0 48 48" fill="none" xmlns="http://www.w3.org/2000/svg">
<g clip-path="url(#clip0_3620_13499)">
<path d="M9.29573 43.4582V41.1729C9.32284 40.7841 9.18032 40.4026 8.90455 40.1255C8.62877 39.8485 8.24641 39.7028 7.855 39.7256C7.33918 39.692 6.84584 39.9401 6.56753 40.3731C6.31379 39.953 5.84919 39.7046 5.3567 39.7256C4.9279 39.7041 4.51968 39.9099 4.28382 40.2665V39.817H3.48682V43.4582H4.29148V41.4548C4.25683 41.2027 4.33719 40.9484 4.51063 40.7612C4.68407 40.5741 4.9325 40.4737 5.18811 40.4874C5.71689 40.4874 5.98511 40.8302 5.98511 41.4472V43.4734H6.78977V41.4548C6.75654 41.203 6.83739 40.9495 7.01051 40.7627C7.18363 40.5759 7.43119 40.4751 7.6864 40.4874C8.23051 40.4874 8.49107 40.8302 8.49107 41.4472V43.4734L9.29573 43.4582ZM21.2009 39.817H19.8905V38.7125H19.0858V39.817H18.3578V40.5407H19.1011V42.2165C19.1011 43.0621 19.4307 43.5648 20.3733 43.5648C20.7254 43.566 21.0708 43.4683 21.3695 43.283L21.1396 42.605C20.9259 42.7317 20.6833 42.8025 20.4346 42.8107C20.0514 42.8107 19.9058 42.5669 19.9058 42.2013V40.5407H21.2086L21.2009 39.817ZM27.9984 39.7256C27.6026 39.7141 27.2321 39.9187 27.0328 40.2588V39.817H26.2435V43.4582H27.0405V41.4167C27.0405 40.8149 27.3011 40.4798 27.8069 40.4798C27.9773 40.4774 28.1466 40.5085 28.305 40.5712L28.5502 39.8094C28.3682 39.7447 28.1764 39.7112 27.9831 39.7104L27.9984 39.7256ZM17.7217 40.1065C17.2706 39.8399 16.7519 39.7077 16.2273 39.7256C15.3001 39.7256 14.6946 40.1674 14.6946 40.8911C14.6946 41.4852 15.1391 41.8509 15.9591 41.9651L16.3423 42.0185C16.7791 42.0794 16.986 42.1937 16.986 42.3993C16.986 42.6812 16.6948 42.8411 16.1507 42.8411C15.713 42.8537 15.2839 42.7196 14.9322 42.4603L14.549 43.0773C15.0133 43.3995 15.5694 43.565 16.1354 43.5496C17.1929 43.5496 17.806 43.0544 17.806 42.3613C17.806 41.6681 17.3232 41.3862 16.5262 41.272L16.143 41.2186C15.7982 41.1729 15.5223 41.1044 15.5223 40.8606C15.5223 40.6169 15.7829 40.434 16.2197 40.434C16.6234 40.4387 17.0192 40.5462 17.3692 40.7464L17.7217 40.1065ZM39.0683 39.7256C38.6725 39.7141 38.302 39.9187 38.1027 40.2588V39.817H37.3134V43.4582H38.1104V41.4167C38.1104 40.8149 38.3709 40.4798 38.8767 40.4798C39.0472 40.4774 39.2165 40.5085 39.3749 40.5712L39.6201 39.8094C39.4381 39.7447 39.2463 39.7112 39.053 39.7104L39.0683 39.7256ZM28.7993 41.63C28.7801 42.1474 28.9812 42.6488 29.3531 43.0113C29.725 43.3737 30.2334 43.5636 30.7535 43.5343C31.232 43.5585 31.7023 43.4036 32.0716 43.1001L31.6884 42.4603C31.4129 42.6691 31.0769 42.784 30.7305 42.7878C30.1196 42.7387 29.649 42.2316 29.649 41.6224C29.649 41.0132 30.1196 40.506 30.7305 40.4569C31.0769 40.4607 31.4129 40.5756 31.6884 40.7844L32.0716 40.1446C31.7023 39.8411 31.232 39.6862 30.7535 39.7104C30.2334 39.6811 29.725 39.871 29.3531 40.2334C28.9812 40.5959 28.7801 41.0974 28.7993 41.6147V41.63ZM36.2635 41.63V39.817H35.4665V40.2588C35.1919 39.9077 34.7641 39.7092 34.317 39.7256C33.2589 39.7256 32.4011 40.5782 32.4011 41.63C32.4011 42.6817 33.2589 43.5343 34.317 43.5343C34.7641 43.5507 35.1919 43.3523 35.4665 43.0011V43.4429H36.2635V41.63ZM33.2977 41.63C33.3332 41.0323 33.8428 40.5723 34.4447 40.5948C35.0467 40.6173 35.5201 41.1139 35.5104 41.7125C35.5007 42.3112 35.0113 42.7923 34.4089 42.7954C34.1022 42.7993 33.8078 42.6757 33.5968 42.4543C33.3858 42.233 33.2774 41.9342 33.2977 41.63ZM23.6801 39.7256C22.622 39.7404 21.7762 40.6049 21.791 41.6566C21.8058 42.7084 22.6756 43.5491 23.7337 43.5343C24.285 43.5625 24.8271 43.386 25.2549 43.0392L24.8717 42.4527C24.5692 42.6939 24.1943 42.8279 23.8065 42.8335C23.2587 42.8804 22.7729 42.4853 22.7106 41.9423H25.4312C25.4312 41.8433 25.4312 41.7442 25.4312 41.6376C25.4312 40.495 24.7185 39.7332 23.6916 39.7332L23.6801 39.7256ZM23.6801 40.434C23.9209 40.4289 24.154 40.5192 24.3279 40.6849C24.5018 40.8506 24.6023 41.0782 24.6073 41.3177H22.6915C22.7203 40.8091 23.1526 40.4167 23.6647 40.434H23.6801ZM43.6472 41.6376V38.3545H42.8809V40.2588C42.6063 39.9077 42.1785 39.7092 41.7314 39.7256C40.6733 39.7256 39.8155 40.5782 39.8155 41.63C39.8155 42.6817 40.6733 43.5343 41.7314 43.5343C42.1785 43.5507 42.6063 43.3523 42.8809 43.0011V43.4429H43.6472V41.6376ZM44.9769 42.9287C45.0267 42.9281 45.0761 42.9372 45.1225 42.9554C45.1665 42.9733 45.2068 42.9991 45.2412 43.0316C45.2749 43.0644 45.3022 43.1032 45.3217 43.1458C45.3609 43.2357 45.3609 43.3378 45.3217 43.4277C45.3022 43.4704 45.2749 43.5091 45.2412 43.5419C45.2068 43.5744 45.1665 43.6003 45.1225 43.6181C45.0766 43.6382 45.027 43.6486 44.9769 43.6486C44.8286 43.6475 44.6943 43.5614 44.632 43.4277C44.5932 43.3377 44.5932 43.2358 44.632 43.1458C44.6515 43.1032 44.6788 43.0644 44.7125 43.0316C44.747 42.9991 44.7873 42.9733 44.8313 42.9554C44.8812 42.9357 44.9347 42.9266 44.9884 42.9287H44.9769ZM44.9769 43.5724C45.0151 43.5727 45.053 43.5649 45.088 43.5496C45.1209 43.5349 45.1508 43.5143 45.1761 43.4886C45.2755 43.3809 45.2755 43.2155 45.1761 43.1078C45.1509 43.0821 45.121 43.0614 45.088 43.0468C45.0529 43.0316 45.0151 43.0238 44.9769 43.024C44.9387 43.0242 44.9009 43.0319 44.8657 43.0468C44.8313 43.0609 44.8 43.0816 44.7738 43.1078C44.6744 43.2155 44.6744 43.3809 44.7738 43.4886C44.8001 43.5147 44.8314 43.5354 44.8657 43.5496C44.9044 43.5661 44.9463 43.5739 44.9884 43.5724H44.9769ZM44.9999 43.1192C45.0356 43.1175 45.0709 43.1282 45.0995 43.1497C45.1233 43.1692 45.1361 43.199 45.134 43.2296C45.1351 43.2552 45.1253 43.2801 45.1071 43.2982C45.0849 43.3182 45.0566 43.3303 45.0267 43.3325L45.1378 43.4582H45.0497L44.9462 43.3325H44.9117V43.4582H44.8389V43.123L44.9999 43.1192ZM44.9156 43.1839V43.2753H44.9999C45.0149 43.2798 45.0308 43.2798 45.0458 43.2753C45.0513 43.2646 45.0513 43.2518 45.0458 43.2411C45.0513 43.2303 45.0513 43.2176 45.0458 43.2068C45.0308 43.2023 45.0149 43.2023 44.9999 43.2068L44.9156 43.1839ZM40.7006 41.6376C40.7361 41.0399 41.2457 40.58 41.8476 40.6024C42.4496 40.6249 42.9231 41.1215 42.9133 41.7201C42.9036 42.3188 42.4142 42.8 41.8118 42.8031C41.5051 42.8069 41.2107 42.6833 40.9997 42.462C40.7887 42.2407 40.6803 41.9418 40.7006 41.6376ZM13.7904 41.6376V39.817H12.9934V40.2588C12.7188 39.9077 12.291 39.7092 11.8438 39.7256C10.7857 39.7256 9.92797 40.5782 9.92797 41.63C9.92797 42.6817 10.7857 43.5343 11.8438 43.5343C12.291 43.5507 12.7188 43.3523 12.9934 43.0011V43.4429H13.7904V41.6376ZM10.8246 41.6376C10.86 41.0399 11.3696 40.58 11.9716 40.6024C12.5735 40.6249 13.047 41.1215 13.0373 41.7201C13.0275 42.3188 12.5382 42.8 11.9358 42.8031C11.6278 42.8091 11.3313 42.6864 11.1186 42.4648C10.9059 42.2433 10.7965 41.9432 10.8169 41.6376H10.8246Z" fill="#231F20"/>
<path d="M29.527 12.0703H17.457V33.6314H29.527V12.0703Z" fill="#FF5F00"/>
<path d="M18.2235 22.8531C18.219 18.6451 20.1619 14.6688 23.4922 12.0707C17.8364 7.65258 9.71459 8.29611 4.83443 13.549C-0.0457221 18.8019 -0.0457221 26.9005 4.83443 32.1534C9.71459 37.4063 17.8364 38.0498 23.4922 33.6318C20.163 31.0344 18.2202 27.0598 18.2235 22.8531Z" fill="#EB001B"/>
<path d="M45.8121 22.8526C45.8121 28.1023 42.7963 32.8911 38.0458 35.1852C33.2953 37.4793 27.6441 36.8759 23.4922 33.6313C26.8199 31.0318 28.7629 27.0577 28.7629 22.8507C28.7629 18.6438 26.8199 14.6697 23.4922 12.0702C27.6441 8.8256 33.2953 8.22221 38.0458 10.5163C42.7963 12.8104 45.8121 17.5991 45.8121 22.8488V22.8526Z" fill="#F79E1B"/>
<path d="M44.4937 31.3457V30.9039H44.6738V30.8125H44.2178V30.9039H44.4132V31.3457H44.4937ZM45.3788 31.3457V30.8125H45.2408L45.0799 31.1934L44.919 30.8125H44.7964V31.3457H44.896V30.9458L45.0454 31.2924H45.1489L45.2983 30.9458V31.3495L45.3788 31.3457Z" fill="#F79E1B"/>
</g>
<defs>
<clipPath id="clip0_3620_13499">
<rect width="46" height="34.7347" fill="white" transform="translate(1 9)"/>
</clipPath>
</defs>
</svg>
