<svg width="58" height="58" viewBox="0 0 58 58" fill="none" xmlns="http://www.w3.org/2000/svg">
<g filter="url(#filter0_d_4609_6580)">
<rect x="4" width="50" height="50" rx="25" fill="#DBDBDB" shape-rendering="crispEdges"/>
<path d="M28.9368 12C29.4551 12.0077 30.0636 12.3446 30.4925 13.0986L33.4993 20.2471L33.6155 20.5234L33.9134 20.5508L41.6536 21.2793H41.6546C42.5452 21.362 43.0007 21.8057 43.1497 22.2939C43.3044 22.8011 43.1699 23.4925 42.5931 24.1348L36.7943 29.2295L36.5716 29.4248L36.636 29.7139L38.3441 37.3828C38.5372 38.2622 38.2609 38.839 37.8519 39.1328C37.4307 39.4353 36.7468 39.5258 35.9564 39.1719L29.3694 35.1729L29.1116 35.0166L28.8528 35.1709L22.1585 39.1807C21.3916 39.6408 20.7704 39.5506 20.3704 39.2471C19.9529 38.9302 19.6569 38.2908 19.7474 37.4258L21.473 29.8613L21.5394 29.5732L21.3177 29.377L15.4212 24.1357C14.7891 23.544 14.6955 22.928 14.8665 22.4531C15.0444 21.9592 15.5537 21.4909 16.3773 21.3184L24.0296 20.6367L24.3275 20.6104L24.4446 20.335L27.5237 13.1221V13.1211C27.8778 12.2903 28.4372 11.9928 28.9368 12Z" fill="white" stroke="white"/>
</g>
<defs>
<filter id="filter0_d_4609_6580" x="0" y="0" width="58" height="58" filterUnits="userSpaceOnUse" color-interpolation-filters="sRGB">
<feFlood flood-opacity="0" result="BackgroundImageFix"/>
<feColorMatrix in="SourceAlpha" type="matrix" values="0 0 0 0 0 0 0 0 0 0 0 0 0 0 0 0 0 0 127 0" result="hardAlpha"/>
<feOffset dy="4"/>
<feGaussianBlur stdDeviation="2"/>
<feComposite in2="hardAlpha" operator="out"/>
<feColorMatrix type="matrix" values="0 0 0 0 0 0 0 0 0 0 0 0 0 0 0 0 0 0 0.25 0"/>
<feBlend mode="normal" in2="BackgroundImageFix" result="effect1_dropShadow_4609_6580"/>
<feBlend mode="normal" in="SourceGraphic" in2="effect1_dropShadow_4609_6580" result="shape"/>
</filter>
</defs>
</svg>
