<svg width="40" height="40" viewBox="0 0 40 40" fill="none" xmlns="http://www.w3.org/2000/svg">
<g filter="url(#filter0_d_4609_6572)">
<rect x="4" width="32" height="32" rx="16" fill="#DBDBDB" shape-rendering="crispEdges"/>
<path d="M19.958 8.25C20.1899 8.25333 20.5034 8.40693 20.7393 8.81836L22.5703 13.1709L22.6865 13.4463L22.9844 13.4746L27.7148 13.9199C28.1949 13.9644 28.3968 14.1931 28.4609 14.4033C28.5311 14.6337 28.4786 14.9844 28.165 15.3359L24.6348 18.4385L24.4121 18.6338L24.4766 18.9229L25.5205 23.6094C25.6251 24.086 25.4708 24.3528 25.2959 24.4785C25.1078 24.6136 24.7692 24.6762 24.3379 24.4854L20.3262 22.0508L20.0684 21.8936L19.8105 22.0488L15.7197 24.499H15.7188C15.3053 24.747 15.0137 24.6807 14.8438 24.5518C14.6554 24.4088 14.4912 24.0937 14.5391 23.6201L15.5898 19.0137L15.6553 18.7256L15.4346 18.5293L11.8379 15.333C11.4957 15.0145 11.4718 14.7159 11.5459 14.5098C11.6268 14.285 11.8726 14.0378 12.3203 13.9424L16.9795 13.5273L17.2773 13.501L17.3945 13.2256L19.2764 8.81738C19.468 8.36771 19.7465 8.24707 19.958 8.25Z" fill="white" stroke="white"/>
</g>
<defs>
<filter id="filter0_d_4609_6572" x="0" y="0" width="40" height="40" filterUnits="userSpaceOnUse" color-interpolation-filters="sRGB">
<feFlood flood-opacity="0" result="BackgroundImageFix"/>
<feColorMatrix in="SourceAlpha" type="matrix" values="0 0 0 0 0 0 0 0 0 0 0 0 0 0 0 0 0 0 127 0" result="hardAlpha"/>
<feOffset dy="4"/>
<feGaussianBlur stdDeviation="2"/>
<feComposite in2="hardAlpha" operator="out"/>
<feColorMatrix type="matrix" values="0 0 0 0 0 0 0 0 0 0 0 0 0 0 0 0 0 0 0.25 0"/>
<feBlend mode="normal" in2="BackgroundImageFix" result="effect1_dropShadow_4609_6572"/>
<feBlend mode="normal" in="SourceGraphic" in2="effect1_dropShadow_4609_6572" result="shape"/>
</filter>
</defs>
</svg>
