<svg width="49" height="32" viewBox="0 0 49 32" fill="none" xmlns="http://www.w3.org/2000/svg">
<rect x="0.799866" width="48" height="32" rx="6.4" fill="white"/>
<path d="M6.79987 26.5562V21.5219H8.3599C9.49381 21.5219 10.2233 21.9462 10.2233 22.8236C10.2233 23.3198 9.99216 23.6651 9.66715 23.8664C10.1366 24.0822 10.411 24.4993 10.411 25.0675C10.411 26.0816 9.66715 26.5562 8.51157 26.5562L6.79987 26.5562ZM7.80377 23.6147H8.54768C9.00268 23.6147 9.1977 23.3917 9.1977 22.9818C9.1977 22.5431 8.8438 22.3993 8.36711 22.3993H7.80377V23.6147ZM7.80377 25.6788H8.42489C9.03158 25.6788 9.38547 25.5278 9.38547 25.0531C9.38547 24.5856 9.08214 24.3914 8.51157 24.3914H7.80377V25.6788ZM12.3579 26.6425C11.3684 26.6425 10.8701 26.1607 10.8701 25.5134C10.8701 24.8014 11.4551 24.3842 12.3218 24.377C12.5371 24.381 12.7519 24.4002 12.9646 24.4346V24.262C12.9646 23.8233 12.7118 23.6147 12.2279 23.6147C11.9019 23.6106 11.5782 23.6692 11.2745 23.7873L11.094 23.0106C11.4045 22.8811 11.9029 22.7948 12.3434 22.7948C13.4051 22.7948 13.9324 23.3558 13.9324 24.3267V26.3261C13.6362 26.4771 13.0801 26.6425 12.3579 26.6425ZM12.9646 25.8298V25.0603C12.7962 25.023 12.6243 25.0037 12.4518 25.0027C12.1195 25.0027 11.8595 25.1322 11.8595 25.4702C11.8595 25.7723 12.0762 25.9305 12.459 25.9305C12.6331 25.9362 12.8061 25.9017 12.9646 25.8298ZM14.6341 26.5562V23.1113C15.1531 22.9037 15.707 22.7963 16.2663 22.7948C17.3208 22.7948 17.9275 23.3126 17.9275 24.2692V26.5562H16.9308V24.3411C16.9308 23.8448 16.6997 23.6147 16.2591 23.6147C16.0403 23.6116 15.8235 23.6558 15.6235 23.7442V26.5562L14.6341 26.5562ZM21.4105 23.0106L21.2227 23.7945C20.9647 23.6832 20.6877 23.6221 20.4066 23.6147C19.8216 23.6147 19.5038 24.0246 19.5038 24.7007C19.5038 25.4415 19.8361 25.8226 20.4572 25.8226C20.7344 25.8151 21.0071 25.7515 21.2589 25.6356L21.4177 26.434C21.0907 26.5789 20.7356 26.6501 20.3777 26.6425C19.1788 26.6425 18.4855 25.9017 18.4855 24.7294C18.4855 23.5644 19.1716 22.7948 20.32 22.7948C20.6944 22.793 21.0653 22.8664 21.4105 23.0106ZM23.5637 26.6425C22.4514 26.6425 21.7581 25.873 21.7581 24.7151C21.7581 23.5644 22.4514 22.7948 23.5637 22.7948C24.6832 22.7948 25.3621 23.5644 25.3621 24.7151C25.3621 25.873 24.6832 26.6425 23.5637 26.6425ZM23.5637 25.8226C24.0765 25.8226 24.3437 25.3983 24.3437 24.7151C24.3437 24.039 24.0765 23.6147 23.5637 23.6147C23.0581 23.6147 22.7765 24.039 22.7765 24.7151C22.7765 25.3983 23.0581 25.8226 23.5637 25.8226ZM25.9388 26.5562V23.1113C26.4578 22.9037 27.0118 22.7963 27.5711 22.7948C28.6255 22.7948 29.2322 23.3126 29.2322 24.2692V26.5562H28.2355V24.3411C28.2355 23.8448 28.0044 23.6147 27.5639 23.6147C27.3451 23.6116 27.1283 23.6558 26.9283 23.7442V26.5562L25.9388 26.5562ZM31.48 26.6425C30.6205 26.6425 30.18 26.175 30.18 25.2257V23.6722H29.6888V22.8811H30.18V22.0828L31.1766 22.0325V22.8811H31.9783V23.6722H31.1766V25.2113C31.1766 25.6285 31.35 25.8226 31.675 25.8226C31.8038 25.8223 31.9322 25.8078 32.0578 25.7795L32.1083 26.5778C31.9021 26.6233 31.6912 26.645 31.48 26.6425ZM33.9957 26.6425C33.0062 26.6425 32.5079 26.1607 32.5079 25.5134C32.5079 24.8014 33.0929 24.3842 33.9596 24.377C34.175 24.381 34.3898 24.4002 34.6024 24.4346V24.262C34.6024 23.8233 34.3496 23.6147 33.8657 23.6147C33.5397 23.6106 33.216 23.6692 32.9123 23.7873L32.7318 23.0106C33.0423 22.8811 33.5407 22.7948 33.9813 22.7948C35.0429 22.7948 35.5702 23.3558 35.5702 24.3267V26.3261C35.2741 26.4771 34.7179 26.6425 33.9957 26.6425ZM34.6024 25.8298V25.0603C34.434 25.023 34.2621 25.0037 34.0896 25.0027C33.7574 25.0027 33.4974 25.1322 33.4974 25.4702C33.4974 25.7723 33.714 25.9305 34.0968 25.9305C34.2709 25.9362 34.4439 25.9017 34.6024 25.8298ZM38.9802 23.0106L38.7924 23.7945C38.5344 23.6832 38.2574 23.6221 37.9763 23.6147C37.3913 23.6147 37.0735 24.0246 37.0735 24.7007C37.0735 25.4415 37.4057 25.8226 38.0268 25.8226C38.304 25.8151 38.5768 25.7515 38.8285 25.6356L38.9874 26.434C38.6604 26.5789 38.3053 26.6501 37.9474 26.6425C36.7485 26.6425 36.0551 25.9017 36.0551 24.7294C36.0551 23.5644 36.7413 22.7948 37.8896 22.7948C38.264 22.793 38.6349 22.8664 38.9802 23.0106ZM41.1715 26.6425C40.3121 26.6425 39.8715 26.175 39.8715 25.2257V23.6722H39.3804V22.8811H39.8715V22.0828L40.8682 22.0325V22.8811H41.6699V23.6722H40.8682V25.2113C40.8682 25.6285 41.0415 25.8226 41.3665 25.8226C41.4953 25.8223 41.6237 25.8078 41.7493 25.7795L41.7999 26.5778C41.5936 26.6233 41.3828 26.645 41.1715 26.6425Z" fill="#1E3764"/>
<path d="M13.752 19.0047C19.0259 19.0047 21.6629 15.5035 24.2999 12.0023H6.79987V19.0047H13.752Z" fill="url(#paint0_linear_5640_20743)"/>
<path d="M34.8477 5C29.5738 5 26.9368 8.50117 24.2998 12.0023H41.7998V5H34.8477Z" fill="url(#paint1_linear_5640_20743)"/>
<defs>
<linearGradient id="paint0_linear_5640_20743" x1="10.3396" y1="15.8268" x2="23.1284" y2="11.0565" gradientUnits="userSpaceOnUse">
<stop stop-color="#005AB9"/>
<stop offset="1" stop-color="#1E3764"/>
</linearGradient>
<linearGradient id="paint1_linear_5640_20743" x1="25.3594" y1="12.6097" x2="38.9405" y2="7.95654" gradientUnits="userSpaceOnUse">
<stop stop-color="#FBA900"/>
<stop offset="1" stop-color="#FFD800"/>
</linearGradient>
</defs>
</svg>
