<svg width="148" height="15" viewBox="0 0 148 15" fill="none" xmlns="http://www.w3.org/2000/svg">
<g clip-path="url(#clip0_4996_1755)">
<path d="M6.10155 14.6802C5.90278 14.6719 5.70401 14.6048 5.5398 14.4874C5.35831 14.3868 5.22003 14.2275 5.14225 14.0347L0.0345697 0.788236C0.00864247 0.729543 0 0.662475 0 0.595405C0 0.545102 0 0.4948 0.0259273 0.444497C0.0432122 0.394194 0.0777817 0.352275 0.112352 0.318739C0.155563 0.276821 0.207419 0.251669 0.267915 0.234901C0.31977 0.218134 0.380267 0.209749 0.440764 0.218133H5.30646C5.49659 0.226516 5.68672 0.301971 5.84228 0.419345C6.01513 0.528335 6.13612 0.687628 6.20526 0.880457L8.70292 9.2475L11.2956 0.863686C11.3648 0.687628 11.4771 0.528335 11.6413 0.419345C11.7969 0.293588 11.987 0.226516 12.1945 0.218133H16.9305C17.0515 0.218133 17.1639 0.251668 17.2503 0.327123C17.2935 0.360658 17.3195 0.402577 17.3367 0.45288C17.354 0.503183 17.3626 0.553486 17.3626 0.603789C17.3626 0.67086 17.3454 0.737929 17.3281 0.805L12.0562 14.0514C11.9697 14.2359 11.8401 14.3868 11.6673 14.4958C11.5031 14.6216 11.3043 14.6886 11.0882 14.697H6.11884L6.10155 14.6802Z" fill="#0E0E0C"/>
<path d="M19.0911 14.6799C18.9183 14.6799 18.7541 14.6045 18.633 14.4871C18.5639 14.4284 18.5121 14.3614 18.4688 14.2775C18.4343 14.2021 18.417 14.1099 18.417 14.026V5.26492C18.417 5.18108 18.4343 5.09725 18.4688 5.02179C18.5034 4.94633 18.5553 4.87088 18.6158 4.8122C18.6763 4.74512 18.7454 4.69482 18.8318 4.66128C18.9183 4.62775 19.0047 4.61098 19.0911 4.61098H23.6716C23.758 4.61098 23.8445 4.63613 23.9222 4.66967C24 4.7032 24.0691 4.75351 24.1296 4.8122C24.1988 4.87088 24.2506 4.93795 24.2852 5.0134C24.3198 5.08886 24.3457 5.1727 24.3457 5.26492V14.026C24.3457 14.1099 24.3284 14.1937 24.2938 14.2691C24.2593 14.3446 24.2074 14.4201 24.1469 14.4787C24.0864 14.5458 24.0173 14.5961 23.9308 14.6296C23.8445 14.6632 23.758 14.6799 23.6716 14.6799H19.0911ZM19.0911 3.36179C18.9183 3.36179 18.7541 3.28634 18.633 3.16896C18.5639 3.11027 18.5121 3.0432 18.4688 2.95937C18.4343 2.87553 18.417 2.79169 18.417 2.70785V0.86341C18.4257 0.695735 18.5034 0.544825 18.6244 0.427451C18.6762 0.360381 18.7541 0.310078 18.8318 0.268159C18.9096 0.22624 18.996 0.209473 19.0911 0.209473H23.6716C23.758 0.209473 23.8445 0.234624 23.9222 0.268159C24 0.301695 24.0691 0.351997 24.1296 0.410684C24.1988 0.469371 24.2506 0.536442 24.2852 0.611897C24.3198 0.687351 24.3457 0.771189 24.3457 0.855025V2.69947C24.3371 2.86715 24.2593 3.01805 24.1383 3.13542C24.0864 3.2025 24.0087 3.2528 23.9308 3.29472C23.8531 3.33664 23.7666 3.35341 23.6716 3.35341H19.0911V3.36179Z" fill="#0E0E0C"/>
<path d="M31.1992 14.8059C29.6003 14.8059 28.2434 14.4202 27.1631 13.6656C26.0828 12.9111 25.5557 11.7876 25.5557 10.3205C25.5557 8.85329 26.1606 8.01493 27.3619 7.08433C28.5459 6.16211 30.0238 5.66746 31.5448 5.68424C32.2449 5.67585 32.9363 5.73454 33.619 5.86868C34.1807 5.99444 34.7685 6.25434 35.3734 6.64837L35.5376 6.75736V5.72615C35.5376 5.21474 35.2179 4.78716 34.5956 4.46019C33.9906 4.14161 33.2042 3.98231 32.2535 3.98231C30.6201 3.98231 29.0212 4.36797 27.578 5.10575C27.5347 5.1309 27.4915 5.14767 27.4397 5.14767C27.3792 5.14767 27.3187 5.1309 27.2582 5.10575C27.1804 5.07221 27.0854 5.00514 27.0854 4.79555V2.19656C27.0854 1.71869 27.2841 1.39171 27.6989 1.19889C29.4361 0.419191 31.3115 0 33.2215 0C35.3821 0 37.2834 0.536564 38.8823 1.58454C40.4638 2.63252 41.2676 3.82302 41.2676 5.13929V14.0261C41.2676 14.11 41.2503 14.1938 41.2157 14.2693C41.1811 14.3447 41.1293 14.4202 41.0688 14.4789C41.0083 14.5459 40.9392 14.5962 40.8528 14.6298C40.7663 14.6633 40.6799 14.6801 40.5935 14.6801H36.3932C36.2204 14.6801 36.0475 14.6214 35.9179 14.504C35.7797 14.395 35.6932 14.2357 35.6673 14.0596V13.7244L35.5117 13.7998C34.0944 14.4705 32.6424 14.8142 31.1905 14.8142L31.1992 14.8059ZM33.5585 8.96229C32.9794 8.96229 32.4868 9.07971 32.0893 9.31443C31.6745 9.55757 31.467 9.90129 31.467 10.3289C31.467 10.7564 31.6745 11.0918 32.0807 11.3181C32.4695 11.5361 32.9708 11.6451 33.5585 11.6451C34.2154 11.6451 34.8635 11.5278 35.4771 11.3014L35.5463 11.2762V9.44857L35.4858 9.42343C34.8895 9.13 34.224 8.97907 33.5585 8.97071V8.96229Z" fill="#0E0E0C"/>
<path d="M43.1516 14.6424C43.0652 14.6424 42.9788 14.6256 42.901 14.5921C42.8232 14.5586 42.7455 14.5083 42.685 14.4496C42.6158 14.3909 42.564 14.3239 42.5294 14.24C42.4948 14.1562 42.4775 14.0724 42.4775 13.9885V0.817514C42.4775 0.733671 42.4948 0.649836 42.5294 0.574381C42.564 0.498926 42.6158 0.423472 42.6763 0.364786C42.7368 0.297715 42.8059 0.247413 42.8924 0.213878C42.9701 0.180342 43.0652 0.163574 43.1516 0.163574H47.7321C47.8186 0.163574 47.905 0.188726 47.9828 0.222261C48.0605 0.255796 48.1297 0.306099 48.1902 0.364786C48.2593 0.423472 48.3112 0.490544 48.3458 0.565998C48.3803 0.641453 48.4062 0.725293 48.4062 0.809128V10.3499H51.1459L54.6979 10.2493C54.8708 10.2493 55.035 10.3248 55.156 10.4505C55.2251 10.5009 55.277 10.5679 55.3116 10.6434C55.3461 10.7188 55.3634 10.8026 55.372 10.8865V13.9885C55.372 14.0724 55.3461 14.1561 55.3116 14.2316C55.277 14.3071 55.2251 14.3741 55.1646 14.4329C55.1042 14.4999 55.035 14.5502 54.9573 14.5838C54.8794 14.6173 54.793 14.6424 54.7066 14.6424H43.1516Z" fill="#0E0E0C"/>
<path d="M63.8503 14.8521C61.465 14.8521 59.5204 14.2401 58.0599 13.0412C56.5993 11.8424 55.8733 10.2578 55.8733 8.3295V0.817598C55.8733 0.733756 55.8906 0.649919 55.9251 0.574465C55.9597 0.499011 56.0116 0.423556 56.0721 0.364869C56.1325 0.297798 56.2017 0.247497 56.2881 0.213961C56.3659 0.180426 56.461 0.163658 56.5474 0.163658H61.2143C61.3008 0.163658 61.3872 0.188809 61.465 0.222344C61.5427 0.25588 61.6119 0.306183 61.6724 0.364869C61.7415 0.423556 61.7934 0.490627 61.828 0.566082C61.8625 0.641536 61.8884 0.725377 61.8884 0.809213V8.33786C61.8884 8.99186 62.0613 9.51164 62.3983 9.88893C62.7354 10.2661 63.228 10.4674 63.8503 10.4674C64.4725 10.4674 64.9565 10.2746 65.3022 9.88893C65.6479 9.50321 65.8121 8.98343 65.8121 8.33786V0.809213C65.8121 0.725377 65.8294 0.641536 65.864 0.566082C65.8986 0.490627 65.9504 0.415173 66.0108 0.356486C66.0714 0.289416 66.1405 0.239112 66.227 0.205577C66.3133 0.172042 66.3998 0.155273 66.4862 0.155273H71.1531C71.2395 0.155273 71.326 0.180426 71.4038 0.213961C71.4815 0.247497 71.5507 0.297799 71.6111 0.356486C71.6803 0.415173 71.7322 0.482243 71.7667 0.557698C71.8013 0.633152 71.8272 0.716991 71.8272 0.800827V8.31271C71.8272 10.241 71.0926 11.8256 69.6407 13.0244C68.1888 14.2234 66.2443 14.8354 63.8589 14.8354L63.8503 14.8521Z" fill="#0E0E0C"/>
<path d="M84.0477 14.6425C83.84 14.6174 83.6412 14.5503 83.4682 14.4413C83.2959 14.3324 83.1398 14.1898 83.019 14.0305L80.9971 9.91407L78.9744 14.0305C78.8618 14.1982 78.7153 14.3491 78.5334 14.4497C78.3523 14.5587 78.1535 14.6174 77.9458 14.6425H72.8643C72.7692 14.6425 72.6828 14.6174 72.6049 14.5671C72.579 14.5503 72.5531 14.5168 72.5359 14.4832C72.5186 14.4497 72.5186 14.4161 72.5186 14.3826C72.5272 14.2988 72.5618 14.2317 72.6136 14.1646L77.5401 6.85395L72.847 0.608001C72.7519 0.482243 72.726 0.381637 72.7692 0.289416C72.7864 0.25588 72.8297 0.163658 73.0803 0.163658H78.1792C78.3869 0.172042 78.5857 0.239112 78.7668 0.348102C78.9575 0.448708 79.1217 0.599617 79.2336 0.775677L80.9883 3.98668L82.7422 0.775677C82.8637 0.599617 83.019 0.457091 83.2009 0.348102C83.3732 0.230728 83.5809 0.163658 83.7885 0.155273H88.8875C89.034 0.155273 89.1378 0.197193 89.1901 0.272648C89.2159 0.331335 89.2505 0.440324 89.129 0.599616L84.4365 6.84557L89.3624 14.1563C89.4147 14.2234 89.4405 14.3071 89.4493 14.391C89.4493 14.4665 89.4493 14.6258 89.1032 14.6258H84.0219L84.0477 14.6425Z" fill="#0E0E0C"/>
<path d="M97.9104 14.8521C95.5247 14.8521 93.5801 14.2401 92.12 13.0412C90.6591 11.8424 89.9331 10.2578 89.9331 8.3295V0.817598C89.9331 0.733756 89.95 0.649919 89.9846 0.574465C90.0193 0.499011 90.0715 0.423556 90.1319 0.364869C90.1923 0.297798 90.2615 0.247497 90.3477 0.213961C90.4345 0.180426 90.5207 0.163658 90.6068 0.163658H95.2744C95.3605 0.163658 95.4467 0.188809 95.5247 0.222344C95.6028 0.25588 95.672 0.306183 95.7323 0.364869C95.8016 0.423556 95.8531 0.490627 95.8877 0.566082C95.9223 0.641536 95.9481 0.725377 95.9481 0.809213V8.33786C95.9481 8.99186 96.1211 9.51164 96.4584 9.88893C96.7949 10.2661 97.2875 10.4674 97.9104 10.4674C98.5326 10.4674 99.0163 10.2746 99.3617 9.88893C99.7077 9.50321 99.8719 8.98343 99.8719 8.33786V0.809213C99.8719 0.725377 99.8889 0.641536 99.9235 0.566082C99.9581 0.490627 100.01 0.415173 100.071 0.356486C100.131 0.289416 100.2 0.239112 100.286 0.205577C100.373 0.172042 100.46 0.155273 100.546 0.155273H105.213C105.299 0.155273 105.385 0.180426 105.464 0.213961C105.542 0.247497 105.611 0.297799 105.671 0.356486C105.74 0.415173 105.792 0.482243 105.827 0.557698C105.861 0.633152 105.887 0.716991 105.887 0.800827V8.31271C105.887 10.241 105.152 11.8256 103.701 13.0244C102.249 14.2234 100.304 14.8354 97.9185 14.8354L97.9104 14.8521Z" fill="#0E0E0C"/>
<path d="M131.823 14.9645C130.82 14.9477 129.827 14.8136 128.859 14.5705C127.787 14.3106 126.897 13.992 126.214 13.6399C126.024 13.5476 125.868 13.4051 125.765 13.2206C125.661 13.0446 125.609 12.8434 125.617 12.6338V9.82521C125.617 9.75814 125.617 9.6995 125.652 9.64078C125.679 9.58207 125.721 9.53178 125.773 9.49828C125.816 9.46471 125.868 9.44793 125.92 9.44793C125.989 9.44793 126.058 9.47307 126.119 9.50664C127.934 10.4456 129.723 10.9235 131.442 10.9235C133.162 10.9235 133.024 10.7726 133.629 10.4708C134.251 10.1606 134.571 9.76657 134.571 9.31378V9.0455L134.433 9.08743C133.586 9.34735 132.713 9.47307 131.832 9.45635C129.758 9.45635 128.124 8.99521 126.957 8.073C125.79 7.15078 125.212 6.01897 125.212 4.66917V0.913218C125.212 0.829375 125.237 0.745539 125.272 0.670084C125.307 0.59463 125.358 0.527559 125.419 0.468873C125.48 0.401802 125.549 0.351499 125.626 0.317964C125.704 0.284429 125.79 0.259277 125.885 0.259277H130.449C130.621 0.259277 130.786 0.334732 130.907 0.452106C130.976 0.510792 131.028 0.577863 131.071 0.661701C131.106 0.745539 131.123 0.829375 131.123 0.913218V4.16614C131.123 4.38412 131.157 4.6021 131.244 4.79493C131.33 4.99614 131.469 5.1722 131.633 5.31473C131.97 5.59978 132.411 5.75068 132.955 5.75068C133.5 5.75068 133.992 5.70038 134.494 5.58301L134.571 5.56624V0.913218C134.571 0.829375 134.589 0.745539 134.623 0.670084C134.658 0.59463 134.709 0.519175 134.77 0.460489C134.83 0.393418 134.899 0.343116 134.986 0.309581C135.072 0.276045 135.159 0.259277 135.245 0.259277H139.826C139.912 0.259277 139.998 0.284429 140.076 0.317964C140.155 0.351499 140.224 0.401802 140.284 0.460489C140.353 0.519175 140.405 0.586247 140.439 0.661701C140.474 0.737154 140.5 0.820997 140.5 0.913218V9.80007C140.5 11.2086 139.644 12.4242 137.968 13.4219C136.274 14.4364 134.2 14.9394 131.814 14.9394L131.823 14.9645Z" fill="#0E0E0C"/>
<path d="M117.217 14.7546C117.01 14.7546 116.811 14.6876 116.638 14.5701C116.457 14.4696 116.301 14.3103 116.215 14.1259L114.158 9.72429H112.922V14.1006C112.922 14.1845 112.896 14.2684 112.861 14.3438C112.827 14.4193 112.775 14.4864 112.715 14.545C112.654 14.6121 112.585 14.6624 112.507 14.6959C112.429 14.7294 112.343 14.7546 112.257 14.7546H107.762C107.676 14.7546 107.589 14.7294 107.512 14.6959C107.434 14.6624 107.365 14.6121 107.304 14.5534C107.235 14.4947 107.184 14.4276 107.149 14.3522C107.114 14.2767 107.089 14.1929 107.089 14.1006V0.929679C107.089 0.845843 107.106 0.762007 107.14 0.68655C107.175 0.611096 107.226 0.535642 107.287 0.476954C107.348 0.409884 107.417 0.359581 107.503 0.326046C107.581 0.29251 107.676 0.275742 107.762 0.275742C108.583 0.275742 109.984 0.25059 111.92 0.208672C113.855 0.166752 115.541 0.141602 116.932 0.141602C119.032 0.141602 120.821 0.611095 122.23 1.55009C123.647 2.48069 124.347 3.63766 124.347 4.98745C124.347 6.33725 123.933 6.90735 123.12 7.70379C122.308 8.50029 121.227 9.08714 119.923 9.41414L119.767 9.456L123.872 14.3186C124.028 14.4864 123.984 14.5869 123.975 14.6121C123.967 14.6372 123.924 14.7379 123.673 14.7379H117.234L117.217 14.7546ZM116.984 4.24129L112.914 4.40059V6.11927L116.993 6.24503H117.044C117.727 6.24503 118.28 5.7923 118.28 5.23897C118.28 4.68564 117.727 4.23291 117.044 4.23291H116.984V4.24129Z" fill="#0E0E0C"/>
<path d="M142.643 4.9456C142.159 4.47611 141.857 3.85571 141.796 3.19338C141.727 2.53106 141.9 1.86873 142.28 1.31541C142.661 0.76207 143.231 0.359648 143.879 0.16682C144.536 -0.0260082 145.236 0.00752759 145.867 0.259043C146.498 0.510557 147.025 0.97167 147.345 1.55853C147.664 2.14541 147.768 2.81611 147.638 3.47005C147.509 4.12398 147.146 4.71086 146.61 5.13004C146.074 5.54923 145.418 5.78398 144.735 5.78398C144.346 5.78398 143.957 5.71691 143.594 5.57439C143.231 5.43186 142.911 5.21388 142.634 4.9456H142.643ZM142.92 1.14773C142.497 1.55853 142.237 2.0951 142.176 2.6652C142.116 3.24368 142.263 3.82217 142.6 4.30005C142.928 4.77793 143.421 5.13843 143.991 5.30611C144.562 5.47378 145.175 5.44863 145.728 5.22227C146.282 4.99591 146.731 4.60186 147.016 4.09045C147.293 3.57903 147.388 2.99217 147.275 2.42207C147.163 1.85197 146.843 1.34056 146.385 0.980055C145.927 0.619548 145.348 0.409951 144.752 0.409951C144.415 0.409951 144.078 0.468638 143.767 0.594395C143.455 0.720155 143.17 0.904598 142.937 1.13934L142.92 1.14773Z" fill="#0E0E0C"/>
<path d="M146.281 2.84131C146.343 2.78262 146.394 2.71555 146.429 2.63171C146.463 2.55626 146.48 2.47242 146.48 2.38858C146.48 2.1706 146.36 1.97778 146.117 1.81848C145.824 1.63404 145.478 1.54181 145.124 1.55858C144.847 1.55858 144.51 1.55858 144.121 1.56697C143.767 1.56697 143.508 1.57535 143.344 1.57535C143.326 1.57535 143.318 1.57535 143.3 1.59212C143.291 1.6005 143.283 1.61727 143.283 1.63403V4.15757C143.283 4.17433 143.283 4.18272 143.3 4.19111C143.309 4.19949 143.326 4.20787 143.344 4.20787H144.121C144.139 4.20787 144.147 4.20787 144.165 4.19111C144.182 4.17433 144.182 4.16596 144.182 4.14918V3.19343H144.666L145.124 4.15757C145.124 4.17433 145.132 4.18272 145.141 4.19111C145.159 4.19949 145.167 4.20787 145.184 4.20787H146.17C146.178 4.20787 146.187 4.20787 146.195 4.19949C146.195 4.19949 146.213 4.19111 146.213 4.18272V4.15757C146.213 4.14918 146.213 4.1408 146.204 4.13242L145.426 3.2102L145.677 3.15151C145.902 3.10121 146.1 3.0006 146.265 2.84131H146.281ZM145.046 2.67363L144.182 2.6401V2.23768L145.046 2.19576C145.115 2.19576 145.176 2.22091 145.219 2.26283C145.262 2.30474 145.288 2.36343 145.288 2.4305C145.288 2.49757 145.262 2.55626 145.219 2.59818C145.176 2.6401 145.115 2.66525 145.046 2.66525V2.67363Z" fill="#0E0E0C"/>
</g>
<defs>
<clipPath id="clip0_4996_1755">
<rect width="148" height="15" fill="white"/>
</clipPath>
</defs>
</svg>
