<?xml version="1.0" encoding="utf-8"?>
<!-- Generator: Adobe Illustrator 27.4.0, SVG Export Plug-In . SVG Version: 6.00 Build 0)  -->
<svg version="1.1" id="Layer_1" xmlns="http://www.w3.org/2000/svg" xmlns:xlink="http://www.w3.org/1999/xlink" x="0px" y="0px"
	 viewBox="0 0 93.1 18.1" style="enable-background:new 0 0 93.1 18.1;" xml:space="preserve">
<style type="text/css">
	.st0{fill:#1A1E1E;}
	.st1{fill:#FFFDEB;}
</style>
<rect y="0" class="st0" width="98.1" height="18.1"/>
<g>
	<path class="st1" d="M6.6,6.2c0-0.2,0.1-0.3,0.3-0.3c1.1,0,2.7-0.1,4.2-0.1c1.7,0,2.8,0.7,2.8,1.7c0,0.6-0.3,1.1-0.8,1.4
		c0.5,0.4,0.9,0.9,0.9,1.6c0,1.1-1.2,1.9-2.9,1.9c-1.6,0-3-0.1-4.2-0.1c-0.1,0-0.3-0.1-0.3-0.3C6.6,12,6.6,6.2,6.6,6.2z M11,8.2
		c0.2,0,0.4-0.1,0.4-0.3S11.2,7.5,11,7.5c-0.6,0-1.6,0-1.8,0v0.6H11V8.2z M11,10.5c0.2,0,0.4-0.2,0.4-0.4S11.2,9.8,11,9.8H9.1v0.7
		C9.3,10.5,10.3,10.5,11,10.5z"/>
	<path class="st1" d="M14.3,6.2c0-0.1,0.1-0.3,0.3-0.3h2C16.8,5.8,17,6,17,6.2V7c0,0.1-0.1,0.3-0.3,0.3h-2c-0.2,0-0.3-0.1-0.3-0.3
		V6.2H14.3z M14.3,8.1c0-0.2,0.1-0.3,0.3-0.3h2c0.2,0,0.3,0.1,0.3,0.3V12c0,0.2-0.1,0.3-0.3,0.3h-2c-0.2,0-0.3-0.1-0.3-0.3V8.1z"/>
	<path class="st1" d="M17.4,6.2c0-0.2,0.1-0.3,0.3-0.3c1.1,0,2.7-0.1,4.2-0.1c1.7,0,2.8,0.7,2.8,1.7c0,0.6-0.3,1.1-0.8,1.4
		c0.5,0.4,0.9,0.9,0.9,1.6c0,1.1-1.2,1.9-2.9,1.9c-1.6,0-3-0.1-4.2-0.1c-0.1,0-0.3-0.1-0.3-0.3C17.4,12,17.4,6.2,17.4,6.2z
		 M21.8,8.2c0.2,0,0.4-0.1,0.4-0.3S22,7.5,21.8,7.5c-0.6,0-1.6,0-1.8,0v0.6h1.8V8.2z M21.8,10.5c0.2,0,0.4-0.2,0.4-0.4
		S22,9.8,21.8,9.8h-1.9v0.7C20.1,10.5,21.1,10.5,21.8,10.5z"/>
	<path class="st1" d="M32.6,5.7c1.5,0,2.7,0.3,2.9,0.3c0.2,0.1,0.3,0.2,0.3,0.4v1.3c0,0.1-0.1,0.3-0.3,0.2c-0.2-0.1-1.2-0.3-2.3-0.3
		c-1.2,0-2,0.3-2,1.4c0,0.8,0.5,1.3,1.6,1.3c0.4,0,0.8,0,1.3-0.1V9.9h-0.9c-0.1,0-0.3-0.1-0.3-0.3V8.8c0-0.1,0.1-0.3,0.3-0.3h2.6
		c0.2,0,0.3,0.1,0.3,0.3V11c0,0.2-0.1,0.4-0.3,0.5c-0.9,0.6-1.6,0.8-3,0.8c-2.6,0-4.2-1.4-4.2-3.3C28.5,7.1,30,5.7,32.6,5.7z"/>
	<path class="st1" d="M40.2,5.7c2.4,0,4,1.4,4,3.3s-1.6,3.3-4,3.3s-4-1.4-4-3.3S37.9,5.7,40.2,5.7z M40.2,10.4
		c0.7,0,1.2-0.5,1.2-1.3s-0.5-1.4-1.2-1.4S39,8.2,39,9.1C39,9.9,39.5,10.4,40.2,10.4z"/>
	<path class="st1" d="M44.5,6.2c0-0.2,0.1-0.3,0.3-0.3h2c0.2,0,0.3,0.1,0.3,0.3v3.3c0,0.5,0.3,0.9,0.8,0.9s0.8-0.4,0.8-0.9V6.2
		c0-0.2,0.1-0.3,0.3-0.3h2c0.2,0,0.3,0.1,0.3,0.3v3.3c0,1.7-1.4,2.9-3.5,2.9s-3.5-1.2-3.5-2.9V6.2H44.5z"/>
	<path class="st1" d="M51.8,6.2c0-0.2,0.1-0.3,0.3-0.3c1.2,0,2.3-0.1,3.9-0.1c1.8,0,3.2,1,3.2,2.2c0,0.9-0.8,1.7-1.9,2l1.7,2
		c0.1,0.1,0.1,0.3-0.1,0.3h-2.8c-0.2,0-0.4-0.1-0.5-0.3l-0.9-1.9h-0.4V12c0,0.2-0.1,0.3-0.3,0.3h-1.9c-0.2,0-0.3-0.1-0.3-0.3V6.2z
		 M56.2,8.4c0.2,0,0.3-0.1,0.3-0.3s-0.2-0.3-0.4-0.3c-0.6,0-1.7,0-1.8,0v0.5C54.5,8.3,55.6,8.4,56.2,8.4z"/>
	<path class="st1" d="M59.6,6.2c0-0.2,0.1-0.3,0.3-0.3h1.4c0.2,0,0.4,0.1,0.4,0.3l0.1,0.1c0.6-0.3,1.1-0.4,1.8-0.4
		c0.6,0,1.2,0.2,1.6,0.6c0.6-0.4,1.3-0.6,2.1-0.6c1.8,0,2.3,1.1,2.3,2.3V12c0,0.2-0.1,0.3-0.3,0.3h-2c-0.2,0-0.3-0.1-0.3-0.3V8.2
		c0-0.2-0.1-0.3-0.3-0.3c-0.2,0-0.4,0.1-0.7,0.2V12c0,0.2-0.1,0.3-0.3,0.3h-2c-0.2,0-0.3-0.1-0.3-0.3V8.2c0-0.2-0.1-0.3-0.3-0.3
		S62.7,8,62.4,8.1V12c0,0.2-0.1,0.3-0.3,0.3h-2c-0.2,0-0.3-0.1-0.3-0.3V6.2H59.6z"/>
	<path class="st1" d="M72.4,8.2c0.6,0,1.1,0,1.7,0.4V8.3c0-0.4-0.6-0.7-1.4-0.7c-0.7,0-1.3,0.2-2,0.5c-0.1,0.1-0.3,0-0.3-0.2V6.7
		c0-0.2,0.1-0.4,0.3-0.5c0.8-0.4,1.5-0.5,2.4-0.5c1.9,0,3.5,1.1,3.5,2.3v4c0,0.2-0.1,0.3-0.3,0.3h-1.8c-0.2,0-0.3-0.1-0.3-0.3v-0.1
		c-0.6,0.3-1.3,0.4-1.9,0.4c-1.3,0-2.5-0.6-2.5-2C69.8,9.2,71,8.2,72.4,8.2z M73.2,10.9c0.3,0,0.6-0.1,0.8-0.2V10
		c-0.2-0.1-0.5-0.2-0.8-0.2c-0.5,0-0.9,0.2-0.9,0.6S72.8,10.9,73.2,10.9z"/>
	<path class="st1" d="M76.9,6.2c0-0.2,0.1-0.3,0.3-0.3h1.9c0.2,0,0.3,0.1,0.4,0.3v0.1c0.6-0.3,1.1-0.5,1.9-0.5
		c1.9,0,2.8,1.1,2.8,2.3V12c0,0.2-0.1,0.3-0.3,0.3h-2c-0.2,0-0.3-0.1-0.3-0.3V8.4c0-0.3-0.2-0.7-0.7-0.7S80,7.8,79.7,8v4
		c0,0.2-0.1,0.3-0.3,0.3h-2c-0.2,0-0.3-0.1-0.3-0.3V6.2H76.9z"/>
	<path class="st1" d="M84.6,6.2c0-0.2,0.1-0.3,0.3-0.3c0.8,0,1.8-0.1,3.1-0.1c2.4,0,4.1,1.5,4.1,3.3s-1.8,3.3-4.1,3.3
		c-1.2,0-2.3-0.1-3.1-0.1c-0.1,0-0.3-0.1-0.3-0.3V6.2z M88,10.3c0.9,0,1.5-0.6,1.5-1.3S88.9,7.8,88,7.8h-0.8v2.5H88z"/>
</g>
</svg>
