<svg xmlns="http://www.w3.org/2000/svg" xmlns:xlink="http://www.w3.org/1999/xlink" width="200" zoomAndPan="magnify" viewBox="0 0 150 30.000001" height="40" preserveAspectRatio="xMidYMid meet" version="1.2"><defs><clipPath id="cb2733b6de"><path d="M 2.417969 0 L 147.578125 0 L 147.578125 29.03125 L 2.417969 29.03125 Z M 2.417969 0 "/></clipPath></defs><g id="c88dcb444f"><g clip-rule="nonzero" clip-path="url(#cb2733b6de)"><path style=" stroke:none;fill-rule:nonzero;fill:#ffffff;fill-opacity:1;" d="M 2.417969 0 L 147.582031 0 L 147.582031 29.03125 L 2.417969 29.03125 Z M 2.417969 0 "/><path style=" stroke:none;fill-rule:nonzero;fill:#000000;fill-opacity:1;" d="M 2.417969 0 L 147.582031 0 L 147.582031 29.03125 L 2.417969 29.03125 Z M 2.417969 0 "/></g><g style="fill:#ffffff;fill-opacity:1;"><g transform="translate(13.090975, 20.510806)"><path style="stroke:none" d="M 0.484375 -0.71875 L 0.484375 -13.203125 C 0.484375 -13.390625 0.550781 -13.554688 0.6875 -13.703125 C 0.820312 -13.847656 0.988281 -13.921875 1.1875 -13.921875 L 13.484375 -13.921875 C 13.671875 -13.921875 13.835938 -13.847656 13.984375 -13.703125 C 14.128906 -13.566406 14.203125 -13.398438 14.203125 -13.203125 L 14.203125 -10.484375 C 14.203125 -10.328125 14.128906 -10.164062 13.984375 -10 C 13.847656 -9.84375 13.679688 -9.765625 13.484375 -9.765625 L 6.125 -9.765625 L 6.125 -8.609375 L 12.296875 -8.609375 C 12.460938 -8.609375 12.625 -8.535156 12.78125 -8.390625 C 12.9375 -8.253906 13.015625 -8.085938 13.015625 -7.890625 L 13.015625 -6.03125 C 13.015625 -5.882812 12.941406 -5.726562 12.796875 -5.5625 C 12.660156 -5.394531 12.492188 -5.3125 12.296875 -5.3125 L 6.125 -5.3125 L 6.125 -4.15625 L 13.484375 -4.15625 C 13.671875 -4.15625 13.835938 -4.082031 13.984375 -3.9375 C 14.128906 -3.800781 14.203125 -3.632812 14.203125 -3.4375 L 14.203125 -0.71875 C 14.203125 -0.5625 14.128906 -0.398438 13.984375 -0.234375 C 13.847656 -0.078125 13.679688 0 13.484375 0 L 1.1875 0 C 1.007812 0 0.847656 -0.0664062 0.703125 -0.203125 C 0.554688 -0.347656 0.484375 -0.519531 0.484375 -0.71875 Z M 0.484375 -0.71875 "/></g></g><g style="fill:#ffffff;fill-opacity:1;"><g transform="translate(27.583758, 20.510806)"><path style="stroke:none" d="M 0.515625 -0.59375 L 5.015625 -7.484375 L 0.734375 -13.34375 C 0.628906 -13.488281 0.601562 -13.617188 0.65625 -13.734375 C 0.707031 -13.859375 0.832031 -13.921875 1.03125 -13.921875 L 5.734375 -13.921875 C 5.898438 -13.921875 6.09375 -13.859375 6.3125 -13.734375 C 6.53125 -13.609375 6.6875 -13.457031 6.78125 -13.28125 L 8.3125 -10.40625 L 9.84375 -13.28125 C 9.925781 -13.425781 10.070312 -13.566406 10.28125 -13.703125 C 10.5 -13.847656 10.707031 -13.921875 10.90625 -13.921875 L 15.59375 -13.921875 C 15.769531 -13.921875 15.894531 -13.863281 15.96875 -13.75 C 16.039062 -13.632812 16.015625 -13.5 15.890625 -13.34375 L 11.609375 -7.484375 L 16.109375 -0.59375 C 16.171875 -0.5 16.203125 -0.40625 16.203125 -0.3125 C 16.203125 -0.101562 16.066406 0 15.796875 0 L 11.125 0 C 10.945312 0 10.75 -0.0625 10.53125 -0.1875 C 10.320312 -0.3125 10.171875 -0.460938 10.078125 -0.640625 L 8.3125 -4.359375 L 6.546875 -0.640625 C 6.460938 -0.492188 6.316406 -0.347656 6.109375 -0.203125 C 5.910156 -0.0664062 5.710938 0 5.515625 0 L 0.828125 0 C 0.554688 0 0.421875 -0.113281 0.421875 -0.34375 C 0.421875 -0.414062 0.453125 -0.5 0.515625 -0.59375 Z M 0.515625 -0.59375 "/></g></g><g style="fill:#ffffff;fill-opacity:1;"><g transform="translate(42.254803, 20.510806)"><path style="stroke:none" d="M 0.234375 -6.96875 C 0.234375 -8.394531 0.601562 -9.644531 1.34375 -10.71875 C 2.09375 -11.789062 3.144531 -12.625 4.5 -13.21875 C 5.851562 -13.820312 7.445312 -14.125 9.28125 -14.125 C 9.9375 -14.125 10.59375 -14.078125 11.25 -13.984375 C 11.90625 -13.890625 12.5 -13.757812 13.03125 -13.59375 C 13.570312 -13.425781 13.988281 -13.25 14.28125 -13.0625 C 14.675781 -12.800781 14.875 -12.453125 14.875 -12.015625 L 14.875 -8.90625 C 14.875 -8.75 14.820312 -8.632812 14.71875 -8.5625 C 14.625 -8.488281 14.5 -8.503906 14.34375 -8.609375 C 13.832031 -8.972656 13.160156 -9.273438 12.328125 -9.515625 C 11.503906 -9.765625 10.601562 -9.890625 9.625 -9.890625 C 8.9375 -9.890625 8.3125 -9.78125 7.75 -9.5625 C 7.1875 -9.351562 6.734375 -9.03125 6.390625 -8.59375 C 6.054688 -8.164062 5.890625 -7.625 5.890625 -6.96875 C 5.890625 -6.300781 6.054688 -5.75 6.390625 -5.3125 C 6.734375 -4.882812 7.1875 -4.5625 7.75 -4.34375 C 8.3125 -4.132812 8.9375 -4.03125 9.625 -4.03125 C 10.601562 -4.03125 11.515625 -4.15625 12.359375 -4.40625 C 13.203125 -4.65625 13.863281 -4.960938 14.34375 -5.328125 C 14.4375 -5.398438 14.546875 -5.414062 14.671875 -5.375 C 14.804688 -5.332031 14.875 -5.210938 14.875 -5.015625 L 14.875 -1.90625 C 14.875 -1.425781 14.675781 -1.066406 14.28125 -0.828125 C 14 -0.660156 13.601562 -0.492188 13.09375 -0.328125 C 12.582031 -0.171875 12.007812 -0.046875 11.375 0.046875 C 10.738281 0.148438 10.078125 0.203125 9.390625 0.203125 C 7.535156 0.203125 5.921875 -0.09375 4.546875 -0.6875 C 3.171875 -1.289062 2.109375 -2.128906 1.359375 -3.203125 C 0.609375 -4.273438 0.234375 -5.53125 0.234375 -6.96875 Z M 0.234375 -6.96875 "/></g></g><g style="fill:#ffffff;fill-opacity:1;"><g transform="translate(57.483161, 20.510806)"><path style="stroke:none" d="M 0.484375 -0.71875 L 0.484375 -13.203125 C 0.484375 -13.390625 0.550781 -13.554688 0.6875 -13.703125 C 0.820312 -13.847656 0.988281 -13.921875 1.1875 -13.921875 L 5.40625 -13.921875 C 5.582031 -13.921875 5.742188 -13.847656 5.890625 -13.703125 C 6.046875 -13.566406 6.125 -13.398438 6.125 -13.203125 L 6.125 -4.25 L 8.546875 -4.25 L 11.8125 -4.359375 C 11.96875 -4.359375 12.125 -4.289062 12.28125 -4.15625 C 12.445312 -4.019531 12.53125 -3.851562 12.53125 -3.65625 L 12.53125 -0.71875 C 12.53125 -0.5625 12.457031 -0.398438 12.3125 -0.234375 C 12.175781 -0.078125 12.007812 0 11.8125 0 L 1.1875 0 C 1.007812 0 0.847656 -0.0664062 0.703125 -0.203125 C 0.554688 -0.347656 0.484375 -0.519531 0.484375 -0.71875 Z M 0.484375 -0.71875 "/></g></g><g style="fill:#ffffff;fill-opacity:1;"><g transform="translate(70.087281, 20.510806)"><path style="stroke:none" d="M 0.3125 -6.09375 L 0.3125 -13.203125 C 0.3125 -13.390625 0.378906 -13.554688 0.515625 -13.703125 C 0.660156 -13.847656 0.832031 -13.921875 1.03125 -13.921875 L 5.328125 -13.921875 C 5.503906 -13.921875 5.664062 -13.847656 5.8125 -13.703125 C 5.96875 -13.566406 6.046875 -13.398438 6.046875 -13.203125 L 6.046875 -6.0625 C 6.046875 -5.476562 6.191406 -5.007812 6.484375 -4.65625 C 6.785156 -4.3125 7.207031 -4.140625 7.75 -4.140625 C 8.300781 -4.140625 8.722656 -4.3125 9.015625 -4.65625 C 9.316406 -5.007812 9.46875 -5.476562 9.46875 -6.0625 L 9.46875 -13.203125 C 9.46875 -13.390625 9.535156 -13.554688 9.671875 -13.703125 C 9.816406 -13.847656 9.988281 -13.921875 10.1875 -13.921875 L 14.484375 -13.921875 C 14.648438 -13.921875 14.8125 -13.847656 14.96875 -13.703125 C 15.125 -13.566406 15.203125 -13.398438 15.203125 -13.203125 L 15.203125 -6.09375 C 15.203125 -4.84375 14.890625 -3.742188 14.265625 -2.796875 C 13.648438 -1.859375 12.785156 -1.125 11.671875 -0.59375 C 10.554688 -0.0625 9.25 0.203125 7.75 0.203125 C 6.257812 0.203125 4.957031 -0.0625 3.84375 -0.59375 C 2.726562 -1.125 1.859375 -1.859375 1.234375 -2.796875 C 0.617188 -3.742188 0.3125 -4.84375 0.3125 -6.09375 Z M 0.3125 -6.09375 "/></g></g><g style="fill:#ffffff;fill-opacity:1;"><g transform="translate(85.593962, 20.510806)"><path style="stroke:none" d="M 0.28125 -2.671875 L 0.28125 -6.140625 C 0.28125 -6.304688 0.328125 -6.425781 0.421875 -6.5 C 0.515625 -6.570312 0.632812 -6.535156 0.78125 -6.390625 C 1.457031 -5.765625 2.1875 -5.269531 2.96875 -4.90625 C 3.757812 -4.539062 4.566406 -4.273438 5.390625 -4.109375 C 6.222656 -3.941406 7.019531 -3.859375 7.78125 -3.859375 C 8.632812 -3.859375 9.273438 -3.890625 9.703125 -3.953125 C 10.128906 -4.023438 10.410156 -4.113281 10.546875 -4.21875 C 10.691406 -4.332031 10.765625 -4.453125 10.765625 -4.578125 C 10.765625 -4.828125 10.65625 -4.984375 10.4375 -5.046875 C 10.226562 -5.117188 9.925781 -5.15625 9.53125 -5.15625 C 9.300781 -5.15625 9.039062 -5.148438 8.75 -5.140625 C 8.46875 -5.128906 8.164062 -5.125 7.84375 -5.125 C 6.34375 -5.164062 5.046875 -5.398438 3.953125 -5.828125 C 2.859375 -6.253906 2.007812 -6.816406 1.40625 -7.515625 C 0.8125 -8.222656 0.515625 -9 0.515625 -9.84375 C 0.515625 -10.644531 0.710938 -11.316406 1.109375 -11.859375 C 1.503906 -12.410156 2.0625 -12.851562 2.78125 -13.1875 C 3.507812 -13.519531 4.351562 -13.757812 5.3125 -13.90625 C 6.28125 -14.0625 7.320312 -14.140625 8.4375 -14.140625 C 9.238281 -14.140625 10.046875 -14.09375 10.859375 -14 C 11.671875 -13.90625 12.410156 -13.769531 13.078125 -13.59375 C 13.742188 -13.425781 14.265625 -13.238281 14.640625 -13.03125 C 15.046875 -12.789062 15.25 -12.457031 15.25 -12.03125 L 15.25 -9.59375 C 15.25 -9.425781 15.1875 -9.289062 15.0625 -9.1875 C 14.945312 -9.09375 14.800781 -9.085938 14.625 -9.171875 C 13.863281 -9.554688 12.914062 -9.867188 11.78125 -10.109375 C 10.644531 -10.359375 9.476562 -10.484375 8.28125 -10.484375 C 7.96875 -10.484375 7.660156 -10.46875 7.359375 -10.4375 C 7.066406 -10.40625 6.820312 -10.335938 6.625 -10.234375 C 6.4375 -10.128906 6.34375 -9.976562 6.34375 -9.78125 C 6.34375 -9.582031 6.4375 -9.441406 6.625 -9.359375 C 6.820312 -9.285156 7.054688 -9.238281 7.328125 -9.21875 C 7.597656 -9.195312 7.847656 -9.1875 8.078125 -9.1875 C 8.648438 -9.1875 9.304688 -9.144531 10.046875 -9.0625 C 10.785156 -8.988281 11.53125 -8.851562 12.28125 -8.65625 C 13.039062 -8.46875 13.742188 -8.203125 14.390625 -7.859375 C 15.035156 -7.523438 15.550781 -7.09375 15.9375 -6.5625 C 16.332031 -6.039062 16.53125 -5.414062 16.53125 -4.6875 C 16.53125 -3.957031 16.296875 -3.289062 15.828125 -2.6875 C 15.367188 -2.09375 14.734375 -1.578125 13.921875 -1.140625 C 13.109375 -0.710938 12.171875 -0.378906 11.109375 -0.140625 C 10.054688 0.0859375 8.925781 0.203125 7.71875 0.203125 C 6.351562 0.203125 5.101562 0.015625 3.96875 -0.359375 C 2.832031 -0.734375 1.816406 -1.164062 0.921875 -1.65625 C 0.492188 -1.875 0.28125 -2.210938 0.28125 -2.671875 Z M 0.28125 -2.671875 "/></g></g><g style="fill:#ffffff;fill-opacity:1;"><g transform="translate(102.273589, 20.510806)"><path style="stroke:none" d="M 0.484375 -0.71875 L 0.484375 -13.203125 C 0.484375 -13.390625 0.550781 -13.554688 0.6875 -13.703125 C 0.820312 -13.847656 0.988281 -13.921875 1.1875 -13.921875 L 5.40625 -13.921875 C 5.582031 -13.921875 5.742188 -13.847656 5.890625 -13.703125 C 6.046875 -13.566406 6.125 -13.398438 6.125 -13.203125 L 6.125 -0.71875 C 6.125 -0.53125 6.050781 -0.363281 5.90625 -0.21875 C 5.769531 -0.0703125 5.601562 0 5.40625 0 L 1.1875 0 C 1.019531 0 0.859375 -0.0664062 0.703125 -0.203125 C 0.554688 -0.347656 0.484375 -0.519531 0.484375 -0.71875 Z M 0.484375 -0.71875 "/></g></g><g style="fill:#ffffff;fill-opacity:1;"><g transform="translate(108.87387, 20.510806)"><path style="stroke:none" d="M 0.484375 -0.71875 L 0.484375 -13.203125 C 0.484375 -13.390625 0.550781 -13.554688 0.6875 -13.703125 C 0.820312 -13.847656 0.988281 -13.921875 1.1875 -13.921875 L 13.484375 -13.921875 C 13.671875 -13.921875 13.835938 -13.847656 13.984375 -13.703125 C 14.128906 -13.566406 14.203125 -13.398438 14.203125 -13.203125 L 14.203125 -10.484375 C 14.203125 -10.328125 14.128906 -10.164062 13.984375 -10 C 13.847656 -9.84375 13.679688 -9.765625 13.484375 -9.765625 L 6.125 -9.765625 L 6.125 -8.609375 L 12.296875 -8.609375 C 12.460938 -8.609375 12.625 -8.535156 12.78125 -8.390625 C 12.9375 -8.253906 13.015625 -8.085938 13.015625 -7.890625 L 13.015625 -6.03125 C 13.015625 -5.882812 12.941406 -5.726562 12.796875 -5.5625 C 12.660156 -5.394531 12.492188 -5.3125 12.296875 -5.3125 L 6.125 -5.3125 L 6.125 -4.15625 L 13.484375 -4.15625 C 13.671875 -4.15625 13.835938 -4.082031 13.984375 -3.9375 C 14.128906 -3.800781 14.203125 -3.632812 14.203125 -3.4375 L 14.203125 -0.71875 C 14.203125 -0.5625 14.128906 -0.398438 13.984375 -0.234375 C 13.847656 -0.078125 13.679688 0 13.484375 0 L 1.1875 0 C 1.007812 0 0.847656 -0.0664062 0.703125 -0.203125 C 0.554688 -0.347656 0.484375 -0.519531 0.484375 -0.71875 Z M 0.484375 -0.71875 "/></g></g><g style="fill:#ffffff;fill-opacity:1;"><g transform="translate(123.366652, 20.510806)"><path style="stroke:none" d="M 0.484375 -0.71875 L 0.484375 -13.203125 C 0.484375 -13.390625 0.550781 -13.554688 0.6875 -13.703125 C 0.820312 -13.847656 0.988281 -13.921875 1.1875 -13.921875 L 12.625 -13.921875 C 12.8125 -13.921875 12.976562 -13.847656 13.125 -13.703125 C 13.269531 -13.566406 13.34375 -13.398438 13.34375 -13.203125 L 13.34375 -10.421875 C 13.34375 -10.265625 13.269531 -10.101562 13.125 -9.9375 C 12.988281 -9.78125 12.820312 -9.703125 12.625 -9.703125 L 6.125 -9.703125 L 6.125 -8.46875 L 11.828125 -8.46875 C 12.003906 -8.46875 12.164062 -8.398438 12.3125 -8.265625 C 12.46875 -8.128906 12.546875 -7.957031 12.546875 -7.75 L 12.546875 -4.96875 C 12.546875 -4.8125 12.476562 -4.648438 12.34375 -4.484375 C 12.207031 -4.328125 12.035156 -4.25 11.828125 -4.25 L 6.125 -4.25 L 6.125 -0.71875 C 6.125 -0.5625 6.050781 -0.398438 5.90625 -0.234375 C 5.769531 -0.078125 5.601562 0 5.40625 0 L 1.1875 0 C 1.019531 0 0.859375 -0.0664062 0.703125 -0.203125 C 0.554688 -0.347656 0.484375 -0.519531 0.484375 -0.71875 Z M 0.484375 -0.71875 "/></g></g></g></svg>