<svg xmlns="http://www.w3.org/2000/svg" xmlns:xlink="http://www.w3.org/1999/xlink" width="200" zoomAndPan="magnify" viewBox="0 0 150 30.000001" height="40" preserveAspectRatio="xMidYMid meet" version="1.0"><defs><g/><clipPath id="0b726a11c9"><path d="M 2.417969 0 L 147.578125 0 L 147.578125 29.03125 L 2.417969 29.03125 Z M 2.417969 0 " clip-rule="nonzero"/></clipPath></defs><g clip-path="url(#0b726a11c9)"><path fill="#ffffff" d="M 2.417969 0 L 147.582031 0 L 147.582031 29.03125 L 2.417969 29.03125 Z M 2.417969 0 " fill-opacity="1" fill-rule="nonzero"/><path fill="#000000" d="M 2.417969 0 L 147.582031 0 L 147.582031 29.03125 L 2.417969 29.03125 Z M 2.417969 0 " fill-opacity="1" fill-rule="nonzero"/></g><g fill="#ffffff" fill-opacity="1"><g transform="translate(3.700854, 20.448887)"><g><path d="M 0.203125 -5.765625 C 0.203125 -6.929688 0.476562 -7.957031 1.03125 -8.84375 C 1.59375 -9.738281 2.40625 -10.4375 3.46875 -10.9375 C 4.53125 -11.4375 5.820312 -11.6875 7.34375 -11.6875 C 8.21875 -11.6875 9.023438 -11.644531 9.765625 -11.5625 C 10.503906 -11.476562 11.113281 -11.382812 11.59375 -11.28125 C 12.070312 -11.1875 12.351562 -11.128906 12.4375 -11.109375 C 12.8125 -10.972656 13 -10.71875 13 -10.34375 L 13 -8.03125 C 13 -7.894531 12.941406 -7.773438 12.828125 -7.671875 C 12.722656 -7.578125 12.59375 -7.550781 12.4375 -7.59375 C 12.300781 -7.644531 12.023438 -7.71875 11.609375 -7.8125 C 11.203125 -7.914062 10.710938 -8.003906 10.140625 -8.078125 C 9.566406 -8.160156 8.972656 -8.203125 8.359375 -8.203125 C 7.671875 -8.203125 7.066406 -8.125 6.546875 -7.96875 C 6.023438 -7.820312 5.613281 -7.570312 5.3125 -7.21875 C 5.019531 -6.863281 4.875 -6.378906 4.875 -5.765625 C 4.875 -5.054688 5.101562 -4.476562 5.5625 -4.03125 C 6.03125 -3.582031 6.722656 -3.359375 7.640625 -3.359375 C 7.984375 -3.359375 8.347656 -3.367188 8.734375 -3.390625 C 9.117188 -3.410156 9.507812 -3.445312 9.90625 -3.5 L 9.90625 -4.234375 L 8.21875 -4.234375 C 8.101562 -4.234375 7.976562 -4.289062 7.84375 -4.40625 C 7.707031 -4.519531 7.640625 -4.660156 7.640625 -4.828125 L 7.640625 -6.28125 C 7.640625 -6.40625 7.695312 -6.535156 7.8125 -6.671875 C 7.925781 -6.804688 8.0625 -6.875 8.21875 -6.875 L 12.9375 -6.875 C 13.070312 -6.875 13.203125 -6.816406 13.328125 -6.703125 C 13.460938 -6.585938 13.53125 -6.445312 13.53125 -6.28125 L 13.53125 -2.234375 C 13.53125 -1.816406 13.363281 -1.507812 13.03125 -1.3125 C 12.476562 -0.976562 11.945312 -0.695312 11.4375 -0.46875 C 10.9375 -0.25 10.382812 -0.0859375 9.78125 0.015625 C 9.1875 0.117188 8.472656 0.171875 7.640625 0.171875 C 6.117188 0.171875 4.800781 -0.078125 3.6875 -0.578125 C 2.582031 -1.078125 1.722656 -1.769531 1.109375 -2.65625 C 0.503906 -3.550781 0.203125 -4.585938 0.203125 -5.765625 Z M 0.203125 -5.765625 "/></g></g></g><g fill="#ffffff" fill-opacity="1"><g transform="translate(17.020437, 20.448887)"><g><path d="M 0.265625 -0.546875 L 4.578125 -10.96875 C 4.640625 -11.113281 4.75 -11.238281 4.90625 -11.34375 C 5.070312 -11.457031 5.234375 -11.515625 5.390625 -11.515625 L 9.34375 -11.515625 C 9.488281 -11.515625 9.644531 -11.457031 9.8125 -11.34375 C 9.976562 -11.238281 10.09375 -11.113281 10.15625 -10.96875 L 14.359375 -0.546875 C 14.378906 -0.484375 14.390625 -0.421875 14.390625 -0.359375 C 14.390625 -0.265625 14.351562 -0.179688 14.28125 -0.109375 C 14.21875 -0.0351562 14.117188 0 13.984375 0 L 10.578125 0 C 10.429688 0 10.273438 -0.0507812 10.109375 -0.15625 C 9.953125 -0.269531 9.847656 -0.40625 9.796875 -0.5625 L 9.28125 -2.046875 L 5.25 -2.046875 L 4.71875 -0.5625 C 4.675781 -0.445312 4.570312 -0.320312 4.40625 -0.1875 C 4.25 -0.0625 4.09375 0 3.9375 0 L 0.625 0 C 0.507812 0 0.410156 -0.0351562 0.328125 -0.109375 C 0.253906 -0.179688 0.21875 -0.265625 0.21875 -0.359375 C 0.21875 -0.421875 0.234375 -0.484375 0.265625 -0.546875 Z M 6.21875 -4.765625 L 8.359375 -4.765625 L 7.3125 -7.828125 Z M 6.21875 -4.765625 "/></g></g></g><g fill="#ffffff" fill-opacity="1"><g transform="translate(30.833286, 20.448887)"><g><path d="M 0.265625 -5.03125 L 0.265625 -10.921875 C 0.265625 -11.078125 0.320312 -11.210938 0.4375 -11.328125 C 0.550781 -11.453125 0.691406 -11.515625 0.859375 -11.515625 L 4.40625 -11.515625 C 4.550781 -11.515625 4.6875 -11.457031 4.8125 -11.34375 C 4.9375 -11.226562 5 -11.085938 5 -10.921875 L 5 -5.015625 C 5 -4.535156 5.117188 -4.148438 5.359375 -3.859375 C 5.609375 -3.566406 5.960938 -3.421875 6.421875 -3.421875 C 6.867188 -3.421875 7.210938 -3.566406 7.453125 -3.859375 C 7.703125 -4.148438 7.828125 -4.535156 7.828125 -5.015625 L 7.828125 -10.921875 C 7.828125 -11.078125 7.882812 -11.210938 8 -11.328125 C 8.113281 -11.453125 8.253906 -11.515625 8.421875 -11.515625 L 11.984375 -11.515625 C 12.117188 -11.515625 12.25 -11.457031 12.375 -11.34375 C 12.5 -11.226562 12.5625 -11.085938 12.5625 -10.921875 L 12.5625 -5.03125 C 12.5625 -4 12.304688 -3.09375 11.796875 -2.3125 C 11.296875 -1.539062 10.582031 -0.929688 9.65625 -0.484375 C 8.738281 -0.046875 7.660156 0.171875 6.421875 0.171875 C 5.179688 0.171875 4.097656 -0.046875 3.171875 -0.484375 C 2.253906 -0.929688 1.539062 -1.539062 1.03125 -2.3125 C 0.519531 -3.09375 0.265625 -4 0.265625 -5.03125 Z M 0.265625 -5.03125 "/></g></g></g><g fill="#ffffff" fill-opacity="1"><g transform="translate(43.659624, 20.448887)"><g><path d="M 0.390625 -0.59375 L 0.390625 -10.921875 C 0.390625 -11.078125 0.445312 -11.210938 0.5625 -11.328125 C 0.675781 -11.453125 0.816406 -11.515625 0.984375 -11.515625 L 4.46875 -11.515625 C 4.613281 -11.515625 4.75 -11.457031 4.875 -11.34375 C 5 -11.226562 5.0625 -11.085938 5.0625 -10.921875 L 5.0625 -3.515625 L 7.078125 -3.515625 L 9.765625 -3.609375 C 9.898438 -3.609375 10.03125 -3.550781 10.15625 -3.4375 C 10.289062 -3.332031 10.359375 -3.195312 10.359375 -3.03125 L 10.359375 -0.59375 C 10.359375 -0.457031 10.300781 -0.320312 10.1875 -0.1875 C 10.070312 -0.0625 9.929688 0 9.765625 0 L 0.984375 0 C 0.828125 0 0.6875 -0.0546875 0.5625 -0.171875 C 0.445312 -0.285156 0.390625 -0.425781 0.390625 -0.59375 Z M 0.390625 -0.59375 "/></g></g></g><g fill="#ffffff" fill-opacity="1"><g transform="translate(52.177295, 20.448887)"><g><path d="M 0.171875 -8.734375 L 0.171875 -10.921875 C 0.171875 -11.054688 0.226562 -11.1875 0.34375 -11.3125 C 0.457031 -11.445312 0.59375 -11.515625 0.75 -11.515625 L 11.421875 -11.515625 C 11.578125 -11.515625 11.710938 -11.457031 11.828125 -11.34375 C 11.953125 -11.226562 12.015625 -11.085938 12.015625 -10.921875 L 12.015625 -8.734375 C 12.015625 -8.609375 11.957031 -8.476562 11.84375 -8.34375 C 11.726562 -8.207031 11.585938 -8.140625 11.421875 -8.140625 L 8.515625 -8.140625 L 8.515625 -0.59375 C 8.515625 -0.4375 8.457031 -0.296875 8.34375 -0.171875 C 8.226562 -0.0546875 8.09375 0 7.9375 0 L 4.25 0 C 4.101562 0 3.96875 -0.0546875 3.84375 -0.171875 C 3.71875 -0.285156 3.65625 -0.425781 3.65625 -0.59375 L 3.65625 -8.140625 L 0.75 -8.140625 C 0.625 -8.140625 0.492188 -8.195312 0.359375 -8.3125 C 0.234375 -8.425781 0.171875 -8.566406 0.171875 -8.734375 Z M 0.171875 -8.734375 "/></g></g></g><g fill="#ffffff" fill-opacity="1"><g transform="translate(64.016935, 20.448887)"><g><path d="M 0.203125 -3.734375 C 0.203125 -4.148438 0.320312 -4.582031 0.5625 -5.03125 C 0.8125 -5.488281 1.171875 -5.867188 1.640625 -6.171875 C 1.503906 -6.253906 1.347656 -6.378906 1.171875 -6.546875 C 0.992188 -6.722656 0.84375 -6.953125 0.71875 -7.234375 C 0.601562 -7.515625 0.546875 -7.851562 0.546875 -8.25 C 0.546875 -8.757812 0.75 -9.21875 1.15625 -9.625 C 1.5625 -10.039062 2.113281 -10.367188 2.8125 -10.609375 C 3.507812 -10.847656 4.3125 -10.96875 5.21875 -10.96875 C 5.914062 -10.96875 6.578125 -10.898438 7.203125 -10.765625 C 7.835938 -10.628906 8.457031 -10.425781 9.0625 -10.15625 L 10.296875 -10.578125 C 10.410156 -10.617188 10.53125 -10.601562 10.65625 -10.53125 C 10.789062 -10.46875 10.859375 -10.351562 10.859375 -10.1875 L 10.859375 -7.3125 L 12.53125 -7.3125 C 12.65625 -7.3125 12.769531 -7.253906 12.875 -7.140625 C 12.988281 -7.023438 13.023438 -6.890625 12.984375 -6.734375 L 12.625 -5.21875 C 12.570312 -5.039062 12.476562 -4.898438 12.34375 -4.796875 C 12.207031 -4.691406 12.050781 -4.640625 11.875 -4.640625 L 10.859375 -4.640625 L 10.859375 -4.609375 C 10.859375 -4.335938 10.976562 -4.09375 11.21875 -3.875 C 11.457031 -3.65625 11.78125 -3.546875 12.1875 -3.546875 C 12.351562 -3.546875 12.507812 -3.550781 12.65625 -3.5625 C 12.832031 -3.59375 12.957031 -3.5625 13.03125 -3.46875 C 13.101562 -3.382812 13.140625 -3.28125 13.140625 -3.15625 L 13.140625 -1.265625 C 13.140625 -1.085938 13.082031 -0.929688 12.96875 -0.796875 C 12.863281 -0.671875 12.726562 -0.597656 12.5625 -0.578125 C 12.34375 -0.554688 12.132812 -0.546875 11.9375 -0.546875 C 11.226562 -0.546875 10.582031 -0.644531 10 -0.84375 C 9.425781 -1.039062 8.941406 -1.304688 8.546875 -1.640625 C 7.960938 -1.242188 7.34375 -0.960938 6.6875 -0.796875 C 6.03125 -0.628906 5.394531 -0.546875 4.78125 -0.546875 C 4.269531 -0.546875 3.742188 -0.613281 3.203125 -0.75 C 2.671875 -0.882812 2.175781 -1.082031 1.71875 -1.34375 C 1.257812 -1.613281 0.890625 -1.945312 0.609375 -2.34375 C 0.335938 -2.738281 0.203125 -3.203125 0.203125 -3.734375 Z M 4.078125 -7.6875 C 4.078125 -7.570312 4.125 -7.476562 4.21875 -7.40625 C 4.3125 -7.34375 4.425781 -7.3125 4.5625 -7.3125 L 7.421875 -7.3125 L 7.421875 -8 C 7.066406 -8.082031 6.691406 -8.148438 6.296875 -8.203125 C 5.910156 -8.265625 5.5625 -8.296875 5.25 -8.296875 C 4.90625 -8.296875 4.625 -8.25 4.40625 -8.15625 C 4.1875 -8.0625 4.078125 -7.90625 4.078125 -7.6875 Z M 3.75 -4.265625 C 3.75 -4.078125 3.859375 -3.90625 4.078125 -3.75 C 4.304688 -3.601562 4.628906 -3.53125 5.046875 -3.53125 C 5.359375 -3.53125 5.710938 -3.578125 6.109375 -3.671875 C 6.515625 -3.773438 6.953125 -3.9375 7.421875 -4.15625 L 7.421875 -4.640625 L 4.515625 -4.640625 C 4.304688 -4.640625 4.125 -4.601562 3.96875 -4.53125 C 3.820312 -4.457031 3.75 -4.367188 3.75 -4.265625 Z M 3.75 -4.265625 "/></g></g></g><g fill="#ffffff" fill-opacity="1"><g transform="translate(77.32015, 20.448887)"><g><path d="M 0.390625 -0.59375 L 0.390625 -10.921875 C 0.390625 -11.078125 0.445312 -11.210938 0.5625 -11.328125 C 0.675781 -11.453125 0.816406 -11.515625 0.984375 -11.515625 L 5.265625 -11.515625 C 5.410156 -11.515625 5.566406 -11.460938 5.734375 -11.359375 C 5.910156 -11.253906 6.035156 -11.125 6.109375 -10.96875 L 8.03125 -6.625 L 9.9375 -10.96875 C 9.988281 -11.101562 10.097656 -11.226562 10.265625 -11.34375 C 10.429688 -11.457031 10.597656 -11.515625 10.765625 -11.515625 L 15.078125 -11.515625 C 15.210938 -11.515625 15.34375 -11.457031 15.46875 -11.34375 C 15.59375 -11.226562 15.65625 -11.085938 15.65625 -10.921875 L 15.65625 -0.59375 C 15.65625 -0.4375 15.597656 -0.296875 15.484375 -0.171875 C 15.367188 -0.0546875 15.234375 0 15.078125 0 L 12.140625 0 C 12.003906 0 11.867188 -0.0546875 11.734375 -0.171875 C 11.609375 -0.285156 11.546875 -0.425781 11.546875 -0.59375 L 11.546875 -6.390625 L 9.0625 -0.828125 C 9 -0.679688 8.882812 -0.550781 8.71875 -0.4375 C 8.550781 -0.332031 8.382812 -0.28125 8.21875 -0.28125 L 7.703125 -0.28125 C 7.585938 -0.28125 7.4375 -0.332031 7.25 -0.4375 C 7.0625 -0.539062 6.9375 -0.671875 6.875 -0.828125 L 4.515625 -6.390625 L 4.515625 -0.59375 C 4.515625 -0.4375 4.453125 -0.296875 4.328125 -0.171875 C 4.210938 -0.0546875 4.078125 0 3.921875 0 L 0.984375 0 C 0.859375 0 0.726562 -0.0546875 0.59375 -0.171875 C 0.457031 -0.285156 0.390625 -0.425781 0.390625 -0.59375 Z M 0.390625 -0.59375 "/></g></g></g><g fill="#ffffff" fill-opacity="1"><g transform="translate(93.369513, 20.448887)"><g><path d="M 0.390625 -0.59375 L 0.390625 -10.921875 C 0.390625 -11.078125 0.445312 -11.210938 0.5625 -11.328125 C 0.675781 -11.453125 0.816406 -11.515625 0.984375 -11.515625 L 4.46875 -11.515625 C 4.613281 -11.515625 4.75 -11.457031 4.875 -11.34375 C 5 -11.226562 5.0625 -11.085938 5.0625 -10.921875 L 5.0625 -0.59375 C 5.0625 -0.4375 5.003906 -0.296875 4.890625 -0.171875 C 4.773438 -0.0546875 4.632812 0 4.46875 0 L 0.984375 0 C 0.835938 0 0.703125 -0.0546875 0.578125 -0.171875 C 0.453125 -0.285156 0.390625 -0.425781 0.390625 -0.59375 Z M 0.390625 -0.59375 "/></g></g></g><g fill="#ffffff" fill-opacity="1"><g transform="translate(98.828932, 20.448887)"><g><path d="M 0.390625 -0.59375 L 0.390625 -10.921875 C 0.390625 -11.078125 0.445312 -11.210938 0.5625 -11.328125 C 0.675781 -11.453125 0.816406 -11.515625 0.984375 -11.515625 L 4.46875 -11.515625 C 4.613281 -11.515625 4.75 -11.457031 4.875 -11.34375 C 5 -11.226562 5.0625 -11.085938 5.0625 -10.921875 L 5.0625 -3.515625 L 7.078125 -3.515625 L 9.765625 -3.609375 C 9.898438 -3.609375 10.03125 -3.550781 10.15625 -3.4375 C 10.289062 -3.332031 10.359375 -3.195312 10.359375 -3.03125 L 10.359375 -0.59375 C 10.359375 -0.457031 10.300781 -0.320312 10.1875 -0.1875 C 10.070312 -0.0625 9.929688 0 9.765625 0 L 0.984375 0 C 0.828125 0 0.6875 -0.0546875 0.5625 -0.171875 C 0.445312 -0.285156 0.390625 -0.425781 0.390625 -0.59375 Z M 0.390625 -0.59375 "/></g></g></g><g fill="#ffffff" fill-opacity="1"><g transform="translate(109.320211, 20.448887)"><g><path d="M 0.390625 -0.59375 L 0.390625 -10.921875 C 0.390625 -11.078125 0.445312 -11.210938 0.5625 -11.328125 C 0.675781 -11.453125 0.816406 -11.515625 0.984375 -11.515625 L 4.46875 -11.515625 C 4.613281 -11.515625 4.75 -11.457031 4.875 -11.34375 C 5 -11.226562 5.0625 -11.085938 5.0625 -10.921875 L 5.0625 -3.515625 L 7.078125 -3.515625 L 9.765625 -3.609375 C 9.898438 -3.609375 10.03125 -3.550781 10.15625 -3.4375 C 10.289062 -3.332031 10.359375 -3.195312 10.359375 -3.03125 L 10.359375 -0.59375 C 10.359375 -0.457031 10.300781 -0.320312 10.1875 -0.1875 C 10.070312 -0.0625 9.929688 0 9.765625 0 L 0.984375 0 C 0.828125 0 0.6875 -0.0546875 0.5625 -0.171875 C 0.445312 -0.285156 0.390625 -0.425781 0.390625 -0.59375 Z M 0.390625 -0.59375 "/></g></g></g><g fill="#ffffff" fill-opacity="1"><g transform="translate(119.647027, 20.448887)"><g><path d="M 0.265625 -0.546875 L 4.578125 -10.96875 C 4.640625 -11.113281 4.75 -11.238281 4.90625 -11.34375 C 5.070312 -11.457031 5.234375 -11.515625 5.390625 -11.515625 L 9.34375 -11.515625 C 9.488281 -11.515625 9.644531 -11.457031 9.8125 -11.34375 C 9.976562 -11.238281 10.09375 -11.113281 10.15625 -10.96875 L 14.359375 -0.546875 C 14.378906 -0.484375 14.390625 -0.421875 14.390625 -0.359375 C 14.390625 -0.265625 14.351562 -0.179688 14.28125 -0.109375 C 14.21875 -0.0351562 14.117188 0 13.984375 0 L 10.578125 0 C 10.429688 0 10.273438 -0.0507812 10.109375 -0.15625 C 9.953125 -0.269531 9.847656 -0.40625 9.796875 -0.5625 L 9.28125 -2.046875 L 5.25 -2.046875 L 4.71875 -0.5625 C 4.675781 -0.445312 4.570312 -0.320312 4.40625 -0.1875 C 4.25 -0.0625 4.09375 0 3.9375 0 L 0.625 0 C 0.507812 0 0.410156 -0.0351562 0.328125 -0.109375 C 0.253906 -0.179688 0.21875 -0.265625 0.21875 -0.359375 C 0.21875 -0.421875 0.234375 -0.484375 0.265625 -0.546875 Z M 6.21875 -4.765625 L 8.359375 -4.765625 L 7.3125 -7.828125 Z M 6.21875 -4.765625 "/></g></g></g><g fill="#ffffff" fill-opacity="1"><g transform="translate(133.459876, 20.448887)"><g><path d="M 0.265625 -5.03125 L 0.265625 -10.921875 C 0.265625 -11.078125 0.320312 -11.210938 0.4375 -11.328125 C 0.550781 -11.453125 0.691406 -11.515625 0.859375 -11.515625 L 4.40625 -11.515625 C 4.550781 -11.515625 4.6875 -11.457031 4.8125 -11.34375 C 4.9375 -11.226562 5 -11.085938 5 -10.921875 L 5 -5.015625 C 5 -4.535156 5.117188 -4.148438 5.359375 -3.859375 C 5.609375 -3.566406 5.960938 -3.421875 6.421875 -3.421875 C 6.867188 -3.421875 7.210938 -3.566406 7.453125 -3.859375 C 7.703125 -4.148438 7.828125 -4.535156 7.828125 -5.015625 L 7.828125 -10.921875 C 7.828125 -11.078125 7.882812 -11.210938 8 -11.328125 C 8.113281 -11.453125 8.253906 -11.515625 8.421875 -11.515625 L 11.984375 -11.515625 C 12.117188 -11.515625 12.25 -11.457031 12.375 -11.34375 C 12.5 -11.226562 12.5625 -11.085938 12.5625 -10.921875 L 12.5625 -5.03125 C 12.5625 -4 12.304688 -3.09375 11.796875 -2.3125 C 11.296875 -1.539062 10.582031 -0.929688 9.65625 -0.484375 C 8.738281 -0.046875 7.660156 0.171875 6.421875 0.171875 C 5.179688 0.171875 4.097656 -0.046875 3.171875 -0.484375 C 2.253906 -0.929688 1.539062 -1.539062 1.03125 -2.3125 C 0.519531 -3.09375 0.265625 -4 0.265625 -5.03125 Z M 0.265625 -5.03125 "/></g></g></g></svg>