<svg width="140" height="33" viewBox="0 0 140 33" fill="none" xmlns="http://www.w3.org/2000/svg">
<rect width="140" height="33" fill="#D4082D"/>
<path d="M8.64181 21.424V11.376C8.64181 11.088 8.89781 10.8 9.21781 10.8H12.6098C12.8818 10.8 13.1858 11.072 13.1858 11.376V18.576H15.1378L17.7618 18.512C18.0178 18.496 18.3378 18.752 18.3378 19.056V21.424C18.3378 21.696 18.0658 22 17.7618 22H9.21781C8.91381 22 8.64181 21.744 8.64181 21.424ZM18.5889 18.592C18.5889 16.672 20.7489 14.976 23.1009 14.976C24.1249 14.976 24.9729 15.04 25.9809 15.744V15.088C25.9809 14.368 25.0049 13.84 23.6289 13.84C22.3649 13.84 21.3089 14.112 20.2049 14.688C20.0289 14.784 19.7249 14.704 19.7249 14.384V12.4C19.7249 12.048 19.9009 11.728 20.2209 11.584C21.5649 10.944 22.8289 10.64 24.3329 10.64C27.6449 10.64 30.3649 12.624 30.3649 14.64V21.424C30.3649 21.728 30.0929 22 29.7889 22H26.6849C26.4129 22 26.1089 21.808 26.0769 21.472L26.0609 21.328C25.0049 21.84 23.7889 22.096 22.8449 22.096C20.6209 22.096 18.5889 21.04 18.5889 18.592ZM23.1169 18.592C23.1169 19.216 23.7889 19.52 24.5889 19.52C25.1169 19.52 25.5649 19.424 25.9809 19.264V17.984C25.5809 17.776 25.1329 17.632 24.5889 17.632C23.7889 17.632 23.1169 17.968 23.1169 18.592ZM30.8412 19.856V17.056C30.8412 16.8 31.0012 16.656 31.2412 16.864C32.8572 18.368 35.0332 18.896 36.8732 18.896C38.9532 18.896 39.2732 18.608 39.2732 18.32C39.2732 17.936 38.9212 17.856 38.2812 17.856C37.9132 17.856 37.4492 17.872 36.9212 17.872C33.3052 17.792 31.0332 16.144 31.0332 14.08C31.0332 11.52 33.8012 10.624 37.4012 10.624C39.3372 10.624 41.4812 11.008 42.3772 11.536C42.6812 11.712 42.8892 11.984 42.8892 12.32V14.288C42.8892 14.544 42.6652 14.768 42.3772 14.624C41.1612 14.016 39.2092 13.568 37.2732 13.568C36.5212 13.568 35.7212 13.648 35.7212 14.128C35.7212 14.608 36.5532 14.608 37.1132 14.608C39.4172 14.608 43.9132 15.28 43.9132 18.224C43.9132 20.576 40.6812 22.16 36.8252 22.16C34.6172 22.16 32.7932 21.472 31.3372 20.688C31.0172 20.512 30.8412 20.208 30.8412 19.856ZM44.2951 18.16V11.408C44.2951 11.12 44.5351 10.816 44.8551 10.784L48.2631 10.416C48.5351 10.384 48.8391 10.624 48.8391 10.928V12.4H53.8791C54.1511 12.4 54.4551 12.672 54.4551 12.976V15.216C54.4551 15.472 54.1831 15.792 53.8791 15.792H48.8391V17.456C48.8391 18.064 49.4791 18.608 50.4391 18.608C51.9111 18.608 53.1111 18.064 54.0071 17.584C54.1831 17.488 54.5191 17.568 54.5191 17.872V20.336C54.5191 20.704 54.3271 20.992 54.0071 21.168C53.0311 21.728 51.5591 22.16 50.1671 22.16C46.9191 22.16 44.2951 20.192 44.2951 18.16ZM61.2043 21.424V11.376C61.2043 11.088 61.4603 10.8 61.7803 10.8H65.9403C66.2123 10.8 66.6123 11.04 66.7403 11.328L68.6283 15.552L70.4683 11.328C70.5803 11.072 70.9643 10.8 71.2843 10.8H75.4763C75.7483 10.8 76.0523 11.072 76.0523 11.376V21.424C76.0523 21.728 75.7803 22 75.4763 22H72.6283C72.3563 22 72.0523 21.744 72.0523 21.424V15.792L69.6203 21.216C69.5083 21.472 69.1403 21.744 68.8203 21.744H68.2923C68.0843 21.744 67.6203 21.504 67.4923 21.216L65.2043 15.792V21.424C65.2043 21.728 64.9323 22 64.6283 22H61.7803C61.5083 22 61.2043 21.744 61.2043 21.424ZM76.7817 12.784V11.376C76.7817 11.152 77.0377 10.8 77.3577 10.8H80.7497C81.0217 10.8 81.3257 11.072 81.3257 11.376V12.784C81.3257 13.024 81.0537 13.36 80.7497 13.36H77.3577C77.0697 13.36 76.7817 13.104 76.7817 12.784ZM76.7817 21.424V14.736C76.7817 14.448 77.0377 14.16 77.3577 14.16H80.7497C81.0217 14.16 81.3257 14.432 81.3257 14.736V21.424C81.3257 21.728 81.0537 22 80.7497 22H77.3577C77.0697 22 76.7817 21.744 76.7817 21.424ZM82.0637 21.424V11.376C82.0637 11.088 82.3197 10.8 82.6397 10.8H85.9357C86.1917 10.8 86.5117 11.072 86.5277 11.376L86.5437 11.536C87.5357 11.024 88.5277 10.704 89.7597 10.704C93.0077 10.704 94.6397 12.608 94.6397 14.624V21.424C94.6397 21.728 94.3677 22 94.0637 22H90.6397C90.3517 22 90.0637 21.744 90.0637 21.424V15.328C90.0637 14.736 89.7437 14.176 88.7837 14.176C87.9357 14.176 87.2957 14.368 86.6397 14.672V21.424C86.6397 21.728 86.3677 22 86.0637 22H82.6397C82.3517 22 82.0637 21.744 82.0637 21.424ZM95.1544 17.104V11.376C95.1544 11.088 95.4104 10.8 95.7304 10.8H99.1864C99.4584 10.8 99.7624 11.072 99.7624 11.376V17.12C99.7624 18.064 100.242 18.672 101.138 18.672C102.018 18.672 102.514 18.064 102.514 17.12V11.376C102.514 11.088 102.77 10.8 103.09 10.8H106.546C106.818 10.8 107.122 11.072 107.122 11.376V17.104C107.122 20.112 104.738 22.16 101.138 22.16C97.5224 22.16 95.1544 20.112 95.1544 17.104ZM107.639 18.16V11.408C107.639 11.12 107.879 10.816 108.199 10.784L111.607 10.416C111.879 10.384 112.183 10.624 112.183 10.928V12.4H117.223C117.495 12.4 117.799 12.672 117.799 12.976V15.216C117.799 15.472 117.527 15.792 117.223 15.792H112.183V17.456C112.183 18.064 112.823 18.608 113.783 18.608C115.255 18.608 116.455 18.064 117.351 17.584C117.527 17.488 117.863 17.568 117.863 17.872V20.336C117.863 20.704 117.671 20.992 117.351 21.168C116.375 21.728 114.903 22.16 113.511 22.16C110.263 22.16 107.639 20.192 107.639 18.16ZM118.278 16.4C118.278 12.944 121.03 10.64 125.19 10.64C129.318 10.64 131.558 12.56 131.558 16.176V16.848C131.558 17.136 131.254 17.424 130.982 17.424H123.046C123.51 18.384 124.678 18.704 126.198 18.704C128.006 18.704 129.75 18.272 130.166 18.144C130.438 18.064 130.726 18.272 130.726 18.544V20.88C130.726 21.216 130.502 21.488 130.166 21.6C129.926 21.696 127.766 22.16 125.222 22.16C120.806 22.16 118.278 19.824 118.278 16.4ZM122.982 15.248H127.238V14.976C127.238 14.464 126.406 13.936 125.19 13.936C123.926 13.936 123.254 14.464 122.982 15.248Z" fill="#FFFDEB"/>
</svg>
