<svg xmlns="http://www.w3.org/2000/svg" xmlns:xlink="http://www.w3.org/1999/xlink" width="200" zoomAndPan="magnify" viewBox="0 0 150 30.000001" height="40" preserveAspectRatio="xMidYMid meet" version="1.0"><defs><g/><clipPath id="848013509b"><path d="M 2.417969 0 L 147.578125 0 L 147.578125 29.03125 L 2.417969 29.03125 Z M 2.417969 0 " clip-rule="nonzero"/></clipPath></defs><g clip-path="url(#848013509b)"><path fill="#ffffff" d="M 2.417969 0 L 147.582031 0 L 147.582031 29.03125 L 2.417969 29.03125 Z M 2.417969 0 " fill-opacity="1" fill-rule="nonzero"/><path fill="#000000" d="M 2.417969 0 L 147.582031 0 L 147.582031 29.03125 L 2.417969 29.03125 Z M 2.417969 0 " fill-opacity="1" fill-rule="nonzero"/></g><g fill="#ffffff" fill-opacity="1"><g transform="translate(27.591982, 22.137098)"><g><path d="M 0.546875 -0.828125 L 0.546875 -15.140625 C 0.546875 -15.347656 0.625 -15.535156 0.78125 -15.703125 C 0.945312 -15.867188 1.144531 -15.953125 1.375 -15.953125 L 8.53125 -15.953125 C 8.726562 -15.953125 8.941406 -15.878906 9.171875 -15.734375 C 9.410156 -15.597656 9.578125 -15.421875 9.671875 -15.203125 L 13.40625 -5.96875 L 13.40625 -15.140625 C 13.40625 -15.347656 13.484375 -15.535156 13.640625 -15.703125 C 13.804688 -15.867188 14 -15.953125 14.21875 -15.953125 L 17.96875 -15.953125 C 18.144531 -15.953125 18.320312 -15.875 18.5 -15.71875 C 18.6875 -15.5625 18.78125 -15.367188 18.78125 -15.140625 L 18.78125 -0.828125 C 18.78125 -0.609375 18.703125 -0.414062 18.546875 -0.25 C 18.390625 -0.0820312 18.195312 0 17.96875 0 L 10.890625 0 C 10.691406 0 10.472656 -0.0703125 10.234375 -0.21875 C 10.003906 -0.363281 9.84375 -0.539062 9.75 -0.75 L 5.921875 -9.890625 L 5.921875 -0.828125 C 5.921875 -0.609375 5.84375 -0.414062 5.6875 -0.25 C 5.53125 -0.0820312 5.335938 0 5.109375 0 L 1.375 0 C 1.175781 0 0.988281 -0.078125 0.8125 -0.234375 C 0.632812 -0.398438 0.546875 -0.597656 0.546875 -0.828125 Z M 0.546875 -0.828125 "/></g></g></g><g fill="#ffffff" fill-opacity="1"><g transform="translate(46.912436, 22.137098)"><g><path d="M 0.546875 -0.828125 L 0.546875 -15.140625 C 0.546875 -15.347656 0.625 -15.535156 0.78125 -15.703125 C 0.945312 -15.867188 1.144531 -15.953125 1.375 -15.953125 L 6.203125 -15.953125 C 6.398438 -15.953125 6.582031 -15.875 6.75 -15.71875 C 6.925781 -15.5625 7.015625 -15.367188 7.015625 -15.140625 L 7.015625 -0.828125 C 7.015625 -0.609375 6.9375 -0.414062 6.78125 -0.25 C 6.625 -0.0820312 6.429688 0 6.203125 0 L 1.375 0 C 1.175781 0 0.988281 -0.078125 0.8125 -0.234375 C 0.632812 -0.398438 0.546875 -0.597656 0.546875 -0.828125 Z M 0.546875 -0.828125 "/></g></g></g><g fill="#ffffff" fill-opacity="1"><g transform="translate(54.476579, 22.137098)"><g><path d="M 0.546875 -0.828125 L 0.546875 -15.140625 C 0.546875 -15.347656 0.625 -15.535156 0.78125 -15.703125 C 0.945312 -15.867188 1.144531 -15.953125 1.375 -15.953125 L 15.453125 -15.953125 C 15.671875 -15.953125 15.863281 -15.875 16.03125 -15.71875 C 16.195312 -15.5625 16.28125 -15.367188 16.28125 -15.140625 L 16.28125 -12.015625 C 16.28125 -11.828125 16.195312 -11.640625 16.03125 -11.453125 C 15.875 -11.273438 15.679688 -11.1875 15.453125 -11.1875 L 7.015625 -11.1875 L 7.015625 -9.875 L 14.09375 -9.875 C 14.289062 -9.875 14.472656 -9.789062 14.640625 -9.625 C 14.816406 -9.46875 14.90625 -9.273438 14.90625 -9.046875 L 14.90625 -6.90625 C 14.90625 -6.738281 14.828125 -6.5625 14.671875 -6.375 C 14.515625 -6.1875 14.320312 -6.09375 14.09375 -6.09375 L 7.015625 -6.09375 L 7.015625 -4.765625 L 15.453125 -4.765625 C 15.671875 -4.765625 15.863281 -4.679688 16.03125 -4.515625 C 16.195312 -4.359375 16.28125 -4.164062 16.28125 -3.9375 L 16.28125 -0.828125 C 16.28125 -0.640625 16.195312 -0.453125 16.03125 -0.265625 C 15.875 -0.0859375 15.679688 0 15.453125 0 L 1.375 0 C 1.15625 0 0.960938 -0.078125 0.796875 -0.234375 C 0.628906 -0.398438 0.546875 -0.597656 0.546875 -0.828125 Z M 0.546875 -0.828125 "/></g></g></g><g fill="#ffffff" fill-opacity="1"><g transform="translate(71.08578, 22.137098)"><g><path d="M 0.359375 -6.96875 L 0.359375 -15.140625 C 0.359375 -15.347656 0.4375 -15.535156 0.59375 -15.703125 C 0.757812 -15.867188 0.957031 -15.953125 1.1875 -15.953125 L 6.109375 -15.953125 C 6.304688 -15.953125 6.492188 -15.875 6.671875 -15.71875 C 6.847656 -15.5625 6.9375 -15.367188 6.9375 -15.140625 L 6.9375 -6.953125 C 6.9375 -6.285156 7.101562 -5.75 7.4375 -5.34375 C 7.78125 -4.9375 8.265625 -4.734375 8.890625 -4.734375 C 9.515625 -4.734375 9.992188 -4.9375 10.328125 -5.34375 C 10.671875 -5.75 10.84375 -6.285156 10.84375 -6.953125 L 10.84375 -15.140625 C 10.84375 -15.347656 10.921875 -15.535156 11.078125 -15.703125 C 11.242188 -15.867188 11.441406 -15.953125 11.671875 -15.953125 L 16.59375 -15.953125 C 16.789062 -15.953125 16.976562 -15.875 17.15625 -15.71875 C 17.332031 -15.5625 17.421875 -15.367188 17.421875 -15.140625 L 17.421875 -6.96875 C 17.421875 -5.539062 17.066406 -4.285156 16.359375 -3.203125 C 15.648438 -2.128906 14.65625 -1.285156 13.375 -0.671875 C 12.101562 -0.0664062 10.609375 0.234375 8.890625 0.234375 C 7.171875 0.234375 5.671875 -0.0664062 4.390625 -0.671875 C 3.117188 -1.285156 2.128906 -2.128906 1.421875 -3.203125 C 0.710938 -4.285156 0.359375 -5.539062 0.359375 -6.96875 Z M 0.359375 -6.96875 "/></g></g></g><g fill="#ffffff" fill-opacity="1"><g transform="translate(88.856952, 22.137098)"><g><path d="M 0.3125 -15.1875 C 0.289062 -15.257812 0.28125 -15.332031 0.28125 -15.40625 C 0.28125 -15.5625 0.332031 -15.691406 0.4375 -15.796875 C 0.539062 -15.898438 0.679688 -15.953125 0.859375 -15.953125 L 6 -15.953125 C 6.195312 -15.953125 6.398438 -15.875 6.609375 -15.71875 C 6.828125 -15.570312 6.960938 -15.382812 7.015625 -15.15625 L 8.75 -8.09375 L 10.21875 -15.15625 C 10.25 -15.351562 10.359375 -15.535156 10.546875 -15.703125 C 10.742188 -15.867188 10.957031 -15.953125 11.1875 -15.953125 L 15.0625 -15.953125 C 15.25 -15.953125 15.445312 -15.875 15.65625 -15.71875 C 15.875 -15.5625 16.003906 -15.375 16.046875 -15.15625 L 17.515625 -8.09375 L 19.234375 -15.15625 C 19.296875 -15.351562 19.425781 -15.535156 19.625 -15.703125 C 19.820312 -15.867188 20.035156 -15.953125 20.265625 -15.953125 L 25.390625 -15.953125 C 25.554688 -15.953125 25.695312 -15.898438 25.8125 -15.796875 C 25.925781 -15.691406 25.984375 -15.5625 25.984375 -15.40625 C 25.984375 -15.332031 25.96875 -15.257812 25.9375 -15.1875 L 20.859375 -0.78125 C 20.785156 -0.582031 20.640625 -0.398438 20.421875 -0.234375 C 20.210938 -0.078125 19.992188 0 19.765625 0 L 15.796875 0 C 15.617188 0 15.414062 -0.0703125 15.1875 -0.21875 C 14.96875 -0.375 14.835938 -0.566406 14.796875 -0.796875 L 13.125 -7.6875 L 11.46875 -0.796875 C 11.414062 -0.597656 11.289062 -0.414062 11.09375 -0.25 C 10.90625 -0.0820312 10.695312 0 10.46875 0 L 6.5 0 C 6.3125 0 6.097656 -0.0703125 5.859375 -0.21875 C 5.628906 -0.375 5.476562 -0.5625 5.40625 -0.78125 Z M 0.3125 -15.1875 "/></g></g></g><g fill="#ffffff" fill-opacity="1"><g transform="translate(115.1036, 22.137098)"><g><path d="M 0.40625 -9.84375 L 0.40625 -15.828125 C 0.40625 -16.046875 0.492188 -16.234375 0.671875 -16.390625 C 0.847656 -16.554688 1.035156 -16.640625 1.234375 -16.640625 L 6.0625 -16.640625 C 6.289062 -16.640625 6.484375 -16.550781 6.640625 -16.375 C 6.804688 -16.207031 6.890625 -16.023438 6.890625 -15.828125 L 6.890625 -9.84375 C 6.890625 -9.300781 6.84375 -8.753906 6.75 -8.203125 L 6.46875 -6.59375 C 6.425781 -6.363281 6.300781 -6.164062 6.09375 -6 C 5.894531 -5.84375 5.703125 -5.765625 5.515625 -5.765625 L 1.78125 -5.765625 C 1.550781 -5.765625 1.335938 -5.863281 1.140625 -6.0625 C 0.953125 -6.257812 0.847656 -6.4375 0.828125 -6.59375 L 0.546875 -8.203125 C 0.453125 -8.753906 0.40625 -9.300781 0.40625 -9.84375 Z M 1.140625 -0.828125 L 1.140625 -4.1875 C 1.140625 -4.375 1.21875 -4.554688 1.375 -4.734375 C 1.539062 -4.921875 1.734375 -5.015625 1.953125 -5.015625 L 5.328125 -5.015625 C 5.515625 -5.015625 5.695312 -4.929688 5.875 -4.765625 C 6.0625 -4.609375 6.15625 -4.414062 6.15625 -4.1875 L 6.15625 -0.828125 C 6.15625 -0.640625 6.070312 -0.453125 5.90625 -0.265625 C 5.75 -0.0859375 5.554688 0 5.328125 0 L 1.953125 0 C 1.765625 0 1.582031 -0.078125 1.40625 -0.234375 C 1.226562 -0.398438 1.140625 -0.597656 1.140625 -0.828125 Z M 1.140625 -0.828125 "/></g></g></g></svg>