<svg xmlns="http://www.w3.org/2000/svg" xmlns:xlink="http://www.w3.org/1999/xlink" width="200" zoomAndPan="magnify" viewBox="0 0 150 30.000001" height="40" preserveAspectRatio="xMidYMid meet" version="1.0"><defs><g/><clipPath id="a5e14e2800"><path d="M 2.417969 0 L 147.578125 0 L 147.578125 29.03125 L 2.417969 29.03125 Z M 2.417969 0 " clip-rule="nonzero"/></clipPath></defs><g clip-path="url(#a5e14e2800)"><path fill="#ffffff" d="M 2.417969 0 L 147.582031 0 L 147.582031 29.03125 L 2.417969 29.03125 Z M 2.417969 0 " fill-opacity="1" fill-rule="nonzero"/><path fill="#ecb4ce" d="M 2.417969 0 L 147.582031 0 L 147.582031 29.03125 L 2.417969 29.03125 Z M 2.417969 0 " fill-opacity="1" fill-rule="nonzero"/></g><g fill="#ffffff" fill-opacity="1"><g transform="translate(3.525073, 20.129031)"><g><path d="M 0.28125 -2.65625 L 0.28125 -6.125 C 0.28125 -6.289062 0.328125 -6.410156 0.421875 -6.484375 C 0.515625 -6.554688 0.632812 -6.519531 0.78125 -6.375 C 1.445312 -5.75 2.171875 -5.253906 2.953125 -4.890625 C 3.742188 -4.523438 4.550781 -4.257812 5.375 -4.09375 C 6.207031 -3.925781 7.003906 -3.84375 7.765625 -3.84375 C 8.617188 -3.84375 9.253906 -3.875 9.671875 -3.9375 C 10.097656 -4.007812 10.378906 -4.101562 10.515625 -4.21875 C 10.660156 -4.332031 10.734375 -4.445312 10.734375 -4.5625 C 10.734375 -4.8125 10.625 -4.96875 10.40625 -5.03125 C 10.195312 -5.101562 9.894531 -5.140625 9.5 -5.140625 C 9.28125 -5.140625 9.023438 -5.132812 8.734375 -5.125 C 8.453125 -5.125 8.144531 -5.125 7.8125 -5.125 C 6.320312 -5.15625 5.03125 -5.382812 3.9375 -5.8125 C 2.84375 -6.238281 2 -6.800781 1.40625 -7.5 C 0.8125 -8.195312 0.515625 -8.972656 0.515625 -9.828125 C 0.515625 -10.617188 0.710938 -11.285156 1.109375 -11.828125 C 1.503906 -12.378906 2.0625 -12.820312 2.78125 -13.15625 C 3.507812 -13.488281 4.351562 -13.726562 5.3125 -13.875 C 6.269531 -14.03125 7.300781 -14.109375 8.40625 -14.109375 C 9.21875 -14.109375 10.023438 -14.0625 10.828125 -13.96875 C 11.640625 -13.875 12.378906 -13.738281 13.046875 -13.5625 C 13.710938 -13.394531 14.234375 -13.207031 14.609375 -13 C 15.015625 -12.757812 15.21875 -12.425781 15.21875 -12 L 15.21875 -9.5625 C 15.21875 -9.40625 15.15625 -9.273438 15.03125 -9.171875 C 14.914062 -9.078125 14.765625 -9.066406 14.578125 -9.140625 C 13.828125 -9.523438 12.882812 -9.835938 11.75 -10.078125 C 10.625 -10.328125 9.457031 -10.453125 8.25 -10.453125 C 7.945312 -10.453125 7.644531 -10.4375 7.34375 -10.40625 C 7.050781 -10.375 6.804688 -10.304688 6.609375 -10.203125 C 6.421875 -10.109375 6.328125 -9.960938 6.328125 -9.765625 C 6.328125 -9.566406 6.421875 -9.425781 6.609375 -9.34375 C 6.804688 -9.269531 7.039062 -9.222656 7.3125 -9.203125 C 7.582031 -9.179688 7.832031 -9.171875 8.0625 -9.171875 C 8.625 -9.171875 9.273438 -9.128906 10.015625 -9.046875 C 10.753906 -8.972656 11.5 -8.835938 12.25 -8.640625 C 13.007812 -8.453125 13.707031 -8.1875 14.34375 -7.84375 C 14.988281 -7.507812 15.503906 -7.082031 15.890625 -6.5625 C 16.285156 -6.039062 16.484375 -5.414062 16.484375 -4.6875 C 16.484375 -3.957031 16.25 -3.289062 15.78125 -2.6875 C 15.320312 -2.082031 14.691406 -1.566406 13.890625 -1.140625 C 13.085938 -0.710938 12.15625 -0.378906 11.09375 -0.140625 C 10.03125 0.0859375 8.898438 0.203125 7.703125 0.203125 C 6.335938 0.203125 5.085938 0.0195312 3.953125 -0.34375 C 2.828125 -0.71875 1.8125 -1.148438 0.90625 -1.640625 C 0.488281 -1.867188 0.28125 -2.207031 0.28125 -2.65625 Z M 0.28125 -2.65625 "/></g></g></g><g fill="#ffffff" fill-opacity="1"><g transform="translate(20.166514, 20.129031)"><g><path d="M 6.078125 -8.21875 C 6.203125 -8.21875 6.46875 -8.207031 6.875 -8.1875 C 7.289062 -8.175781 7.742188 -8.160156 8.234375 -8.140625 C 8.734375 -8.117188 9.175781 -8.109375 9.5625 -8.109375 C 9.894531 -8.109375 10.175781 -8.1875 10.40625 -8.34375 C 10.632812 -8.5 10.75 -8.6875 10.75 -8.90625 C 10.75 -9.125 10.632812 -9.304688 10.40625 -9.453125 C 10.175781 -9.609375 9.894531 -9.6875 9.5625 -9.6875 C 9.101562 -9.6875 8.628906 -9.675781 8.140625 -9.65625 C 7.660156 -9.644531 7.234375 -9.628906 6.859375 -9.609375 C 6.484375 -9.585938 6.222656 -9.578125 6.078125 -9.578125 Z M 0.46875 -0.71875 L 0.46875 -13.171875 C 0.46875 -13.359375 0.535156 -13.523438 0.671875 -13.671875 C 0.816406 -13.816406 0.988281 -13.890625 1.1875 -13.890625 C 2.4375 -13.890625 3.726562 -13.910156 5.0625 -13.953125 C 6.40625 -13.992188 7.867188 -14.015625 9.453125 -14.015625 C 10.453125 -14.015625 11.375 -13.878906 12.21875 -13.609375 C 13.070312 -13.335938 13.804688 -12.960938 14.421875 -12.484375 C 15.035156 -12.015625 15.507812 -11.476562 15.84375 -10.875 C 16.175781 -10.269531 16.34375 -9.625 16.34375 -8.9375 C 16.34375 -8.019531 16.046875 -7.179688 15.453125 -6.421875 C 14.867188 -5.671875 14.054688 -5.066406 13.015625 -4.609375 C 11.984375 -4.148438 10.796875 -3.921875 9.453125 -3.921875 C 8.867188 -3.921875 8.3125 -3.925781 7.78125 -3.9375 C 7.25 -3.957031 6.691406 -4 6.109375 -4.0625 L 6.109375 -0.71875 C 6.109375 -0.550781 6.035156 -0.390625 5.890625 -0.234375 C 5.753906 -0.078125 5.585938 0 5.390625 0 L 1.1875 0 C 1.019531 0 0.859375 -0.0664062 0.703125 -0.203125 C 0.546875 -0.347656 0.46875 -0.519531 0.46875 -0.71875 Z M 0.46875 -0.71875 "/></g></g></g><g fill="#ffffff" fill-opacity="1"><g transform="translate(36.708778, 20.129031)"><g><path d="M 0.3125 -0.65625 L 5.515625 -13.234375 C 5.597656 -13.410156 5.734375 -13.5625 5.921875 -13.6875 C 6.117188 -13.820312 6.316406 -13.890625 6.515625 -13.890625 L 11.265625 -13.890625 C 11.441406 -13.890625 11.628906 -13.820312 11.828125 -13.6875 C 12.035156 -13.5625 12.175781 -13.410156 12.25 -13.234375 L 17.328125 -0.65625 C 17.347656 -0.59375 17.359375 -0.519531 17.359375 -0.4375 C 17.359375 -0.320312 17.316406 -0.21875 17.234375 -0.125 C 17.148438 -0.0390625 17.03125 0 16.875 0 L 12.765625 0 C 12.585938 0 12.398438 -0.0625 12.203125 -0.1875 C 12.003906 -0.320312 11.875 -0.484375 11.8125 -0.671875 L 11.1875 -2.453125 L 6.328125 -2.453125 L 5.6875 -0.671875 C 5.632812 -0.535156 5.515625 -0.390625 5.328125 -0.234375 C 5.140625 -0.078125 4.945312 0 4.75 0 L 0.75 0 C 0.625 0 0.507812 -0.0390625 0.40625 -0.125 C 0.3125 -0.21875 0.265625 -0.320312 0.265625 -0.4375 C 0.265625 -0.519531 0.28125 -0.59375 0.3125 -0.65625 Z M 7.5 -5.75 L 10.078125 -5.75 L 8.8125 -9.453125 Z M 7.5 -5.75 "/></g></g></g><g fill="#ffffff" fill-opacity="1"><g transform="translate(54.322122, 20.129031)"><g/></g></g><g fill="#ffffff" fill-opacity="1"><g transform="translate(61.859363, 20.129031)"><g><path d="M 0.46875 -0.71875 L 0.46875 -13.171875 C 0.46875 -13.359375 0.535156 -13.523438 0.671875 -13.671875 C 0.816406 -13.816406 0.988281 -13.890625 1.1875 -13.890625 L 5.390625 -13.890625 C 5.566406 -13.890625 5.726562 -13.816406 5.875 -13.671875 C 6.03125 -13.535156 6.109375 -13.367188 6.109375 -13.171875 L 6.109375 -9.09375 L 6.921875 -9.09375 L 9.171875 -13.25 C 9.390625 -13.675781 9.738281 -13.890625 10.21875 -13.890625 L 15.4375 -13.890625 C 15.613281 -13.890625 15.734375 -13.832031 15.796875 -13.71875 C 15.859375 -13.601562 15.832031 -13.472656 15.71875 -13.328125 L 10.921875 -7.125 L 15.921875 -0.578125 C 15.992188 -0.472656 16.03125 -0.375 16.03125 -0.28125 C 16.03125 -0.09375 15.898438 0 15.640625 0 L 10.09375 0 C 9.625 0 9.273438 -0.210938 9.046875 -0.640625 L 6.75 -4.84375 L 6.109375 -4.84375 L 6.109375 -0.71875 C 6.109375 -0.539062 6.035156 -0.375 5.890625 -0.21875 C 5.753906 -0.0703125 5.585938 0 5.390625 0 L 1.1875 0 C 1.019531 0 0.859375 -0.0664062 0.703125 -0.203125 C 0.546875 -0.347656 0.46875 -0.519531 0.46875 -0.71875 Z M 0.46875 -0.71875 "/></g></g></g><g fill="#ffffff" fill-opacity="1"><g transform="translate(78.242946, 20.129031)"><g><path d="M 0.3125 -0.65625 L 5.515625 -13.234375 C 5.597656 -13.410156 5.734375 -13.5625 5.921875 -13.6875 C 6.117188 -13.820312 6.316406 -13.890625 6.515625 -13.890625 L 11.265625 -13.890625 C 11.441406 -13.890625 11.628906 -13.820312 11.828125 -13.6875 C 12.035156 -13.5625 12.175781 -13.410156 12.25 -13.234375 L 17.328125 -0.65625 C 17.347656 -0.59375 17.359375 -0.519531 17.359375 -0.4375 C 17.359375 -0.320312 17.316406 -0.21875 17.234375 -0.125 C 17.148438 -0.0390625 17.03125 0 16.875 0 L 12.765625 0 C 12.585938 0 12.398438 -0.0625 12.203125 -0.1875 C 12.003906 -0.320312 11.875 -0.484375 11.8125 -0.671875 L 11.1875 -2.453125 L 6.328125 -2.453125 L 5.6875 -0.671875 C 5.632812 -0.535156 5.515625 -0.390625 5.328125 -0.234375 C 5.140625 -0.078125 4.945312 0 4.75 0 L 0.75 0 C 0.625 0 0.507812 -0.0390625 0.40625 -0.125 C 0.3125 -0.21875 0.265625 -0.320312 0.265625 -0.4375 C 0.265625 -0.519531 0.28125 -0.59375 0.3125 -0.65625 Z M 7.5 -5.75 L 10.078125 -5.75 L 8.8125 -9.453125 Z M 7.5 -5.75 "/></g></g></g><g fill="#ffffff" fill-opacity="1"><g transform="translate(95.856289, 20.129031)"><g><path d="M 0.46875 -0.71875 L 0.46875 -13.171875 C 0.46875 -13.359375 0.535156 -13.523438 0.671875 -13.671875 C 0.816406 -13.816406 0.988281 -13.890625 1.1875 -13.890625 L 6.34375 -13.890625 C 6.519531 -13.890625 6.710938 -13.828125 6.921875 -13.703125 C 7.140625 -13.578125 7.285156 -13.421875 7.359375 -13.234375 L 9.6875 -8 L 11.984375 -13.234375 C 12.046875 -13.390625 12.175781 -13.535156 12.375 -13.671875 C 12.582031 -13.816406 12.785156 -13.890625 12.984375 -13.890625 L 18.171875 -13.890625 C 18.347656 -13.890625 18.507812 -13.816406 18.65625 -13.671875 C 18.8125 -13.535156 18.890625 -13.367188 18.890625 -13.171875 L 18.890625 -0.71875 C 18.890625 -0.53125 18.816406 -0.363281 18.671875 -0.21875 C 18.535156 -0.0703125 18.367188 0 18.171875 0 L 14.640625 0 C 14.484375 0 14.328125 -0.0664062 14.171875 -0.203125 C 14.015625 -0.347656 13.9375 -0.519531 13.9375 -0.71875 L 13.9375 -7.703125 L 10.9375 -1 C 10.851562 -0.820312 10.710938 -0.664062 10.515625 -0.53125 C 10.316406 -0.40625 10.117188 -0.34375 9.921875 -0.34375 L 9.28125 -0.34375 C 9.15625 -0.34375 8.976562 -0.40625 8.75 -0.53125 C 8.519531 -0.65625 8.367188 -0.8125 8.296875 -1 L 5.4375 -7.703125 L 5.4375 -0.71875 C 5.4375 -0.53125 5.363281 -0.363281 5.21875 -0.21875 C 5.082031 -0.0703125 4.914062 0 4.71875 0 L 1.1875 0 C 1.03125 0 0.867188 -0.0664062 0.703125 -0.203125 C 0.546875 -0.347656 0.46875 -0.519531 0.46875 -0.71875 Z M 0.46875 -0.71875 "/></g></g></g><g fill="#ffffff" fill-opacity="1"><g transform="translate(115.215108, 20.129031)"><g><path d="M 0.46875 -0.71875 L 0.46875 -13.171875 C 0.46875 -13.359375 0.535156 -13.523438 0.671875 -13.671875 C 0.816406 -13.816406 0.988281 -13.890625 1.1875 -13.890625 L 13.453125 -13.890625 C 13.640625 -13.890625 13.804688 -13.816406 13.953125 -13.671875 C 14.097656 -13.535156 14.171875 -13.367188 14.171875 -13.171875 L 14.171875 -10.453125 C 14.171875 -10.296875 14.097656 -10.140625 13.953125 -9.984375 C 13.816406 -9.828125 13.648438 -9.75 13.453125 -9.75 L 6.109375 -9.75 L 6.109375 -8.59375 L 12.265625 -8.59375 C 12.429688 -8.59375 12.59375 -8.519531 12.75 -8.375 C 12.90625 -8.238281 12.984375 -8.070312 12.984375 -7.875 L 12.984375 -6.015625 C 12.984375 -5.867188 12.910156 -5.710938 12.765625 -5.546875 C 12.628906 -5.378906 12.460938 -5.296875 12.265625 -5.296875 L 6.109375 -5.296875 L 6.109375 -4.140625 L 13.453125 -4.140625 C 13.640625 -4.140625 13.804688 -4.070312 13.953125 -3.9375 C 14.097656 -3.800781 14.171875 -3.632812 14.171875 -3.4375 L 14.171875 -0.71875 C 14.171875 -0.550781 14.097656 -0.390625 13.953125 -0.234375 C 13.816406 -0.078125 13.648438 0 13.453125 0 L 1.1875 0 C 1 0 0.832031 -0.0664062 0.6875 -0.203125 C 0.539062 -0.347656 0.46875 -0.519531 0.46875 -0.71875 Z M 0.46875 -0.71875 "/></g></g></g><g fill="#ffffff" fill-opacity="1"><g transform="translate(129.67471, 20.129031)"><g><path d="M 0.46875 -0.71875 L 0.46875 -13.171875 C 0.46875 -13.359375 0.535156 -13.523438 0.671875 -13.671875 C 0.816406 -13.816406 0.988281 -13.890625 1.1875 -13.890625 C 2.03125 -13.890625 2.867188 -13.898438 3.703125 -13.921875 C 4.546875 -13.941406 5.441406 -13.960938 6.390625 -13.984375 C 7.335938 -14.003906 8.410156 -14.015625 9.609375 -14.015625 C 10.910156 -14.015625 12.082031 -13.804688 13.125 -13.390625 C 14.175781 -12.972656 15.003906 -12.410156 15.609375 -11.703125 C 16.210938 -10.992188 16.515625 -10.203125 16.515625 -9.328125 C 16.515625 -8.660156 16.332031 -8.039062 15.96875 -7.46875 C 15.613281 -6.90625 15.125 -6.410156 14.5 -5.984375 C 13.882812 -5.566406 13.175781 -5.253906 12.375 -5.046875 L 16.046875 -0.5625 C 16.171875 -0.425781 16.207031 -0.296875 16.15625 -0.171875 C 16.113281 -0.0546875 15.992188 0 15.796875 0 L 9.875 0 C 9.695312 0 9.503906 -0.0625 9.296875 -0.1875 C 9.085938 -0.3125 8.945312 -0.46875 8.875 -0.65625 L 7 -4.765625 L 6.03125 -4.765625 L 6.03125 -0.71875 C 6.03125 -0.539062 5.957031 -0.375 5.8125 -0.21875 C 5.675781 -0.0703125 5.507812 0 5.3125 0 L 1.1875 0 C 1.019531 0 0.859375 -0.0664062 0.703125 -0.203125 C 0.546875 -0.347656 0.46875 -0.519531 0.46875 -0.71875 Z M 6.03125 -8.515625 C 6.09375 -8.515625 6.273438 -8.503906 6.578125 -8.484375 C 6.878906 -8.472656 7.234375 -8.460938 7.640625 -8.453125 C 8.046875 -8.453125 8.460938 -8.441406 8.890625 -8.421875 C 9.316406 -8.410156 9.691406 -8.40625 10.015625 -8.40625 C 10.210938 -8.40625 10.378906 -8.472656 10.515625 -8.609375 C 10.660156 -8.742188 10.734375 -8.90625 10.734375 -9.09375 C 10.734375 -9.269531 10.65625 -9.425781 10.5 -9.5625 C 10.351562 -9.707031 10.164062 -9.78125 9.9375 -9.78125 C 9.625 -9.78125 9.257812 -9.773438 8.84375 -9.765625 C 8.4375 -9.753906 8.035156 -9.742188 7.640625 -9.734375 C 7.242188 -9.722656 6.894531 -9.710938 6.59375 -9.703125 C 6.300781 -9.691406 6.113281 -9.6875 6.03125 -9.6875 Z M 6.03125 -8.515625 "/></g></g></g></svg>