<svg xmlns="http://www.w3.org/2000/svg" xmlns:xlink="http://www.w3.org/1999/xlink" width="200" zoomAndPan="magnify" viewBox="0 0 150 30.000001" height="40" preserveAspectRatio="xMidYMid meet" version="1.0"><defs><g/><clipPath id="c1c7ba53d3"><path d="M 2.417969 0 L 147.578125 0 L 147.578125 29.03125 L 2.417969 29.03125 Z M 2.417969 0 " clip-rule="nonzero"/></clipPath></defs><g clip-path="url(#c1c7ba53d3)"><path fill="#ffffff" d="M 2.417969 0 L 147.582031 0 L 147.582031 29.03125 L 2.417969 29.03125 Z M 2.417969 0 " fill-opacity="1" fill-rule="nonzero"/><path fill="#70beb2" d="M 2.417969 0 L 147.582031 0 L 147.582031 29.03125 L 2.417969 29.03125 Z M 2.417969 0 " fill-opacity="1" fill-rule="nonzero"/></g><g fill="#ffffff" fill-opacity="1"><g transform="translate(6.071066, 19.93903)"><g><path d="M 0.25 -2.453125 L 0.25 -5.671875 C 0.25 -5.816406 0.289062 -5.921875 0.375 -5.984375 C 0.46875 -6.054688 0.582031 -6.023438 0.71875 -5.890625 C 1.34375 -5.316406 2.015625 -4.859375 2.734375 -4.515625 C 3.460938 -4.179688 4.207031 -3.9375 4.96875 -3.78125 C 5.738281 -3.632812 6.472656 -3.5625 7.171875 -3.5625 C 7.960938 -3.5625 8.550781 -3.585938 8.9375 -3.640625 C 9.332031 -3.703125 9.59375 -3.785156 9.71875 -3.890625 C 9.851562 -3.992188 9.921875 -4.101562 9.921875 -4.21875 C 9.921875 -4.445312 9.820312 -4.59375 9.625 -4.65625 C 9.4375 -4.71875 9.15625 -4.75 8.78125 -4.75 C 8.570312 -4.75 8.335938 -4.742188 8.078125 -4.734375 C 7.816406 -4.734375 7.535156 -4.734375 7.234375 -4.734375 C 5.847656 -4.765625 4.648438 -4.976562 3.640625 -5.375 C 2.628906 -5.769531 1.847656 -6.289062 1.296875 -6.9375 C 0.753906 -7.582031 0.484375 -8.296875 0.484375 -9.078125 C 0.484375 -9.816406 0.664062 -10.4375 1.03125 -10.9375 C 1.394531 -11.445312 1.910156 -11.851562 2.578125 -12.15625 C 3.242188 -12.46875 4.019531 -12.691406 4.90625 -12.828125 C 5.789062 -12.972656 6.75 -13.046875 7.78125 -13.046875 C 8.519531 -13.046875 9.265625 -13 10.015625 -12.90625 C 10.765625 -12.820312 11.445312 -12.703125 12.0625 -12.546875 C 12.675781 -12.390625 13.15625 -12.210938 13.5 -12.015625 C 13.875 -11.796875 14.0625 -11.488281 14.0625 -11.09375 L 14.0625 -8.84375 C 14.0625 -8.695312 14.003906 -8.578125 13.890625 -8.484375 C 13.785156 -8.390625 13.648438 -8.378906 13.484375 -8.453125 C 12.785156 -8.804688 11.910156 -9.097656 10.859375 -9.328125 C 9.816406 -9.554688 8.738281 -9.671875 7.625 -9.671875 C 7.34375 -9.671875 7.066406 -9.65625 6.796875 -9.625 C 6.523438 -9.59375 6.300781 -9.53125 6.125 -9.4375 C 5.945312 -9.34375 5.859375 -9.207031 5.859375 -9.03125 C 5.859375 -8.84375 5.945312 -8.710938 6.125 -8.640625 C 6.300781 -8.566406 6.515625 -8.519531 6.765625 -8.5 C 7.015625 -8.476562 7.242188 -8.46875 7.453125 -8.46875 C 7.972656 -8.46875 8.578125 -8.429688 9.265625 -8.359375 C 9.953125 -8.285156 10.640625 -8.160156 11.328125 -7.984375 C 12.023438 -7.804688 12.671875 -7.5625 13.265625 -7.25 C 13.859375 -6.9375 14.335938 -6.539062 14.703125 -6.0625 C 15.066406 -5.582031 15.25 -5.003906 15.25 -4.328125 C 15.25 -3.648438 15.03125 -3.035156 14.59375 -2.484375 C 14.164062 -1.929688 13.578125 -1.453125 12.828125 -1.046875 C 12.085938 -0.648438 11.226562 -0.34375 10.25 -0.125 C 9.269531 0.0820312 8.226562 0.1875 7.125 0.1875 C 5.863281 0.1875 4.707031 0.015625 3.65625 -0.328125 C 2.613281 -0.671875 1.675781 -1.066406 0.84375 -1.515625 C 0.445312 -1.722656 0.25 -2.035156 0.25 -2.453125 Z M 0.25 -2.453125 "/></g></g></g><g fill="#ffffff" fill-opacity="1"><g transform="translate(21.456655, 19.93903)"><g><path d="M 0.296875 -5.609375 L 0.296875 -12.1875 C 0.296875 -12.351562 0.359375 -12.503906 0.484375 -12.640625 C 0.609375 -12.773438 0.765625 -12.84375 0.953125 -12.84375 L 4.921875 -12.84375 C 5.078125 -12.84375 5.222656 -12.773438 5.359375 -12.640625 C 5.503906 -12.515625 5.578125 -12.363281 5.578125 -12.1875 L 5.578125 -5.59375 C 5.578125 -5.050781 5.710938 -4.617188 5.984375 -4.296875 C 6.265625 -3.972656 6.65625 -3.8125 7.15625 -3.8125 C 7.65625 -3.8125 8.039062 -3.972656 8.3125 -4.296875 C 8.59375 -4.617188 8.734375 -5.050781 8.734375 -5.59375 L 8.734375 -12.1875 C 8.734375 -12.351562 8.796875 -12.503906 8.921875 -12.640625 C 9.046875 -12.773438 9.203125 -12.84375 9.390625 -12.84375 L 13.359375 -12.84375 C 13.515625 -12.84375 13.660156 -12.773438 13.796875 -12.640625 C 13.941406 -12.515625 14.015625 -12.363281 14.015625 -12.1875 L 14.015625 -5.609375 C 14.015625 -4.460938 13.726562 -3.453125 13.15625 -2.578125 C 12.59375 -1.710938 11.796875 -1.035156 10.765625 -0.546875 C 9.742188 -0.0546875 8.539062 0.1875 7.15625 0.1875 C 5.769531 0.1875 4.5625 -0.0546875 3.53125 -0.546875 C 2.507812 -1.035156 1.710938 -1.710938 1.140625 -2.578125 C 0.578125 -3.453125 0.296875 -4.460938 0.296875 -5.609375 Z M 0.296875 -5.609375 "/></g></g></g><g fill="#ffffff" fill-opacity="1"><g transform="translate(35.7603, 19.93903)"><g><path d="M 5.609375 -7.59375 C 5.734375 -7.59375 5.984375 -7.585938 6.359375 -7.578125 C 6.742188 -7.566406 7.164062 -7.550781 7.625 -7.53125 C 8.082031 -7.507812 8.488281 -7.5 8.84375 -7.5 C 9.144531 -7.5 9.398438 -7.566406 9.609375 -7.703125 C 9.828125 -7.847656 9.9375 -8.023438 9.9375 -8.234375 C 9.9375 -8.429688 9.828125 -8.597656 9.609375 -8.734375 C 9.398438 -8.878906 9.144531 -8.953125 8.84375 -8.953125 C 8.414062 -8.953125 7.976562 -8.945312 7.53125 -8.9375 C 7.082031 -8.925781 6.679688 -8.910156 6.328125 -8.890625 C 5.984375 -8.867188 5.742188 -8.859375 5.609375 -8.859375 Z M 0.4375 -0.65625 L 0.4375 -12.1875 C 0.4375 -12.351562 0.5 -12.503906 0.625 -12.640625 C 0.757812 -12.773438 0.914062 -12.84375 1.09375 -12.84375 C 2.25 -12.84375 3.445312 -12.859375 4.6875 -12.890625 C 5.925781 -12.929688 7.273438 -12.953125 8.734375 -12.953125 C 9.660156 -12.953125 10.515625 -12.828125 11.296875 -12.578125 C 12.078125 -12.328125 12.75 -11.984375 13.3125 -11.546875 C 13.882812 -11.109375 14.328125 -10.609375 14.640625 -10.046875 C 14.953125 -9.484375 15.109375 -8.882812 15.109375 -8.25 C 15.109375 -7.40625 14.835938 -6.632812 14.296875 -5.9375 C 13.753906 -5.238281 13.003906 -4.675781 12.046875 -4.25 C 11.085938 -3.832031 9.984375 -3.625 8.734375 -3.625 C 8.191406 -3.625 7.675781 -3.628906 7.1875 -3.640625 C 6.695312 -3.660156 6.1875 -3.703125 5.65625 -3.765625 L 5.65625 -0.65625 C 5.65625 -0.507812 5.585938 -0.363281 5.453125 -0.21875 C 5.328125 -0.0703125 5.171875 0 4.984375 0 L 1.09375 0 C 0.9375 0 0.785156 -0.0625 0.640625 -0.1875 C 0.503906 -0.320312 0.4375 -0.476562 0.4375 -0.65625 Z M 0.4375 -0.65625 "/></g></g></g><g fill="#ffffff" fill-opacity="1"><g transform="translate(51.054199, 19.93903)"><g><path d="M 0.4375 -0.65625 L 0.4375 -12.1875 C 0.4375 -12.351562 0.5 -12.503906 0.625 -12.640625 C 0.757812 -12.773438 0.914062 -12.84375 1.09375 -12.84375 L 12.4375 -12.84375 C 12.601562 -12.84375 12.753906 -12.773438 12.890625 -12.640625 C 13.023438 -12.515625 13.09375 -12.363281 13.09375 -12.1875 L 13.09375 -9.671875 C 13.09375 -9.523438 13.03125 -9.375 12.90625 -9.21875 C 12.78125 -9.070312 12.625 -9 12.4375 -9 L 5.65625 -9 L 5.65625 -7.9375 L 11.34375 -7.9375 C 11.5 -7.9375 11.644531 -7.875 11.78125 -7.75 C 11.925781 -7.625 12 -7.46875 12 -7.28125 L 12 -5.5625 C 12 -5.425781 11.929688 -5.28125 11.796875 -5.125 C 11.671875 -4.96875 11.519531 -4.890625 11.34375 -4.890625 L 5.65625 -4.890625 L 5.65625 -3.828125 L 12.4375 -3.828125 C 12.601562 -3.828125 12.753906 -3.765625 12.890625 -3.640625 C 13.023438 -3.515625 13.09375 -3.359375 13.09375 -3.171875 L 13.09375 -0.65625 C 13.09375 -0.507812 13.03125 -0.363281 12.90625 -0.21875 C 12.78125 -0.0703125 12.625 0 12.4375 0 L 1.09375 0 C 0.925781 0 0.773438 -0.0625 0.640625 -0.1875 C 0.503906 -0.320312 0.4375 -0.476562 0.4375 -0.65625 Z M 0.4375 -0.65625 "/></g></g></g><g fill="#ffffff" fill-opacity="1"><g transform="translate(64.4226, 19.93903)"><g><path d="M 0.4375 -0.65625 L 0.4375 -12.1875 C 0.4375 -12.351562 0.5 -12.503906 0.625 -12.640625 C 0.757812 -12.773438 0.914062 -12.84375 1.09375 -12.84375 C 1.882812 -12.84375 2.660156 -12.847656 3.421875 -12.859375 C 4.191406 -12.878906 5.019531 -12.898438 5.90625 -12.921875 C 6.789062 -12.941406 7.78125 -12.953125 8.875 -12.953125 C 10.082031 -12.953125 11.171875 -12.757812 12.140625 -12.375 C 13.109375 -11.988281 13.867188 -11.46875 14.421875 -10.8125 C 14.984375 -10.15625 15.265625 -9.425781 15.265625 -8.625 C 15.265625 -8.007812 15.097656 -7.4375 14.765625 -6.90625 C 14.429688 -6.382812 13.976562 -5.925781 13.40625 -5.53125 C 12.832031 -5.144531 12.179688 -4.851562 11.453125 -4.65625 L 14.84375 -0.515625 C 14.945312 -0.390625 14.976562 -0.269531 14.9375 -0.15625 C 14.894531 -0.0507812 14.785156 0 14.609375 0 L 9.140625 0 C 8.960938 0 8.78125 -0.0546875 8.59375 -0.171875 C 8.40625 -0.285156 8.273438 -0.429688 8.203125 -0.609375 L 6.46875 -4.40625 L 5.578125 -4.40625 L 5.578125 -0.65625 C 5.578125 -0.5 5.507812 -0.347656 5.375 -0.203125 C 5.25 -0.0664062 5.097656 0 4.921875 0 L 1.09375 0 C 0.9375 0 0.785156 -0.0625 0.640625 -0.1875 C 0.503906 -0.320312 0.4375 -0.476562 0.4375 -0.65625 Z M 5.578125 -7.875 C 5.640625 -7.875 5.804688 -7.863281 6.078125 -7.84375 C 6.359375 -7.832031 6.6875 -7.820312 7.0625 -7.8125 C 7.4375 -7.8125 7.820312 -7.804688 8.21875 -7.796875 C 8.613281 -7.785156 8.960938 -7.78125 9.265625 -7.78125 C 9.441406 -7.78125 9.59375 -7.835938 9.71875 -7.953125 C 9.851562 -8.078125 9.921875 -8.226562 9.921875 -8.40625 C 9.921875 -8.570312 9.847656 -8.71875 9.703125 -8.84375 C 9.566406 -8.976562 9.394531 -9.046875 9.1875 -9.046875 C 8.894531 -9.046875 8.554688 -9.035156 8.171875 -9.015625 C 7.796875 -9.003906 7.425781 -8.992188 7.0625 -8.984375 C 6.695312 -8.984375 6.375 -8.976562 6.09375 -8.96875 C 5.820312 -8.957031 5.648438 -8.953125 5.578125 -8.953125 Z M 5.578125 -7.875 "/></g></g></g><g fill="#ffffff" fill-opacity="1"><g transform="translate(79.936546, 19.93903)"><g/></g></g><g fill="#ffffff" fill-opacity="1"><g transform="translate(86.90499, 19.93903)"><g><path d="M 5.578125 -3.921875 L 7.15625 -3.921875 C 8.082031 -3.921875 8.8125 -4.164062 9.34375 -4.65625 C 9.882812 -5.144531 10.15625 -5.734375 10.15625 -6.421875 C 10.15625 -7.109375 9.882812 -7.695312 9.34375 -8.1875 C 8.8125 -8.675781 8.082031 -8.921875 7.15625 -8.921875 L 5.578125 -8.921875 Z M 0.4375 -0.65625 L 0.4375 -12.1875 C 0.4375 -12.351562 0.5 -12.503906 0.625 -12.640625 C 0.757812 -12.773438 0.914062 -12.84375 1.09375 -12.84375 C 1.914062 -12.84375 2.832031 -12.859375 3.84375 -12.890625 C 4.863281 -12.929688 5.992188 -12.953125 7.234375 -12.953125 C 8.410156 -12.953125 9.5 -12.78125 10.5 -12.4375 C 11.5 -12.09375 12.367188 -11.617188 13.109375 -11.015625 C 13.847656 -10.410156 14.421875 -9.710938 14.828125 -8.921875 C 15.242188 -8.128906 15.453125 -7.296875 15.453125 -6.421875 C 15.453125 -5.535156 15.242188 -4.695312 14.828125 -3.90625 C 14.421875 -3.125 13.847656 -2.429688 13.109375 -1.828125 C 12.367188 -1.222656 11.5 -0.75 10.5 -0.40625 C 9.5 -0.0625 8.410156 0.109375 7.234375 0.109375 C 5.992188 0.109375 4.863281 0.0859375 3.84375 0.046875 C 2.820312 0.015625 1.90625 0 1.09375 0 C 0.96875 0 0.828125 -0.0625 0.671875 -0.1875 C 0.515625 -0.320312 0.4375 -0.476562 0.4375 -0.65625 Z M 0.4375 -0.65625 "/></g></g></g><g fill="#ffffff" fill-opacity="1"><g transform="translate(102.565646, 19.93903)"><g><path d="M 0.4375 -0.65625 L 0.4375 -12.1875 C 0.4375 -12.351562 0.5 -12.503906 0.625 -12.640625 C 0.757812 -12.773438 0.914062 -12.84375 1.09375 -12.84375 L 12.4375 -12.84375 C 12.601562 -12.84375 12.753906 -12.773438 12.890625 -12.640625 C 13.023438 -12.515625 13.09375 -12.363281 13.09375 -12.1875 L 13.09375 -9.671875 C 13.09375 -9.523438 13.03125 -9.375 12.90625 -9.21875 C 12.78125 -9.070312 12.625 -9 12.4375 -9 L 5.65625 -9 L 5.65625 -7.9375 L 11.34375 -7.9375 C 11.5 -7.9375 11.644531 -7.875 11.78125 -7.75 C 11.925781 -7.625 12 -7.46875 12 -7.28125 L 12 -5.5625 C 12 -5.425781 11.929688 -5.28125 11.796875 -5.125 C 11.671875 -4.96875 11.519531 -4.890625 11.34375 -4.890625 L 5.65625 -4.890625 L 5.65625 -3.828125 L 12.4375 -3.828125 C 12.601562 -3.828125 12.753906 -3.765625 12.890625 -3.640625 C 13.023438 -3.515625 13.09375 -3.359375 13.09375 -3.171875 L 13.09375 -0.65625 C 13.09375 -0.507812 13.03125 -0.363281 12.90625 -0.21875 C 12.78125 -0.0703125 12.625 0 12.4375 0 L 1.09375 0 C 0.925781 0 0.773438 -0.0625 0.640625 -0.1875 C 0.503906 -0.320312 0.4375 -0.476562 0.4375 -0.65625 Z M 0.4375 -0.65625 "/></g></g></g><g fill="#ffffff" fill-opacity="1"><g transform="translate(115.934047, 19.93903)"><g><path d="M 0.296875 -0.609375 L 5.09375 -12.234375 C 5.164062 -12.390625 5.289062 -12.53125 5.46875 -12.65625 C 5.644531 -12.78125 5.828125 -12.84375 6.015625 -12.84375 L 10.421875 -12.84375 C 10.578125 -12.84375 10.75 -12.78125 10.9375 -12.65625 C 11.125 -12.53125 11.25 -12.390625 11.3125 -12.234375 L 16.015625 -0.609375 C 16.035156 -0.546875 16.046875 -0.476562 16.046875 -0.40625 C 16.046875 -0.289062 16.003906 -0.191406 15.921875 -0.109375 C 15.847656 -0.0351562 15.738281 0 15.59375 0 L 11.796875 0 C 11.640625 0 11.46875 -0.0546875 11.28125 -0.171875 C 11.09375 -0.296875 10.972656 -0.445312 10.921875 -0.625 L 10.34375 -2.28125 L 5.859375 -2.28125 L 5.265625 -0.625 C 5.210938 -0.5 5.097656 -0.363281 4.921875 -0.21875 C 4.742188 -0.0703125 4.566406 0 4.390625 0 L 0.703125 0 C 0.578125 0 0.46875 -0.0351562 0.375 -0.109375 C 0.28125 -0.191406 0.234375 -0.289062 0.234375 -0.40625 C 0.234375 -0.476562 0.253906 -0.546875 0.296875 -0.609375 Z M 6.9375 -5.3125 L 9.3125 -5.3125 L 8.140625 -8.734375 Z M 6.9375 -5.3125 "/></g></g></g><g fill="#ffffff" fill-opacity="1"><g transform="translate(132.2182, 19.93903)"><g><path d="M 0.4375 -0.65625 L 0.4375 -12.1875 C 0.4375 -12.351562 0.5 -12.503906 0.625 -12.640625 C 0.757812 -12.773438 0.914062 -12.84375 1.09375 -12.84375 L 4.984375 -12.84375 C 5.148438 -12.84375 5.300781 -12.773438 5.4375 -12.640625 C 5.582031 -12.515625 5.65625 -12.363281 5.65625 -12.1875 L 5.65625 -3.921875 L 7.890625 -3.921875 L 10.890625 -4.015625 C 11.035156 -4.015625 11.179688 -3.953125 11.328125 -3.828125 C 11.484375 -3.710938 11.5625 -3.5625 11.5625 -3.375 L 11.5625 -0.65625 C 11.5625 -0.507812 11.492188 -0.363281 11.359375 -0.21875 C 11.234375 -0.0703125 11.078125 0 10.890625 0 L 1.09375 0 C 0.925781 0 0.773438 -0.0625 0.640625 -0.1875 C 0.503906 -0.320312 0.4375 -0.476562 0.4375 -0.65625 Z M 0.4375 -0.65625 "/></g></g></g></svg>