<svg xmlns="http://www.w3.org/2000/svg" xmlns:xlink="http://www.w3.org/1999/xlink" width="200" zoomAndPan="magnify" viewBox="0 0 150 30.000001" height="40" preserveAspectRatio="xMidYMid meet" version="1.0"><defs><g/><clipPath id="e4c9194701"><path d="M 2.417969 0 L 147.578125 0 L 147.578125 29.03125 L 2.417969 29.03125 Z M 2.417969 0 " clip-rule="nonzero"/></clipPath></defs><g clip-path="url(#e4c9194701)"><path fill="#ffffff" d="M 2.417969 0 L 147.582031 0 L 147.582031 29.03125 L 2.417969 29.03125 Z M 2.417969 0 " fill-opacity="1" fill-rule="nonzero"/><path fill="#ecb4ce" d="M 2.417969 0 L 147.582031 0 L 147.582031 29.03125 L 2.417969 29.03125 Z M 2.417969 0 " fill-opacity="1" fill-rule="nonzero"/></g><g fill="#ffffff" fill-opacity="1"><g transform="translate(5.03906, 23.220488)"><g><path d="M 0.3125 -14.53125 C 0.28125 -14.601562 0.265625 -14.675781 0.265625 -14.75 C 0.265625 -14.894531 0.3125 -15.019531 0.40625 -15.125 C 0.507812 -15.226562 0.648438 -15.28125 0.828125 -15.28125 L 5.734375 -15.28125 C 5.929688 -15.28125 6.128906 -15.207031 6.328125 -15.0625 C 6.535156 -14.914062 6.664062 -14.734375 6.71875 -14.515625 L 8.375 -7.75 L 9.78125 -14.515625 C 9.8125 -14.703125 9.921875 -14.875 10.109375 -15.03125 C 10.296875 -15.195312 10.5 -15.28125 10.71875 -15.28125 L 14.421875 -15.28125 C 14.597656 -15.28125 14.785156 -15.203125 14.984375 -15.046875 C 15.191406 -14.898438 15.316406 -14.722656 15.359375 -14.515625 L 16.765625 -7.75 L 18.421875 -14.515625 C 18.484375 -14.703125 18.609375 -14.875 18.796875 -15.03125 C 18.984375 -15.195312 19.1875 -15.28125 19.40625 -15.28125 L 24.3125 -15.28125 C 24.476562 -15.28125 24.613281 -15.226562 24.71875 -15.125 C 24.832031 -15.019531 24.890625 -14.894531 24.890625 -14.75 C 24.890625 -14.675781 24.875 -14.601562 24.84375 -14.53125 L 19.96875 -0.734375 C 19.894531 -0.546875 19.753906 -0.375 19.546875 -0.21875 C 19.347656 -0.0703125 19.140625 0 18.921875 0 L 15.125 0 C 14.945312 0 14.753906 -0.0703125 14.546875 -0.21875 C 14.335938 -0.363281 14.210938 -0.546875 14.171875 -0.765625 L 12.578125 -7.359375 L 10.984375 -0.765625 C 10.941406 -0.578125 10.820312 -0.398438 10.625 -0.234375 C 10.4375 -0.078125 10.234375 0 10.015625 0 L 6.21875 0 C 6.039062 0 5.835938 -0.0703125 5.609375 -0.21875 C 5.390625 -0.363281 5.242188 -0.535156 5.171875 -0.734375 Z M 0.3125 -14.53125 "/></g></g></g><g fill="#ffffff" fill-opacity="1"><g transform="translate(30.175136, 23.220488)"><g><path d="M 0.53125 -0.78125 L 0.53125 -14.5 C 0.53125 -14.695312 0.601562 -14.875 0.75 -15.03125 C 0.90625 -15.195312 1.09375 -15.28125 1.3125 -15.28125 L 14.796875 -15.28125 C 15.003906 -15.28125 15.1875 -15.203125 15.34375 -15.046875 C 15.5 -14.898438 15.578125 -14.71875 15.578125 -14.5 L 15.578125 -11.5 C 15.578125 -11.320312 15.5 -11.144531 15.34375 -10.96875 C 15.195312 -10.800781 15.015625 -10.71875 14.796875 -10.71875 L 6.71875 -10.71875 L 6.71875 -9.453125 L 13.484375 -9.453125 C 13.679688 -9.453125 13.863281 -9.375 14.03125 -9.21875 C 14.195312 -9.070312 14.28125 -8.890625 14.28125 -8.671875 L 14.28125 -6.609375 C 14.28125 -6.453125 14.203125 -6.28125 14.046875 -6.09375 C 13.890625 -5.914062 13.703125 -5.828125 13.484375 -5.828125 L 6.71875 -5.828125 L 6.71875 -4.5625 L 14.796875 -4.5625 C 15.003906 -4.5625 15.1875 -4.484375 15.34375 -4.328125 C 15.5 -4.179688 15.578125 -4 15.578125 -3.78125 L 15.578125 -0.78125 C 15.578125 -0.613281 15.5 -0.441406 15.34375 -0.265625 C 15.195312 -0.0859375 15.015625 0 14.796875 0 L 1.3125 0 C 1.101562 0 0.921875 -0.0703125 0.765625 -0.21875 C 0.609375 -0.375 0.53125 -0.5625 0.53125 -0.78125 Z M 0.53125 -0.78125 "/></g></g></g><g fill="#ffffff" fill-opacity="1"><g transform="translate(46.081556, 23.220488)"><g><path d="M 0.53125 -0.78125 L 0.53125 -14.5 C 0.53125 -14.695312 0.601562 -14.875 0.75 -15.03125 C 0.90625 -15.195312 1.09375 -15.28125 1.3125 -15.28125 L 5.9375 -15.28125 C 6.125 -15.28125 6.300781 -15.203125 6.46875 -15.046875 C 6.632812 -14.898438 6.71875 -14.71875 6.71875 -14.5 L 6.71875 -4.671875 L 9.390625 -4.671875 L 12.96875 -4.78125 C 13.144531 -4.78125 13.316406 -4.707031 13.484375 -4.5625 C 13.660156 -4.414062 13.75 -4.234375 13.75 -4.015625 L 13.75 -0.78125 C 13.75 -0.613281 13.671875 -0.441406 13.515625 -0.265625 C 13.367188 -0.0859375 13.1875 0 12.96875 0 L 1.3125 0 C 1.101562 0 0.921875 -0.0703125 0.765625 -0.21875 C 0.609375 -0.375 0.53125 -0.5625 0.53125 -0.78125 Z M 0.53125 -0.78125 "/></g></g></g><g fill="#ffffff" fill-opacity="1"><g transform="translate(60.002407, 23.220488)"><g><path d="M 0.53125 -0.78125 L 0.53125 -14.5 C 0.53125 -14.695312 0.601562 -14.875 0.75 -15.03125 C 0.90625 -15.195312 1.09375 -15.28125 1.3125 -15.28125 L 5.9375 -15.28125 C 6.125 -15.28125 6.300781 -15.203125 6.46875 -15.046875 C 6.632812 -14.898438 6.71875 -14.71875 6.71875 -14.5 L 6.71875 -4.671875 L 9.390625 -4.671875 L 12.96875 -4.78125 C 13.144531 -4.78125 13.316406 -4.707031 13.484375 -4.5625 C 13.660156 -4.414062 13.75 -4.234375 13.75 -4.015625 L 13.75 -0.78125 C 13.75 -0.613281 13.671875 -0.441406 13.515625 -0.265625 C 13.367188 -0.0859375 13.1875 0 12.96875 0 L 1.3125 0 C 1.101562 0 0.921875 -0.0703125 0.765625 -0.21875 C 0.609375 -0.375 0.53125 -0.5625 0.53125 -0.78125 Z M 0.53125 -0.78125 "/></g></g></g><g fill="#ffffff" fill-opacity="1"><g transform="translate(73.923259, 23.220488)"><g><path d="M 0.53125 -0.78125 L 0.53125 -14.5 C 0.53125 -14.695312 0.601562 -14.875 0.75 -15.03125 C 0.90625 -15.195312 1.09375 -15.28125 1.3125 -15.28125 L 8.15625 -15.28125 C 8.351562 -15.28125 8.5625 -15.207031 8.78125 -15.0625 C 9.007812 -14.925781 9.164062 -14.757812 9.25 -14.5625 L 12.828125 -5.71875 L 12.828125 -14.5 C 12.828125 -14.695312 12.90625 -14.875 13.0625 -15.03125 C 13.21875 -15.195312 13.40625 -15.28125 13.625 -15.28125 L 17.203125 -15.28125 C 17.378906 -15.28125 17.550781 -15.203125 17.71875 -15.046875 C 17.894531 -14.898438 17.984375 -14.71875 17.984375 -14.5 L 17.984375 -0.78125 C 17.984375 -0.582031 17.90625 -0.398438 17.75 -0.234375 C 17.601562 -0.078125 17.421875 0 17.203125 0 L 10.4375 0 C 10.25 0 10.039062 -0.0664062 9.8125 -0.203125 C 9.582031 -0.347656 9.425781 -0.519531 9.34375 -0.71875 L 5.671875 -9.46875 L 5.671875 -0.78125 C 5.671875 -0.582031 5.59375 -0.398438 5.4375 -0.234375 C 5.289062 -0.078125 5.109375 0 4.890625 0 L 1.3125 0 C 1.125 0 0.945312 -0.0703125 0.78125 -0.21875 C 0.613281 -0.375 0.53125 -0.5625 0.53125 -0.78125 Z M 0.53125 -0.78125 "/></g></g></g><g fill="#ffffff" fill-opacity="1"><g transform="translate(92.426206, 23.220488)"><g><path d="M 0.53125 -0.78125 L 0.53125 -14.5 C 0.53125 -14.695312 0.601562 -14.875 0.75 -15.03125 C 0.90625 -15.195312 1.09375 -15.28125 1.3125 -15.28125 L 14.796875 -15.28125 C 15.003906 -15.28125 15.1875 -15.203125 15.34375 -15.046875 C 15.5 -14.898438 15.578125 -14.71875 15.578125 -14.5 L 15.578125 -11.5 C 15.578125 -11.320312 15.5 -11.144531 15.34375 -10.96875 C 15.195312 -10.800781 15.015625 -10.71875 14.796875 -10.71875 L 6.71875 -10.71875 L 6.71875 -9.453125 L 13.484375 -9.453125 C 13.679688 -9.453125 13.863281 -9.375 14.03125 -9.21875 C 14.195312 -9.070312 14.28125 -8.890625 14.28125 -8.671875 L 14.28125 -6.609375 C 14.28125 -6.453125 14.203125 -6.28125 14.046875 -6.09375 C 13.890625 -5.914062 13.703125 -5.828125 13.484375 -5.828125 L 6.71875 -5.828125 L 6.71875 -4.5625 L 14.796875 -4.5625 C 15.003906 -4.5625 15.1875 -4.484375 15.34375 -4.328125 C 15.5 -4.179688 15.578125 -4 15.578125 -3.78125 L 15.578125 -0.78125 C 15.578125 -0.613281 15.5 -0.441406 15.34375 -0.265625 C 15.195312 -0.0859375 15.015625 0 14.796875 0 L 1.3125 0 C 1.101562 0 0.921875 -0.0703125 0.765625 -0.21875 C 0.609375 -0.375 0.53125 -0.5625 0.53125 -0.78125 Z M 0.53125 -0.78125 "/></g></g></g><g fill="#ffffff" fill-opacity="1"><g transform="translate(108.332626, 23.220488)"><g><path d="M 0.3125 -2.921875 L 0.3125 -6.75 C 0.3125 -6.914062 0.359375 -7.039062 0.453125 -7.125 C 0.554688 -7.207031 0.6875 -7.164062 0.84375 -7 C 1.59375 -6.320312 2.398438 -5.78125 3.265625 -5.375 C 4.128906 -4.976562 5.015625 -4.6875 5.921875 -4.5 C 6.835938 -4.320312 7.707031 -4.234375 8.53125 -4.234375 C 9.476562 -4.234375 10.179688 -4.269531 10.640625 -4.34375 C 11.109375 -4.414062 11.421875 -4.515625 11.578125 -4.640625 C 11.734375 -4.765625 11.8125 -4.890625 11.8125 -5.015625 C 11.8125 -5.296875 11.691406 -5.472656 11.453125 -5.546875 C 11.222656 -5.617188 10.890625 -5.65625 10.453125 -5.65625 C 10.203125 -5.65625 9.921875 -5.648438 9.609375 -5.640625 C 9.296875 -5.628906 8.957031 -5.625 8.59375 -5.625 C 6.957031 -5.675781 5.535156 -5.929688 4.328125 -6.390625 C 3.128906 -6.859375 2.203125 -7.476562 1.546875 -8.25 C 0.890625 -9.019531 0.5625 -9.875 0.5625 -10.8125 C 0.5625 -11.675781 0.78125 -12.410156 1.21875 -13.015625 C 1.65625 -13.617188 2.269531 -14.101562 3.0625 -14.46875 C 3.851562 -14.832031 4.773438 -15.097656 5.828125 -15.265625 C 6.890625 -15.429688 8.03125 -15.515625 9.25 -15.515625 C 10.144531 -15.515625 11.035156 -15.460938 11.921875 -15.359375 C 12.804688 -15.265625 13.613281 -15.117188 14.34375 -14.921875 C 15.082031 -14.734375 15.65625 -14.523438 16.0625 -14.296875 C 16.519531 -14.035156 16.75 -13.671875 16.75 -13.203125 L 16.75 -10.515625 C 16.75 -10.347656 16.679688 -10.207031 16.546875 -10.09375 C 16.410156 -9.988281 16.242188 -9.976562 16.046875 -10.0625 C 15.210938 -10.488281 14.171875 -10.832031 12.921875 -11.09375 C 11.679688 -11.363281 10.398438 -11.5 9.078125 -11.5 C 8.742188 -11.5 8.410156 -11.476562 8.078125 -11.4375 C 7.753906 -11.40625 7.488281 -11.332031 7.28125 -11.21875 C 7.070312 -11.113281 6.96875 -10.953125 6.96875 -10.734375 C 6.96875 -10.515625 7.070312 -10.363281 7.28125 -10.28125 C 7.488281 -10.195312 7.738281 -10.140625 8.03125 -10.109375 C 8.332031 -10.085938 8.609375 -10.078125 8.859375 -10.078125 C 9.484375 -10.078125 10.203125 -10.035156 11.015625 -9.953125 C 11.835938 -9.867188 12.660156 -9.71875 13.484375 -9.5 C 14.316406 -9.289062 15.082031 -9 15.78125 -8.625 C 16.488281 -8.257812 17.054688 -7.789062 17.484375 -7.21875 C 17.921875 -6.644531 18.140625 -5.957031 18.140625 -5.15625 C 18.140625 -4.351562 17.882812 -3.617188 17.375 -2.953125 C 16.863281 -2.296875 16.164062 -1.726562 15.28125 -1.25 C 14.394531 -0.78125 13.367188 -0.414062 12.203125 -0.15625 C 11.035156 0.09375 9.789062 0.21875 8.46875 0.21875 C 6.96875 0.21875 5.59375 0.015625 4.34375 -0.390625 C 3.101562 -0.796875 1.988281 -1.269531 1 -1.8125 C 0.539062 -2.0625 0.3125 -2.429688 0.3125 -2.921875 Z M 0.3125 -2.921875 "/></g></g></g><g fill="#ffffff" fill-opacity="1"><g transform="translate(126.639193, 23.220488)"><g><path d="M 0.3125 -2.921875 L 0.3125 -6.75 C 0.3125 -6.914062 0.359375 -7.039062 0.453125 -7.125 C 0.554688 -7.207031 0.6875 -7.164062 0.84375 -7 C 1.59375 -6.320312 2.398438 -5.78125 3.265625 -5.375 C 4.128906 -4.976562 5.015625 -4.6875 5.921875 -4.5 C 6.835938 -4.320312 7.707031 -4.234375 8.53125 -4.234375 C 9.476562 -4.234375 10.179688 -4.269531 10.640625 -4.34375 C 11.109375 -4.414062 11.421875 -4.515625 11.578125 -4.640625 C 11.734375 -4.765625 11.8125 -4.890625 11.8125 -5.015625 C 11.8125 -5.296875 11.691406 -5.472656 11.453125 -5.546875 C 11.222656 -5.617188 10.890625 -5.65625 10.453125 -5.65625 C 10.203125 -5.65625 9.921875 -5.648438 9.609375 -5.640625 C 9.296875 -5.628906 8.957031 -5.625 8.59375 -5.625 C 6.957031 -5.675781 5.535156 -5.929688 4.328125 -6.390625 C 3.128906 -6.859375 2.203125 -7.476562 1.546875 -8.25 C 0.890625 -9.019531 0.5625 -9.875 0.5625 -10.8125 C 0.5625 -11.675781 0.78125 -12.410156 1.21875 -13.015625 C 1.65625 -13.617188 2.269531 -14.101562 3.0625 -14.46875 C 3.851562 -14.832031 4.773438 -15.097656 5.828125 -15.265625 C 6.890625 -15.429688 8.03125 -15.515625 9.25 -15.515625 C 10.144531 -15.515625 11.035156 -15.460938 11.921875 -15.359375 C 12.804688 -15.265625 13.613281 -15.117188 14.34375 -14.921875 C 15.082031 -14.734375 15.65625 -14.523438 16.0625 -14.296875 C 16.519531 -14.035156 16.75 -13.671875 16.75 -13.203125 L 16.75 -10.515625 C 16.75 -10.347656 16.679688 -10.207031 16.546875 -10.09375 C 16.410156 -9.988281 16.242188 -9.976562 16.046875 -10.0625 C 15.210938 -10.488281 14.171875 -10.832031 12.921875 -11.09375 C 11.679688 -11.363281 10.398438 -11.5 9.078125 -11.5 C 8.742188 -11.5 8.410156 -11.476562 8.078125 -11.4375 C 7.753906 -11.40625 7.488281 -11.332031 7.28125 -11.21875 C 7.070312 -11.113281 6.96875 -10.953125 6.96875 -10.734375 C 6.96875 -10.515625 7.070312 -10.363281 7.28125 -10.28125 C 7.488281 -10.195312 7.738281 -10.140625 8.03125 -10.109375 C 8.332031 -10.085938 8.609375 -10.078125 8.859375 -10.078125 C 9.484375 -10.078125 10.203125 -10.035156 11.015625 -9.953125 C 11.835938 -9.867188 12.660156 -9.71875 13.484375 -9.5 C 14.316406 -9.289062 15.082031 -9 15.78125 -8.625 C 16.488281 -8.257812 17.054688 -7.789062 17.484375 -7.21875 C 17.921875 -6.644531 18.140625 -5.957031 18.140625 -5.15625 C 18.140625 -4.351562 17.882812 -3.617188 17.375 -2.953125 C 16.863281 -2.296875 16.164062 -1.726562 15.28125 -1.25 C 14.394531 -0.78125 13.367188 -0.414062 12.203125 -0.15625 C 11.035156 0.09375 9.789062 0.21875 8.46875 0.21875 C 6.96875 0.21875 5.59375 0.015625 4.34375 -0.390625 C 3.101562 -0.796875 1.988281 -1.269531 1 -1.8125 C 0.539062 -2.0625 0.3125 -2.429688 0.3125 -2.921875 Z M 0.3125 -2.921875 "/></g></g></g></svg>