<svg width="24" height="24" viewBox="0 0 24 24" fill="none" xmlns="http://www.w3.org/2000/svg">
<path d="M18.375 10.5625C20.6992 10.5625 22.625 12.4883 22.625 14.8125C22.625 17.1699 20.6992 19.0625 18.375 19.0625C16.0176 19.0625 14.125 17.1699 14.125 14.8125C14.125 13.3848 14.8223 12.123 15.918 11.3594L15.2207 9.99805L12.4648 15.0781C12.3652 15.2441 12.166 15.3438 12 15.3438H9.80859C9.54297 17.4688 7.7832 19.0625 5.625 19.0625C3.26758 19.0625 1.375 17.1699 1.375 14.8125C1.375 12.4883 3.26758 10.5625 5.625 10.5625C6.15625 10.5625 6.6875 10.6953 7.15234 10.8945L8.04883 9.20117L6.91992 7.375H5.09375C4.79492 7.375 4.5625 7.14258 4.5625 6.84375C4.5625 6.57812 4.79492 6.3125 5.09375 6.3125H7.21875C7.38477 6.3125 7.55078 6.41211 7.65039 6.57812L8.8457 8.4375H14.3906L12.7305 5.25H11.4688C11.1699 5.25 10.9375 5.01758 10.9375 4.71875C10.9375 4.45312 11.1699 4.1875 11.4688 4.1875H13.0625C13.2285 4.1875 13.4277 4.32031 13.5273 4.51953L16.8809 10.8613C17.3457 10.6953 17.8438 10.5625 18.375 10.5625ZM5.625 18C7.18555 18 8.48047 16.8711 8.74609 15.3438H5.625C5.19336 15.3438 4.96094 14.9121 5.12695 14.5801L6.6543 11.8242C6.32227 11.7246 5.95703 11.625 5.625 11.625C3.86523 11.625 2.4375 13.0859 2.4375 14.8125C2.4375 16.5723 3.86523 18 5.625 18ZM6.48828 14.2812H11.3359L8.71289 10.2305L6.48828 14.2812ZM12.0996 13.4844L14.291 9.5H9.54297L12.0996 13.4844ZM18.375 18C20.1016 18 21.5625 16.5723 21.5625 14.8125C21.5625 13.0859 20.1016 11.625 18.375 11.625C18.0098 11.625 17.6777 11.7246 17.3789 11.8242L18.8398 14.5801C19.1719 15.2109 18.209 15.6758 17.877 15.0781L16.416 12.3223C15.6855 12.8867 15.1875 13.7832 15.1875 14.8125C15.1875 16.5723 16.6152 18 18.375 18Z" fill="#1A1E1E"/>
</svg>
