<svg width="24" height="24" viewBox="0 0 24 24" fill="none" xmlns="http://www.w3.org/2000/svg">
<path d="M19.9688 18.0625H19.4375V3.1875H19.9688C20.2344 3.1875 20.5 2.95508 20.5 2.65625C20.5 2.39062 20.2344 2.125 19.9688 2.125H4.03125C3.73242 2.125 3.5 2.39062 3.5 2.65625C3.5 2.95508 3.73242 3.1875 4.03125 3.1875H4.5625V18.0625H4.03125C3.73242 18.0625 3.5 18.3281 3.5 18.5938C3.5 18.8926 3.73242 19.125 4.03125 19.125H10.9375C11.2031 19.125 11.4688 18.8926 11.4688 18.5938V15.9375H12.5312V18.5938C12.5312 18.8926 12.7637 19.125 13.0625 19.125H19.9688C20.2344 19.125 20.5 18.8926 20.5 18.5938C20.5 18.3281 20.2344 18.0625 19.9688 18.0625ZM18.375 18.0625H13.5938V15.9707C13.5938 15.373 13.0957 14.875 12.5312 14.875H11.4688C10.8711 14.875 10.4062 15.373 10.4062 15.9707V18.0625H5.625V3.1875H18.375V18.0625ZM14.125 7.4375H15.1875C15.752 7.4375 16.25 6.97266 16.25 6.375V5.3125C16.25 4.74805 15.752 4.25 15.1875 4.25H14.125C13.5273 4.25 13.0625 4.74805 13.0625 5.3125V6.375C13.0625 6.97266 13.5273 7.4375 14.125 7.4375ZM14.125 5.3125H15.1875V6.375H14.125V5.3125ZM8.8125 11.6875H9.875C10.4395 11.6875 10.9375 11.2227 10.9375 10.625V9.5625C10.9375 8.99805 10.4395 8.5 9.875 8.5H8.8125C8.21484 8.5 7.75 8.99805 7.75 9.5625V10.625C7.75 11.2227 8.21484 11.6875 8.8125 11.6875ZM8.8125 9.5625H9.875V10.625H8.8125V9.5625ZM14.125 11.6875H15.1875C15.752 11.6875 16.25 11.2227 16.25 10.625V9.5625C16.25 8.99805 15.752 8.5 15.1875 8.5H14.125C13.5273 8.5 13.0625 8.99805 13.0625 9.5625V10.625C13.0625 11.2227 13.5273 11.6875 14.125 11.6875ZM14.125 9.5625H15.1875V10.625H14.125V9.5625ZM8.8125 7.4375H9.875C10.4395 7.4375 10.9375 6.97266 10.9375 6.375V5.3125C10.9375 4.74805 10.4395 4.25 9.875 4.25H8.8125C8.21484 4.25 7.75 4.74805 7.75 5.3125V6.375C7.75 6.97266 8.21484 7.4375 8.8125 7.4375ZM8.8125 5.3125H9.875V6.375H8.8125V5.3125ZM8.87891 14.6426C8.71289 14.875 8.8125 15.207 9.07812 15.3398C9.31055 15.5059 9.64258 15.4062 9.77539 15.1406C10.2402 14.3438 11.0703 13.8125 12 13.8125C12.8965 13.8125 13.7266 14.3438 14.1914 15.1406C14.2578 15.3066 14.457 15.4062 14.6562 15.4062C14.7227 15.4062 14.8223 15.4062 14.8887 15.3398C15.1543 15.207 15.2539 14.875 15.0879 14.6426C14.457 13.4805 13.2617 12.75 12 12.75C10.7051 12.75 9.50977 13.4805 8.87891 14.6426Z" fill="#1A1E1E"/>
</svg>
