<svg width="21" height="19" viewBox="0 0 21 19" fill="none" xmlns="http://www.w3.org/2000/svg">
<path d="M18.1296 0.775391L16.3303 2.57473M16.3303 2.57473L19.0293 5.27374L15.8805 8.42258L13.1814 5.72357M16.3303 2.57473L13.1814 5.72357M9.48381 9.42121C9.94834 9.87956 10.3176 10.4253 10.5704 11.0269C10.8232 11.6286 10.9544 12.2743 10.9566 12.9269C10.9588 13.5795 10.8319 14.2261 10.5831 14.8294C10.3344 15.4327 9.96878 15.9809 9.50733 16.4424C9.04588 16.9038 8.4977 17.2694 7.89436 17.5182C7.29103 17.7669 6.64445 17.8938 5.99186 17.8916C5.33927 17.8894 4.69356 17.7582 4.0919 17.5054C3.49025 17.2527 2.94453 16.8834 2.48618 16.4188C1.58483 15.4856 1.08608 14.2357 1.09736 12.9383C1.10863 11.6409 1.62902 10.3998 2.54646 9.48239C3.46389 8.56495 4.70495 8.04456 6.00235 8.03329C7.29975 8.02201 8.54967 8.52076 9.48291 9.42211L9.48381 9.42121ZM9.48381 9.42121L13.1814 5.72357" stroke="black" stroke-width="2.19397" stroke-linejoin="round"/>
</svg>
