<svg width="24" height="24" viewBox="0 0 24 24" fill="none" xmlns="http://www.w3.org/2000/svg">
<path d="M19.6367 4.51953C19.6035 4.45312 19.5371 4.38672 19.5039 4.35352C19.3711 4.2207 19.2051 4.1875 19.0391 4.2207C18.9062 4.25391 18.7402 4.32031 18.6738 4.48633C17.8105 5.98047 16.2832 6.87695 14.4902 6.87695H12.1992C9.14453 6.84375 6.6875 9.36719 6.6875 12.4883C6.6875 12.6543 6.6875 12.8535 6.7207 13.0527C5.12695 14.4141 3.96484 16.2734 3.5 18.4316C3.43359 18.7305 3.63281 18.9961 3.89844 19.0293C3.93164 19.0625 3.96484 19.0625 4.03125 19.0625C4.26367 19.0625 4.49609 18.8965 4.5293 18.6641C4.89453 16.9375 5.79102 15.4102 6.95312 14.248C7.05273 14.5137 7.18555 14.8125 7.31836 15.0781C8.31445 16.9043 10.1738 18 12.1992 18C12.3984 18 12.5977 18 12.7637 18C17.2461 17.668 20.5 13.75 20.5 8.66992C20.5 7.24219 20.168 5.74805 19.6367 4.51953ZM12.6641 16.9375C12.498 16.9375 12.332 16.9375 12.166 16.9375C10.5391 16.9375 9.01172 16.041 8.24805 14.5801C8.01562 14.2148 7.88281 13.8164 7.81641 13.4844C9.34375 12.3223 11.2031 11.625 13.1953 11.625H14.623C14.8887 11.625 15.1543 11.3926 15.1543 11.127C15.1543 10.8613 14.8887 10.5957 14.623 10.5957H13.1953C11.2031 10.5957 9.31055 11.2266 7.7168 12.2559C7.84961 9.89844 9.8418 7.93945 12.1992 7.93945H14.457C16.25 7.93945 17.877 7.20898 18.9727 5.88086C19.2715 6.74414 19.4375 7.74023 19.4375 8.66992C19.4375 13.1855 16.582 16.6387 12.6641 16.9375Z" fill="#1A1E1E"/>
</svg>
