<svg width="24" height="24" viewBox="0 0 24 24" fill="none" xmlns="http://www.w3.org/2000/svg">
<path d="M12 10.5625C14.623 10.5625 18.3418 14.6465 18.3418 17.2363C18.3418 18.3984 17.4453 19.0625 15.9844 19.0625C14.3574 19.0625 13.2949 18.2324 12 18.2324C10.6719 18.2324 9.60938 19.0625 7.98242 19.0625C6.48828 19.0625 5.625 18.3984 5.625 17.2363C5.625 14.6465 9.34375 10.5625 12 10.5625ZM15.9844 18C17.2793 18 17.2793 17.4355 17.2793 17.2363C17.2793 15.1445 13.959 11.625 12 11.625C10.0078 11.625 6.6875 15.1445 6.6875 17.2363C6.6875 17.4355 6.6875 18 7.98242 18C8.67969 18 9.27734 17.834 9.875 17.6348C10.5391 17.4023 11.2031 17.1699 12 17.1699C12.7637 17.1699 13.4609 17.4023 14.0918 17.6348C14.7227 17.834 15.2871 18 15.9844 18ZM19.2383 8.50391C20.2012 8.73633 20.7324 9.83203 20.3672 10.9941C20.0684 12.0234 19.2051 12.7207 18.375 12.7207C18.2422 12.7207 18.1094 12.6875 18.0098 12.6543C17.0469 12.4219 16.5156 11.3262 16.8809 10.1641C17.1797 9.16797 18.043 8.4707 18.9062 8.4707C19.0059 8.4707 19.1387 8.4707 19.2383 8.50391ZM19.3711 10.6953C19.4707 10.3633 19.4375 9.99805 19.2715 9.76562C19.2051 9.63281 19.1055 9.56641 18.9727 9.5332C18.9395 9.5332 18.9062 9.5 18.873 9.5C18.541 9.5 18.0762 9.86523 17.8438 10.4629C17.7441 10.7949 17.7773 11.1602 17.9102 11.3926C17.9766 11.5254 18.0762 11.5918 18.209 11.625C18.2422 11.625 18.2754 11.625 18.3418 11.625C18.707 11.625 19.1719 11.293 19.3711 10.6953ZM14.0586 9.4668C13.0293 9.20117 12.5312 7.80664 12.9297 6.37891C13.2617 5.08398 14.1914 4.1875 15.1211 4.1875C15.2539 4.1875 15.3535 4.2207 15.4863 4.25391C16.5156 4.51953 17.0137 5.91406 16.6152 7.3418C16.2832 8.63672 15.3535 9.5 14.4238 9.5C14.291 9.5 14.1914 9.5 14.0586 9.4668ZM13.9258 6.64453C13.7598 7.3418 13.8594 7.87305 14.0254 8.17188C14.0918 8.27148 14.1914 8.4043 14.3242 8.4375C14.3574 8.4375 14.3906 8.4375 14.4238 8.4375C14.7559 8.4375 15.3535 7.97266 15.6191 7.07617C15.7852 6.37891 15.6523 5.84766 15.5195 5.54883C15.4531 5.44922 15.3535 5.31641 15.2207 5.2832C15.1875 5.2832 15.1543 5.25 15.1211 5.25C14.7891 5.25 14.1914 5.74805 13.9258 6.64453ZM9.54297 9.5C8.61328 9.5 7.68359 8.63672 7.35156 7.3418C6.95312 5.88086 7.45117 4.51953 8.48047 4.25391C8.61328 4.2207 8.71289 4.1875 8.8457 4.1875C9.77539 4.1875 10.7051 5.08398 11.0703 6.37891C11.4355 7.80664 10.9375 9.20117 9.9082 9.4668C9.77539 9.5 9.67578 9.5 9.54297 9.5ZM8.44727 5.54883C8.28125 5.84766 8.18164 6.37891 8.34766 7.07617C8.61328 7.97266 9.21094 8.4375 9.54297 8.4375C9.57617 8.4375 9.60938 8.4375 9.64258 8.4043C9.77539 8.37109 9.875 8.23828 9.94141 8.13867C10.1074 7.87305 10.207 7.3418 10.041 6.64453C9.77539 5.74805 9.17773 5.25 8.8457 5.25C8.8125 5.25 8.7793 5.2832 8.74609 5.2832C8.61328 5.31641 8.51367 5.44922 8.44727 5.54883ZM5.95703 12.6543C5.85742 12.6875 5.72461 12.6875 5.625 12.6875C4.76172 12.6875 3.89844 11.9902 3.59961 10.9609C3.23438 9.83203 3.76562 8.70312 4.72852 8.4707C4.82812 8.4375 4.96094 8.4375 5.09375 8.4375C5.92383 8.4375 6.78711 9.13477 7.08594 10.1641C7.45117 11.3262 6.95312 12.4219 5.95703 12.6543ZM4.5957 10.6953C4.79492 11.293 5.25977 11.625 5.625 11.625C5.6582 11.625 5.69141 11.625 5.72461 11.625C5.85742 11.5918 5.95703 11.5254 6.02344 11.3926C6.15625 11.1602 6.15625 10.7949 6.08984 10.4629C5.89062 9.86523 5.42578 9.5 5.09375 9.5C5.02734 9.5 4.99414 9.5332 4.96094 9.5332C4.82812 9.56641 4.72852 9.63281 4.66211 9.76562C4.5293 9.99805 4.49609 10.3633 4.5957 10.6953Z" fill="#1A1E1E"/>
</svg>
