<svg width="20" height="18" viewBox="0 0 20 18" fill="none" xmlns="http://www.w3.org/2000/svg">
<path d="M8 5.00016L4.75 8.25016C5.06 8.37016 5.31 8.52016 5.52 8.64016C5.89 8.87016 6.11 9.00016 6.67 9.00016C7.23 9.00016 7.45 8.87016 7.82 8.64016C8.28 8.37016 8.9 8.00016 10.01 8.00016C11.12 8.00016 11.74 8.37016 12.19 8.64016C12.56 8.86016 12.79 9.00016 13.34 9.00016C13.89 9.00016 14.12 8.87016 14.49 8.64016C14.61 8.57016 14.75 8.49016 14.9 8.41016L8.48 2.00016C6.93 0.450159 5.5 -0.00984116 3 0.000158836V2.50016C4.82 2.49016 5.89 2.89016 7 4.00016L8 5.00016ZM3.35 12.5002C3.9 12.5002 4.13 12.6402 4.5 12.8602C4.95 13.1302 5.57 13.5002 6.68 13.5002C7.79 13.5002 8.41 13.1302 8.86 12.8602C9.23 12.6302 9.45 12.5002 10.01 12.5002C10.56 12.5002 10.79 12.6402 11.16 12.8602C11.61 13.1302 12.23 13.5002 13.34 13.5002C14.45 13.5002 15.07 13.1302 15.52 12.8602C15.89 12.6302 16.11 12.5002 16.67 12.5002C17.22 12.5002 17.45 12.6402 17.82 12.8602C18.27 13.1302 18.88 13.4902 19.98 13.5002V11.5002C19.43 11.5002 19.2 11.3602 18.83 11.1402C18.38 10.8702 17.76 10.5002 16.65 10.5002C15.54 10.5002 14.92 10.8702 14.47 11.1402C14.1 11.3702 13.87 11.5002 13.32 11.5002C12.77 11.5002 12.54 11.3602 12.17 11.1402C11.72 10.8702 11.1 10.5002 9.99 10.5002C8.88 10.5002 8.26 10.8702 7.81 11.1402C7.44 11.3702 7.22 11.5002 6.66 11.5002C6.11 11.5002 5.88 11.3602 5.51 11.1402C5.06 10.8702 4.44 10.5002 3.33 10.5002C2.22 10.5002 1.6 10.8702 1.15 11.1402C0.78 11.3702 0.56 11.5002 0 11.5002V13.5002C1.11 13.5002 1.73 13.1302 2.2 12.8602C2.57 12.6302 2.8 12.5002 3.35 12.5002ZM16.67 15.0002C15.56 15.0002 14.94 15.3702 14.49 15.6402C14.12 15.8702 13.89 16.0002 13.34 16.0002C12.79 16.0002 12.56 15.8602 12.19 15.6402C11.74 15.3702 11.12 15.0002 10.01 15.0002C8.9 15.0002 8.28 15.3702 7.82 15.6402C7.45 15.8702 7.23 16.0002 6.67 16.0002C6.11 16.0002 5.89 15.8702 5.52 15.6402C5.07 15.3702 4.45 15.0002 3.34 15.0002C2.23 15.0002 1.61 15.3702 1.15 15.6402C0.78 15.8702 0.56 16.0002 0 16.0002V18.0002C1.11 18.0002 1.73 17.6302 2.19 17.3602C2.56 17.1302 2.79 17.0002 3.34 17.0002C3.89 17.0002 4.12 17.1302 4.49 17.3602C4.94 17.6302 5.56 18.0002 6.67 18.0002C7.78 18.0002 8.4 17.6302 8.86 17.3602C9.23 17.1302 9.45 17.0002 10.01 17.0002C10.56 17.0002 10.79 17.1402 11.16 17.3602C11.61 17.6302 12.23 18.0002 13.34 18.0002C14.45 18.0002 15.06 17.6302 15.52 17.3602C15.89 17.1302 16.11 17.0002 16.67 17.0002C17.22 17.0002 17.45 17.1402 17.82 17.3602C18.27 17.6302 18.89 18.0002 20 18.0002V16.0002C19.44 16.0002 19.22 15.8702 18.85 15.6402C18.4 15.3702 17.78 15.0002 16.67 15.0002Z" fill="black"/>
<path d="M14.5 5.00016C15.8807 5.00016 17 3.88087 17 2.50016C17 1.11945 15.8807 0.000158787 14.5 0.000158787C13.1193 0.000158787 12 1.11945 12 2.50016C12 3.88087 13.1193 5.00016 14.5 5.00016Z" fill="black"/>
</svg>
