<svg width="24" height="25" viewBox="0 0 24 25" fill="none" xmlns="http://www.w3.org/2000/svg">
<path d="M11.4844 0.65625C11.3906 0.28125 11.0156 0 10.5938 0.09375C10.1719 0.1875 9.9375 0.5625 10.0312 0.984375L11.1094 6.375C11.5312 8.625 10.7344 10.2656 8.71875 11.1562L8.25 11.3438L8.67188 21.9375C8.67188 22.125 8.625 22.3125 8.48438 22.4062C8.4375 22.5 8.34375 22.5469 8.20312 22.5469H6.79688C6.65625 22.5469 6.5625 22.5 6.46875 22.4062C6.375 22.3125 6.28125 22.125 6.28125 21.9844L6.70312 11.3438L6.23438 11.1562C4.21875 10.2188 3.42188 8.625 3.84375 6.42188L4.96875 0.984375C5.01562 0.5625 4.78125 0.1875 4.35938 0.09375C3.98438 0 3.5625 0.28125 3.46875 0.65625L2.34375 6.14062C1.82812 8.85938 2.8125 11.0156 5.15625 12.2812L4.78125 21.9375C4.78125 22.4531 4.96875 23.0156 5.34375 23.4375C5.71875 23.8594 6.23438 24.0469 6.79688 24.0469H8.20312C8.76562 24.0469 9.23438 23.8594 9.60938 23.4375C9.98438 23.0156 10.1719 22.4531 10.1719 21.8906L9.79688 12.2812C12.0938 11.0625 13.125 8.8125 12.6094 6.09375L11.4844 0.65625ZM20.0625 0.046875C18.5625 0.046875 16.0312 2.10938 14.9062 4.78125C14.1094 6.65625 13.3125 10.3594 16.9688 14.3438L16.6406 21.7969C16.5938 22.4531 16.8281 23.0625 17.25 23.4844C17.625 23.8594 18.0938 24.0469 18.5625 24.0469H19.7812C20.8594 24.0469 21.75 23.1094 21.75 21.8906V1.875C21.75 0.890625 21 0.046875 20.0625 0.046875ZM20.25 21.8906C20.25 22.3125 19.9688 22.5469 19.7812 22.5469H18.5625C18.4688 22.5469 18.375 22.5 18.3281 22.4531C18.1875 22.3125 18.1406 22.0781 18.1406 21.8906L18.5156 13.7812L18.2812 13.5469C15.1406 10.2656 15.4688 7.3125 16.2656 5.39062C17.3438 2.90625 19.4531 1.54688 20.0625 1.54688C20.1094 1.54688 20.25 1.6875 20.25 1.875V21.8906ZM5.95312 8.29688C5.95312 8.29688 5.95312 8.29688 6 8.29688C6.375 8.29688 6.70312 8.01562 6.70312 7.59375L7.07812 0.84375C7.125 0.46875 6.79688 0.09375 6.375 0.09375C6 0.046875 5.625 0.375 5.625 0.796875L5.25 7.54688C5.20312 7.92188 5.53125 8.29688 5.95312 8.29688ZM9 8.29688C9.42188 8.29688 9.75 7.92188 9.70312 7.54688L9.32812 0.796875C9.32812 0.375 9 0.046875 8.57812 0.09375C8.15625 0.09375 7.82812 0.46875 7.875 0.84375L8.25 7.59375C8.25 8.01562 8.57812 8.29688 9 8.29688Z" fill="#1A1E1E"/>
</svg>
