<svg width="25" height="24" viewBox="0 0 25 24" fill="none" xmlns="http://www.w3.org/2000/svg">
<path d="M23.9531 9.32812L18.7031 1.82812C18.5625 1.64062 18.3281 1.5 18.0938 1.5H6.04688C5.8125 1.5 5.57812 1.64062 5.4375 1.82812L0.1875 9.32812C0 9.65625 0.046875 10.0312 0.28125 10.2656L11.5312 22.2656C11.6719 22.4531 11.8594 22.5 12.0938 22.5C12.2812 22.5 12.4688 22.4531 12.6094 22.2656L23.8594 10.2656C24.0938 10.0312 24.1406 9.60938 23.9531 9.32812ZM18.0469 3.5625L21.8906 9H13.875L18.0469 3.5625ZM12.0938 8.90625L7.59375 3H16.5469L12.0938 8.90625ZM6.09375 3.5625L10.2656 9H2.25L6.09375 3.5625ZM12.0938 20.6719L2.53125 10.5H21.6094L12.0938 20.6719Z" fill="#1A1E1E"/>
</svg>
