<svg id="Layer_1" data-name="Layer 1" xmlns="http://www.w3.org/2000/svg" viewBox="0 0 460.21 150"><defs><style>.cls-1{fill:#6060b6;}.cls-2{fill:#fff;}.cls-3{fill:#00004f;}</style></defs><path class="cls-1" d="M75,4.47H385.21A70.53,70.53,0,0,1,455.75,75v0a70.53,70.53,0,0,1-70.53,70.53H75a0,0,0,0,1,0,0V4.47a0,0,0,0,1,0,0Z"/><path class="cls-2" d="M435.11,54.47a70.53,70.53,0,0,1,70.52,71.47c-.5,38.76-32.81,69.59-71.57,69.59H124.89V54.47H435.11m0-4.47H120.43V200H434c41.16,0,75.5-32.68,76.13-73.84a75.08,75.08,0,0,0-75-76.16Z" transform="translate(-49.89 -50)"/><circle class="cls-3" cx="75" cy="75" r="70.53"/><path class="cls-2" d="M124.89,54.47A70.53,70.53,0,1,1,54.36,125a70.54,70.54,0,0,1,70.53-70.53m0-4.47a75,75,0,1,0,75,75,75.09,75.09,0,0,0-75-75Z" transform="translate(-49.89 -50)"/><path class="cls-2" d="M120.3,94.17H80.66a2.21,2.21,0,0,0-2.22,2.21v57.24a2.21,2.21,0,0,0,2.22,2.21H95.94a2.22,2.22,0,0,0,2.22-2.21V112.75a2.32,2.32,0,0,1,4.64,0v40.87a2.21,2.21,0,0,0,2.22,2.21H120.3a2.21,2.21,0,0,0,2.22-2.21V96.38A2.21,2.21,0,0,0,120.3,94.17Z" transform="translate(-49.89 -50)"/><path class="cls-2" d="M129.49,155.83h39.64a2.21,2.21,0,0,0,2.22-2.21V96.38a2.21,2.21,0,0,0-2.22-2.21H153.85a2.21,2.21,0,0,0-2.22,2.21v40.87a2.32,2.32,0,0,1-4.64,0V96.38a2.21,2.21,0,0,0-2.22-2.21H129.49a2.21,2.21,0,0,0-2.22,2.21v57.24A2.21,2.21,0,0,0,129.49,155.83Z" transform="translate(-49.89 -50)"/><path class="cls-2" d="M231.14,141.88a51.42,51.42,0,0,0,7.14,2.88,25.84,25.84,0,0,0,8.22,1.45q5.52,0,8.27-1.72a5.47,5.47,0,0,0,2.76-5q0-3.06-3.66-5.45a87.35,87.35,0,0,0-8.09-4.64,85,85,0,0,1-12.47-7.84q-6-4.5-5.87-12.53A15.11,15.11,0,0,1,233,97.42q5.47-4.74,15.59-4.73a30.78,30.78,0,0,1,9.22,1.44,59.13,59.13,0,0,1,8.13,3.15l-3.88,9.37c-1.87-.9-3.89-1.75-6.06-2.57a20.54,20.54,0,0,0-7.23-1.21,13,13,0,0,0-6.55,1.53,5,5,0,0,0-2.66,4.68q0,3.44,3.43,5.68t8.13,4.78a84,84,0,0,1,12.61,7.84,14.34,14.34,0,0,1,5.92,12.34,15.15,15.15,0,0,1-6,12.07q-5.87,4.78-17,4.78a38.7,38.7,0,0,1-10-1.71c-4.07-1.14-6.79-2.32-8.18-3.52Z" transform="translate(-49.89 -50)"/><path class="cls-2" d="M293.59,114.58a20.7,20.7,0,0,1,6.64-3.42A22.85,22.85,0,0,1,307,110q9,0,12.7,5.22a21.39,21.39,0,0,1,3.75,12.8V155.4H311.66V128.55q0-4.14-2-6.35A7.46,7.46,0,0,0,303.8,120a12,12,0,0,0-5.24,1.3,28.85,28.85,0,0,0-5,3V155.4H281.93V92.78l11.66-1Z" transform="translate(-49.89 -50)"/><path class="cls-2" d="M356.66,156.48q-10.38-.09-16.22-6.31t-5.83-16.76q0-10.44,6.1-16.67t16.68-6.21q10.94,0,16.94,6.44t6,16.89q0,10.45-6.51,16.49T356.66,156.48Zm11.57-22.62q0-6.21-2.76-9.77a9.3,9.3,0,0,0-7.81-3.56,10.35,10.35,0,0,0-8,3.15q-2.89,3.16-2.9,9.64t2.49,9.82c1.65,2.23,4.2,3.34,7.63,3.34a11.44,11.44,0,0,0,8.23-3Q368.24,140.45,368.23,133.86Z" transform="translate(-49.89 -50)"/><path class="cls-2" d="M392.63,111.7h6l2.53,3.24a24.48,24.48,0,0,1,7-3.6,22.27,22.27,0,0,1,7-1.35q9.67,0,14.82,6.66t5.16,16.58q0,9.92-5.29,16.58t-14.69,6.67a20,20,0,0,1-5.28-.81,25.24,25.24,0,0,1-5.56-2.26v20.82l-11.66.9Zm19.43,34.78q6.06,0,8.5-4.37a18.11,18.11,0,0,0,2.44-8.88,19.25,19.25,0,0,0-2.17-9.19q-2.18-4-8.77-4.05a12.48,12.48,0,0,0-3.93.67,16.58,16.58,0,0,0-3.84,1.85V144a21.07,21.07,0,0,0,3.84,1.8A11.79,11.79,0,0,0,412.06,146.48Z" transform="translate(-49.89 -50)"/></svg>