<svg width="124" height="47" viewBox="0 0 124 47" fill="none" xmlns="http://www.w3.org/2000/svg">
<path d="M91.451 15.724V14.382L95.202 9.3H96.654V14.382H97.435V15.724H96.654V17H95.202V15.724H91.451ZM95.202 11.346L92.991 14.382H95.202V11.346ZM98.1968 17V15.526H99.6708V17L98.5928 18.661L98.2738 18.54L98.6918 17H98.1968ZM100.585 13.502L100.948 9.3H105.722V10.642H101.96L101.773 12.413C101.979 12.193 102.239 12.028 102.554 11.918C102.87 11.8007 103.181 11.742 103.489 11.742C104.355 11.742 105.022 11.9803 105.491 12.457C105.968 12.9263 106.206 13.5607 106.206 14.36C106.206 15.1593 105.931 15.8267 105.381 16.362C104.839 16.89 104.131 17.154 103.258 17.154C102.422 17.154 101.755 16.9377 101.256 16.505C100.765 16.0723 100.519 15.5553 100.519 14.954C100.519 14.756 100.556 14.5543 100.629 14.349L102.015 14.679C101.986 14.7817 101.971 14.877 101.971 14.965C101.971 15.273 102.089 15.5113 102.323 15.68C102.565 15.8413 102.881 15.922 103.269 15.922C103.717 15.922 104.076 15.7863 104.347 15.515C104.619 15.2363 104.754 14.8513 104.754 14.36C104.754 13.898 104.619 13.535 104.347 13.271C104.076 12.9997 103.717 12.864 103.269 12.864C102.961 12.864 102.672 12.9483 102.4 13.117C102.129 13.2783 101.902 13.5057 101.718 13.799L100.585 13.502ZM106.384 17.33L110.784 8.97H112.192L107.792 17.33H106.384ZM112.638 13.502L113.001 9.3H117.775V10.642H114.013L113.826 12.413C114.032 12.193 114.292 12.028 114.607 11.918C114.923 11.8007 115.234 11.742 115.542 11.742C116.408 11.742 117.075 11.9803 117.544 12.457C118.021 12.9263 118.259 13.5607 118.259 14.36C118.259 15.1593 117.984 15.8267 117.434 16.362C116.892 16.89 116.184 17.154 115.311 17.154C114.475 17.154 113.808 16.9377 113.309 16.505C112.818 16.0723 112.572 15.5553 112.572 14.954C112.572 14.756 112.609 14.5543 112.682 14.349L114.068 14.679C114.039 14.7817 114.024 14.877 114.024 14.965C114.024 15.273 114.142 15.5113 114.376 15.68C114.618 15.8413 114.934 15.922 115.322 15.922C115.77 15.922 116.129 15.7863 116.4 15.515C116.672 15.2363 116.807 14.8513 116.807 14.36C116.807 13.898 116.672 13.535 116.4 13.271C116.129 12.9997 115.77 12.864 115.322 12.864C115.014 12.864 114.725 12.9483 114.453 13.117C114.182 13.2783 113.955 13.5057 113.771 13.799L112.638 13.502Z" fill="#1E1E1E"/>
<path d="M23.75 22H2V43.3061H23.75V22Z" fill="#00B67A"/>
<path d="M47.3125 22H25.5625V43.3061H47.3125V22Z" fill="#00B67A"/>
<path d="M70.875 22H49.1251V43.3061H70.875V22Z" fill="#00B67A"/>
<path d="M94.4378 22H72.6875V43.3061H94.4378V22Z" fill="#00B67A"/>
<path d="M118 22H96.2504V43.3061H118V22Z" fill="#DFDFE8"/>
<path d="M107.126 22H96.2504V43.3061H107.126V22Z" fill="#00B67A"/>
<path d="M12.875 36.3594L16.1828 35.5382L17.5648 39.7107L12.875 36.3594ZM20.4875 30.9662H14.6648L12.875 25.5954L11.0852 30.9662H5.26251L9.97498 34.2954L8.18517 39.6662L12.8977 36.3372L15.7977 34.2954L20.4875 30.9662Z" fill="white"/>
<path d="M36.4375 36.3594L39.7453 35.5382L41.1273 39.7107L36.4375 36.3594ZM44.05 30.9662H38.2273L36.4375 25.5954L34.6477 30.9662H28.825L33.5375 34.2954L31.7477 39.6662L36.4601 36.3372L39.3601 34.2954L44.05 30.9662Z" fill="white"/>
<path d="M60 36.3594L63.3078 35.5382L64.6898 39.7107L60 36.3594ZM67.6125 30.9662H61.7898L60 25.5954L58.2101 30.9662H52.3875L57.1 34.2954L55.3101 39.6662L60.0226 36.3372L62.9226 34.2954L67.6125 30.9662Z" fill="white"/>
<path d="M83.5622 36.3594L86.8702 35.5382L88.2527 39.7107L83.5622 36.3594ZM91.1748 30.9662H85.3527L83.5622 25.5954L81.7725 30.9662H75.95L80.6625 34.2954L78.8727 39.6662L83.5851 36.3372L86.4851 34.2954L91.1748 30.9662Z" fill="white"/>
<path d="M107.125 36.3594L110.433 35.5382L111.815 39.7107L107.125 36.3594ZM114.738 30.9662H108.915L107.125 25.5954L105.336 30.9662H99.5126L104.225 34.2954L102.436 39.6662L107.147 36.3372L110.047 34.2954L114.738 30.9662Z" fill="white"/>
<path d="M17.2443 9.95612H23.112V11.0484H20.8016V17.2061H19.5353V11.0484H17.2346L17.2443 9.95612ZM22.8606 11.9571H23.9433V12.9721H23.9626C24.0013 12.8271 24.069 12.6918 24.1656 12.5564C24.2623 12.4211 24.3783 12.2955 24.5233 12.1891C24.6586 12.0731 24.8133 11.9861 24.9873 11.9185C25.1516 11.8508 25.3256 11.8121 25.4996 11.8121C25.635 11.8121 25.7316 11.8218 25.78 11.8218C25.8283 11.8315 25.8863 11.8411 25.9346 11.8411V12.9528C25.8573 12.9334 25.7703 12.9238 25.6833 12.9141C25.5963 12.9044 25.519 12.8948 25.432 12.8948C25.2386 12.8948 25.055 12.9334 24.881 13.0108C24.707 13.0881 24.562 13.2041 24.4266 13.3491C24.301 13.5038 24.1946 13.6874 24.1173 13.9098C24.04 14.1321 24.0013 14.3931 24.0013 14.6831V17.1771H22.8413L22.8606 11.9571ZM31.2513 17.2061H30.1106V16.4714H30.0913C29.9463 16.7421 29.7336 16.9451 29.4533 17.1094C29.173 17.2738 28.883 17.3511 28.593 17.3511C27.9066 17.3511 27.404 17.1868 27.0946 16.8388C26.7853 16.5004 26.6306 15.9784 26.6306 15.2921V11.9571H27.7906V15.1761C27.7906 15.6401 27.8776 15.9688 28.0613 16.1524C28.2353 16.3458 28.4866 16.4424 28.8056 16.4424C29.0473 16.4424 29.2503 16.4038 29.4146 16.3264C29.579 16.2491 29.7143 16.1524 29.811 16.0268C29.9173 15.9011 29.985 15.7464 30.0333 15.5724C30.0816 15.3984 30.101 15.2051 30.101 15.0021V11.9571H31.261V17.2061H31.2513ZM33.2233 15.5241C33.262 15.8624 33.3876 16.0944 33.61 16.2394C33.8323 16.3748 34.103 16.4424 34.4123 16.4424C34.5186 16.4424 34.6443 16.4328 34.7796 16.4134C34.915 16.3941 35.0503 16.3651 35.1663 16.3168C35.292 16.2684 35.3886 16.2008 35.466 16.1041C35.5433 16.0074 35.582 15.8914 35.5723 15.7464C35.5626 15.6014 35.5143 15.4758 35.408 15.3791C35.3016 15.2824 35.176 15.2148 35.0213 15.1471C34.8666 15.0891 34.683 15.0408 34.48 15.0021C34.277 14.9634 34.074 14.9151 33.8613 14.8668C33.6486 14.8184 33.436 14.7604 33.233 14.6928C33.03 14.6251 32.856 14.5381 32.6916 14.4124C32.537 14.2964 32.4016 14.1514 32.3146 13.9678C32.218 13.7841 32.1696 13.5714 32.1696 13.3008C32.1696 13.0108 32.2373 12.7788 32.3823 12.5854C32.5176 12.3921 32.7013 12.2375 32.914 12.1215C33.1266 12.0055 33.3683 11.9185 33.6293 11.8701C33.8903 11.8218 34.1416 11.8025 34.3736 11.8025C34.6443 11.8025 34.9053 11.8315 35.147 11.8895C35.3886 11.9475 35.6206 12.0345 35.814 12.1698C36.017 12.2955 36.1813 12.4694 36.307 12.6724C36.4423 12.8754 36.5196 13.1268 36.5583 13.4168H35.35C35.292 13.1364 35.1663 12.9528 34.973 12.8561C34.77 12.7594 34.5476 12.7111 34.2866 12.7111C34.2093 12.7111 34.103 12.7208 33.9966 12.7304C33.8806 12.7498 33.784 12.7691 33.6776 12.8078C33.581 12.8464 33.494 12.9044 33.4263 12.9721C33.3586 13.0398 33.32 13.1364 33.32 13.2524C33.32 13.3974 33.3683 13.5038 33.465 13.5908C33.5616 13.6778 33.6873 13.7454 33.8516 13.8131C34.0063 13.8711 34.19 13.9194 34.393 13.9581C34.596 13.9968 34.8086 14.0451 35.0213 14.0934C35.234 14.1418 35.437 14.1998 35.64 14.2674C35.843 14.3351 36.0266 14.4221 36.1813 14.5478C36.336 14.6638 36.4713 14.8088 36.568 14.9828C36.6646 15.1568 36.713 15.3791 36.713 15.6304C36.713 15.9398 36.6453 16.2008 36.5003 16.4231C36.3553 16.6358 36.1716 16.8194 35.9493 16.9548C35.727 17.0901 35.466 17.1868 35.1953 17.2544C34.915 17.3124 34.6443 17.3511 34.3736 17.3511C34.045 17.3511 33.7356 17.3124 33.4553 17.2351C33.175 17.1578 32.9236 17.0418 32.7206 16.8968C32.5176 16.7421 32.3533 16.5584 32.2373 16.3264C32.1213 16.1041 32.0536 15.8334 32.044 15.5144H33.2136V15.5241H33.2233ZM37.0416 11.9571H37.9213V10.3718H39.0813V11.9475H40.1253V12.8078H39.0813V15.6111C39.0813 15.7368 39.091 15.8334 39.1006 15.9301C39.1103 16.0171 39.1393 16.0944 39.1683 16.1524C39.207 16.2104 39.265 16.2588 39.3326 16.2878C39.41 16.3168 39.5066 16.3361 39.642 16.3361C39.7193 16.3361 39.8063 16.3361 39.8836 16.3264C39.961 16.3168 40.048 16.3071 40.1253 16.2878V17.1868C39.9996 17.2061 39.874 17.2158 39.7483 17.2254C39.6226 17.2448 39.5066 17.2448 39.3713 17.2448C39.062 17.2448 38.8203 17.2158 38.6366 17.1578C38.453 17.0998 38.308 17.0128 38.2016 16.9064C38.0953 16.7904 38.0276 16.6551 37.989 16.4908C37.9503 16.3264 37.931 16.1234 37.9213 15.9108V12.8174H37.0416V11.9378V11.9571ZM40.9373 11.9571H42.0296V12.6724H42.049C42.2133 12.3631 42.4356 12.1505 42.7256 12.0151C43.0156 11.8798 43.325 11.8121 43.673 11.8121C44.0886 11.8121 44.4463 11.8798 44.7556 12.0345C45.065 12.1795 45.3163 12.3728 45.5193 12.6338C45.7223 12.8851 45.877 13.1848 45.9736 13.5231C46.0703 13.8614 46.1283 14.2288 46.1283 14.6058C46.1283 14.9634 46.08 15.3018 45.993 15.6304C45.8963 15.9591 45.761 16.2588 45.5773 16.5101C45.3936 16.7614 45.1616 16.9644 44.8716 17.1191C44.5816 17.2738 44.253 17.3511 43.8663 17.3511C43.702 17.3511 43.528 17.3318 43.3636 17.3028C43.1993 17.2738 43.035 17.2254 42.8803 17.1578C42.7256 17.0901 42.5806 17.0031 42.455 16.8968C42.3196 16.7904 42.2133 16.6648 42.1263 16.5294H42.107V19.1491H40.947V11.9571H40.9373ZM44.9876 14.5864C44.9876 14.3544 44.9586 14.1224 44.891 13.9001C44.833 13.6778 44.7363 13.4844 44.6106 13.3104C44.485 13.1364 44.3303 13.0011 44.1563 12.8948C43.9726 12.7884 43.76 12.7401 43.528 12.7401C43.0446 12.7401 42.6773 12.9044 42.426 13.2428C42.1843 13.5811 42.0586 14.0354 42.0586 14.5961C42.0586 14.8668 42.0876 15.1084 42.1553 15.3308C42.223 15.5531 42.31 15.7464 42.4453 15.9108C42.571 16.0751 42.7256 16.2008 42.9093 16.2974C43.093 16.3941 43.296 16.4424 43.5376 16.4424C43.8083 16.4424 44.021 16.3844 44.2046 16.2781C44.3883 16.1718 44.5333 16.0268 44.659 15.8624C44.775 15.6884 44.862 15.4951 44.9103 15.2728C44.9586 15.0408 44.9876 14.8184 44.9876 14.5864ZM47.0273 9.95612H48.1873V11.0484H47.0273V9.95612ZM47.0273 11.9571H48.1873V17.2061H47.0273V11.9571ZM49.2216 9.95612H50.3816V17.2061H49.2216V9.95612ZM53.9196 17.3511C53.504 17.3511 53.127 17.2834 52.7983 17.1384C52.4697 16.9934 52.199 16.8098 51.967 16.5681C51.7446 16.3264 51.5707 16.0268 51.4547 15.6884C51.3387 15.3501 51.271 14.9731 51.271 14.5768C51.271 14.1804 51.329 13.8131 51.4547 13.4748C51.5707 13.1364 51.7446 12.8464 51.967 12.5951C52.1893 12.3534 52.4697 12.1601 52.7983 12.0248C53.127 11.8895 53.504 11.8121 53.9196 11.8121C54.3353 11.8121 54.7123 11.8798 55.041 12.0248C55.3697 12.1601 55.6403 12.3534 55.8723 12.5951C56.0946 12.8368 56.2687 13.1364 56.3847 13.4748C56.5007 13.8131 56.5683 14.1804 56.5683 14.5768C56.5683 14.9828 56.5103 15.3501 56.3847 15.6884C56.259 16.0268 56.0946 16.3168 55.8723 16.5681C55.65 16.8098 55.3697 17.0031 55.041 17.1384C54.7123 17.2738 54.345 17.3511 53.9196 17.3511ZM53.9196 16.4328C54.171 16.4328 54.403 16.3748 54.5867 16.2684C54.78 16.1621 54.925 16.0171 55.0507 15.8431C55.1763 15.6691 55.2633 15.4661 55.3213 15.2534C55.3793 15.0311 55.4083 14.8088 55.4083 14.5768C55.4083 14.3544 55.3793 14.1321 55.3213 13.9098C55.2633 13.6874 55.1763 13.4941 55.0507 13.3201C54.925 13.1461 54.7703 13.0108 54.5867 12.9044C54.3933 12.7981 54.171 12.7401 53.9196 12.7401C53.6683 12.7401 53.4363 12.7981 53.2527 12.9044C53.0593 13.0108 52.9143 13.1558 52.7887 13.3201C52.663 13.4941 52.576 13.6874 52.518 13.9098C52.46 14.1321 52.431 14.3544 52.431 14.5768C52.431 14.8088 52.46 15.0311 52.518 15.2534C52.576 15.4758 52.663 15.6691 52.7887 15.8431C52.9143 16.0171 53.069 16.1621 53.2527 16.2684C53.446 16.3844 53.6683 16.4328 53.9196 16.4328ZM56.9163 11.9571H57.796V10.3718H58.956V11.9475H60V12.8078H58.956V15.6111C58.956 15.7368 58.9657 15.8334 58.9753 15.9301C58.985 16.0171 59.014 16.0944 59.043 16.1524C59.0817 16.2104 59.1397 16.2588 59.2073 16.2878C59.2847 16.3168 59.3813 16.3361 59.5167 16.3361C59.594 16.3361 59.681 16.3361 59.7583 16.3264C59.8357 16.3168 59.9227 16.3071 60 16.2878V17.1868C59.8743 17.2061 59.7487 17.2158 59.623 17.2254C59.4973 17.2448 59.3813 17.2448 59.246 17.2448C58.9367 17.2448 58.695 17.2158 58.5113 17.1578C58.3277 17.0998 58.1827 17.0128 58.0763 16.9064C57.97 16.7904 57.9023 16.6551 57.8637 16.4908C57.825 16.3264 57.8057 16.1234 57.796 15.9108V12.8174H56.9163V11.9378V11.9571Z" fill="#1E1E1E"/>
<path d="M15.891 9.95602H10.584L8.95034 4.91002L7.307 9.95602L2 9.94636L6.292 13.0687L4.64867 18.1147L8.94067 14.9924L13.2327 18.1147L11.599 13.0687L15.891 9.95602Z" fill="#00B67A"/>
<path d="M11.9665 14.2095L11.5991 13.0688L8.95044 14.9925L11.9665 14.2095Z" fill="#005128"/>
</svg>
